<?xml version="1.0" encoding="utf-8"?>
<!-- Generator: Adobe Illustrator 22.0.0, SVG Export Plug-In . SVG Version: 6.00 Build 0)  -->
<svg version="1.1" xmlns="http://www.w3.org/2000/svg" xmlns:xlink="http://www.w3.org/1999/xlink" x="0px" y="0px"
	 viewBox="0 0 500 500" style="enable-background:new 0 0 500 500;" xml:space="preserve">
<style type="text/css">
	.st0{fill:#FFFFFF;}
	.st1{fill:#173556;}
	.st2{fill:#429B6E;}
	.st3{fill:#4CD895;}
	.st4{fill:#A7A7A7;}
	.st5{fill:#BFBFBF;}
	.st6{fill:#D4D4D4;}
	.st7{opacity:0.54;}
	.st8{fill:#D3493A;}
	.st9{fill:#F0EDD5;}
	.st10{fill:#C7C7C7;}
	.st11{fill:#E8E8E8;}
	.st12{fill:#E0E0E0;}
	.st13{fill:#DBDBDB;}
	.st14{opacity:0.66;}
</style>
<g id="Background">
	<rect class="st0" width="500" height="500"/>
</g>
<g id="Objects">
	<g>
		<g>
			<path class="st1" d="M7,285.9l87.3-51.1l2,5c0,0-7.5,3.8-8.1,5.3c-0.6,1.5-1.2,12.7-3,13c-1.8,0.3-78.3,32-78.3,32V285.9z"/>
			<path class="st1" d="M110.5,233.3c0,5.1-4.2,9.3-9.3,9.3c-5.1,0-9.3-4.2-9.3-9.3s4.2-9.3,9.3-9.3
				C106.4,224,110.5,228.1,110.5,233.3z"/>
			<path class="st1" d="M98.2,226.6v-9c0,0-9.6-9.8-9.6-10.6c0-0.8,9.6-82,9.6-82h4.9v101.6H98.2z"/>
			<polygon class="st1" points="105.2,238.7 108.8,234.8 117.3,239.8 131,234.8 196.4,286.8 194.6,290.1 			"/>
			<polygon class="st1" points="94.3,234.8 91.9,422.3 110.5,422.3 105.2,238.7 			"/>
		</g>
		<g>
			<path class="st1" d="M306.5,282.2l-74.9,3.1l0.4-4c0,0,6.2,0.1,7.1-0.7c0.9-0.8,5.2-7.9,6.5-7.4c1.3,0.4,62.3,6.3,62.3,6.3
				L306.5,282.2z"/>
			<path class="st1" d="M220.6,280.6c1.8-3.4,6-4.6,9.3-2.8c3.4,1.8,4.6,6,2.8,9.3c-1.8,3.4-6,4.6-9.3,2.8
				C220,288.1,218.8,283.9,220.6,280.6z"/>
			<path class="st1" d="M226.3,289.2l-3.1,5.9c0,0,2.8,9.8,2.6,10.3c-0.3,0.5-34.8,50.3-34.8,50.3l-3.2-1.7l35.3-66.4L226.3,289.2z"
				/>
			<polygon class="st1" points="226,278.9 222.2,280.2 218.4,274 207.7,272.5 183,215.7 185.3,214.1 			"/>
			<polygon class="st1" points="224.3,283.4 222.5,422.3 236.3,422.3 232.3,286.3 			"/>
		</g>
		<g>
			<path class="st2" d="M787.8,425.9c-13.5-13.5-33-18.9-52-21.1c-18.9-2.2-38.2-1.8-56.8-6c-45.8-10.4-80.9-47.3-124.4-65.1
				c-36.1-14.7-77.8-15.4-114.4-1.7c-28.6,10.6-55.3,29.8-85.8,29.5c-23.1-0.3-46.1-11.9-68.4-6.1c-20.3,5.3-34.2,23.5-52.1,34.6
				c-29.8,18.6-67.7,15.8-102.8,14.3c-35.1-1.4-74.3,0.7-99.1,25.5L787.8,425.9z"/>
		</g>
		<g>
			<path class="st3" d="M-59.1,433.1c37.8-23.4,85.3-23.7,129.6-19.3c44.3,4.5,89.1,13,132.8,5c37.1-6.8,71.7-25.4,109.2-29.1
				c40-4,80.3,9.3,120.4,5.1c41.6-4.3,79.8-27.1,121.5-30.7c87.7-7.5,178.1,56.8,261.6,62.9L-59.1,433.1z"/>
		</g>
	</g>
	<g>
		<g>
			<rect x="406.7" y="119.7" class="st4" width="6" height="110.6"/>
		</g>
		<g>
			<rect x="396.6" y="186.6" class="st5" width="25.8" height="3.5"/>
		</g>
		<g>
			<path class="st5" d="M393.8,182.7c-2.2,0-4,1.5-4,3.4h-0.1v20h0.1c0,1.9,1.8,3.4,4,3.4s4-1.5,4-3.4v-20
				C397.8,184.2,396,182.7,393.8,182.7z"/>
		</g>
		<g>
			<path class="st6" d="M399.4,182.7c-2.6,0-4.8,1.5-4.8,3.4h-0.1v20h0.1c0,1.9,2.1,3.4,4.8,3.4c2.6,0,4.8-1.5,4.8-3.4v-20
				C404.2,184.2,402,182.7,399.4,182.7z"/>
		</g>
		<g>
			<path class="st5" d="M425.6,183.1c2.2,0,4,1.5,4,3.4h0.1v20h-0.1c0,1.9-1.8,3.4-4,3.4c-2.2,0-4-1.5-4-3.4v-20
				C421.7,184.6,423.4,183.1,425.6,183.1z"/>
		</g>
		<g>
			<path class="st6" d="M420.1,183.1c2.6,0,4.8,1.5,4.8,3.4h0.1v20h-0.1c0,1.9-2.1,3.4-4.8,3.4s-4.8-1.5-4.8-3.4v-20
				C415.3,184.6,417.4,183.1,420.1,183.1z"/>
		</g>
		<g class="st7">
			<path class="st0" d="M395.9,188.1c0.2,5.2,0.2,10.3,0,15.5c0,0.9,0.1,2,0.9,2.3c0.6,0.2,1.3-0.2,1.6-0.8c0.3-0.6,0.3-1.3,0.3-1.9
				c0-4.2,0-8.4,0-12.6c0-1.2,0.5-4.2-0.9-4.8C396.2,184.9,395.8,187,395.9,188.1z"/>
		</g>
		<g class="st7">
			<path class="st0" d="M417,201.1c0,1.3,0,2.5,0.1,3.8c0,0.3,0.1,0.7,0.3,0.8c0.3,0.2,0.7,0,0.9-0.3c0.2-0.3,0.2-0.7,0.2-1
				c0.2-4.7,0.5-9.5,0.7-14.2c0.1-1.1,0.5-3.7-1-4c-1.7-0.4-1.3,2.5-1.3,3.5C417,193.4,417,197.2,417,201.1z"/>
		</g>
		<g class="st7">
			<path class="st0" d="M390.7,186.5c-0.1,0.4,0,0.9,0.1,1.3c0.6,2.4,0.9,5,0.8,7.5c-0.1,3.2-0.7,6.3-0.5,9.5c0,0.3,0.1,0.7,0.5,0.7
				c0.3,0,0.4-0.3,0.5-0.5c0.6-1.3,0.7-2.8,0.7-4.2c0.2-4.6,0.1-9.2-0.3-13.8C392.4,186,391.1,185.1,390.7,186.5z"/>
		</g>
		<g>
			<rect x="397.2" y="235.6" class="st8" width="23.5" height="161.8"/>
		</g>
		<g>
			<g>
				
					<rect x="371.2" y="263.8" transform="matrix(1 5.967043e-03 -5.967043e-03 1 1.6036 -2.4378)" class="st5" width="76.3" height="7.4"/>
			</g>
			<g>
				<polygon class="st4" points="371.2,271 397.2,276.3 420.7,276.5 447.4,271.5 				"/>
			</g>
			<g>
				
					<rect x="371.3" y="256.7" transform="matrix(1 5.967473e-03 -5.967473e-03 1 1.5445 -2.4385)" class="st5" width="76.3" height="1.7"/>
			</g>
			<g>
				
					<rect x="371.2" y="256.5" transform="matrix(1 5.835648e-03 -5.835648e-03 1 1.5289 -2.1643)" class="st5" width="0.8" height="8.8"/>
			</g>
			<g>
				
					<rect x="375.2" y="256.5" transform="matrix(1 5.795522e-03 -5.795522e-03 1 1.5185 -2.1724)" class="st5" width="0.8" height="8.8"/>
			</g>
			<g>
				
					<rect x="379.2" y="256.5" transform="matrix(1 6.261591e-03 -6.261591e-03 1 1.6414 -2.3716)" class="st5" width="0.8" height="8.8"/>
			</g>
			<g>
				
					<rect x="383.2" y="256.6" transform="matrix(1 6.261325e-03 -6.261325e-03 1 1.6416 -2.3964)" class="st5" width="0.8" height="8.8"/>
			</g>
			<g>
				
					<rect x="387.1" y="256.6" transform="matrix(1 6.218732e-03 -6.218732e-03 1 1.6306 -2.4049)" class="st5" width="0.8" height="8.8"/>
			</g>
			<g>
				
					<rect x="391.1" y="256.6" transform="matrix(1 5.837886e-03 -5.837886e-03 1 1.5305 -2.2811)" class="st5" width="0.8" height="8.8"/>
			</g>
			<g>
				
					<rect x="395.1" y="256.6" transform="matrix(1 5.837886e-03 -5.837886e-03 1 1.5307 -2.3042)" class="st5" width="0.8" height="8.8"/>
			</g>
			<g>
				
					<rect x="399.1" y="256.7" transform="matrix(1 5.835399e-03 -5.835399e-03 1 1.5303 -2.3265)" class="st5" width="0.8" height="8.8"/>
			</g>
			<g>
				
					<rect x="403" y="256.7" transform="matrix(1 5.837886e-03 -5.837886e-03 1 1.5311 -2.3506)" class="st5" width="0.8" height="8.8"/>
			</g>
			<g>
				
					<rect x="407" y="256.7" transform="matrix(1 5.795275e-03 -5.795275e-03 1 1.5201 -2.3565)" class="st5" width="0.8" height="8.8"/>
			</g>
			<g>
				
					<rect x="411" y="256.7" transform="matrix(1 5.835399e-03 -5.835399e-03 1 1.5309 -2.396)" class="st5" width="0.8" height="8.8"/>
			</g>
			<g>
				
					<rect x="414.9" y="256.8" transform="matrix(1 6.261325e-03 -6.261325e-03 1 1.6434 -2.5954)" class="st5" width="0.8" height="8.8"/>
			</g>
			<g>
				
					<rect x="418.9" y="256.8" transform="matrix(1 6.218997e-03 -6.218997e-03 1 1.6325 -2.6026)" class="st5" width="0.8" height="8.8"/>
			</g>
			<g>
				
					<rect x="422.9" y="256.8" transform="matrix(1 5.837886e-03 -5.837886e-03 1 1.5322 -2.4666)" class="st5" width="0.8" height="8.8"/>
			</g>
			<g>
				
					<rect x="426.9" y="256.8" transform="matrix(1 5.838134e-03 -5.838134e-03 1 1.5324 -2.4899)" class="st5" width="0.8" height="8.8"/>
			</g>
			<g>
				
					<rect x="430.8" y="256.9" transform="matrix(1 5.837886e-03 -5.837886e-03 1 1.5326 -2.513)" class="st5" width="0.8" height="8.8"/>
			</g>
			<g>
				
					<rect x="434.8" y="256.9" transform="matrix(1 5.838134e-03 -5.838134e-03 1 1.5328 -2.5363)" class="st5" width="0.8" height="8.8"/>
			</g>
			<g>
				
					<rect x="438.8" y="256.9" transform="matrix(1 6.221382e-03 -6.221382e-03 1 1.6342 -2.7272)" class="st5" width="0.8" height="8.8"/>
			</g>
			<g>
				
					<rect x="442.8" y="256.9" transform="matrix(1 6.263993e-03 -6.263993e-03 1 1.6457 -2.7707)" class="st5" width="0.8" height="8.8"/>
			</g>
			<g>
				
					<rect x="446.7" y="257" transform="matrix(1 6.261325e-03 -6.261325e-03 1 1.6452 -2.7944)" class="st5" width="0.8" height="8.8"/>
			</g>
		</g>
		<g>
			<g>
				
					<rect x="371.2" y="222.9" transform="matrix(1 5.967447e-03 -5.967447e-03 1 1.3597 -2.4389)" class="st5" width="76.3" height="7.4"/>
			</g>
			<g>
				<polygon class="st4" points="371.2,230.1 397.3,235.5 420.8,235.6 447.5,230.6 				"/>
			</g>
			<g>
				
					<rect x="371.3" y="215.8" transform="matrix(1 5.967473e-03 -5.967473e-03 1 1.3005 -2.4394)" class="st5" width="76.3" height="1.7"/>
			</g>
			<g>
				
					<rect x="371.3" y="215.6" transform="matrix(1 5.795522e-03 -5.795522e-03 1 1.2814 -2.1503)" class="st5" width="0.8" height="8.8"/>
			</g>
			<g>
				
					<rect x="375.3" y="215.6" transform="matrix(1 5.837886e-03 -5.837886e-03 1 1.291 -2.1892)" class="st5" width="0.8" height="8.8"/>
			</g>
			<g>
				
					<rect x="379.2" y="215.7" transform="matrix(1 5.837886e-03 -5.837886e-03 1 1.2912 -2.2124)" class="st5" width="0.8" height="8.8"/>
			</g>
			<g>
				
					<rect x="383.2" y="215.7" transform="matrix(1 5.792806e-03 -5.792806e-03 1 1.2814 -2.2184)" class="st5" width="0.8" height="8.8"/>
			</g>
			<g>
				
					<rect x="387.2" y="215.7" transform="matrix(1 6.263993e-03 -6.263993e-03 1 1.3864 -2.4234)" class="st5" width="0.8" height="8.8"/>
			</g>
			<g>
				
					<rect x="391.1" y="215.7" transform="matrix(1 6.263993e-03 -6.263993e-03 1 1.3866 -2.4482)" class="st5" width="0.8" height="8.8"/>
			</g>
			<g>
				
					<rect x="395.1" y="215.8" transform="matrix(1 5.835399e-03 -5.835399e-03 1 1.2915 -2.3042)" class="st5" width="0.8" height="8.8"/>
			</g>
			<g>
				
					<rect x="399.1" y="215.8" transform="matrix(1 5.835399e-03 -5.835399e-03 1 1.2917 -2.3274)" class="st5" width="0.8" height="8.8"/>
			</g>
			<g>
				
					<rect x="403.1" y="215.8" transform="matrix(1 5.795275e-03 -5.795275e-03 1 1.283 -2.3344)" class="st5" width="0.8" height="8.8"/>
			</g>
			<g>
				
					<rect x="407" y="215.8" transform="matrix(1 5.837886e-03 -5.837886e-03 1 1.2927 -2.3747)" class="st5" width="0.8" height="8.8"/>
			</g>
			<g>
				
					<rect x="411" y="215.9" transform="matrix(1 5.837886e-03 -5.837886e-03 1 1.2929 -2.3979)" class="st5" width="0.8" height="8.8"/>
			</g>
			<g>
				
					<rect x="415" y="215.9" transform="matrix(1 5.795275e-03 -5.795275e-03 1 1.2836 -2.4035)" class="st5" width="0.8" height="8.8"/>
			</g>
			<g>
				
					<rect x="419" y="215.9" transform="matrix(1 5.837886e-03 -5.837886e-03 1 1.2933 -2.4443)" class="st5" width="0.8" height="8.8"/>
			</g>
			<g>
				
					<rect x="422.9" y="215.9" transform="matrix(1 6.261591e-03 -6.261591e-03 1 1.3879 -2.6463)" class="st5" width="0.8" height="8.8"/>
			</g>
			<g>
				
					<rect x="426.9" y="215.9" transform="matrix(1 6.218997e-03 -6.218997e-03 1 1.3786 -2.653)" class="st5" width="0.8" height="8.8"/>
			</g>
			<g>
				
					<rect x="430.9" y="216" transform="matrix(1 5.835648e-03 -5.835648e-03 1 1.2934 -2.5129)" class="st5" width="0.8" height="8.8"/>
			</g>
			<g>
				
					<rect x="434.8" y="216" transform="matrix(1 5.837886e-03 -5.837886e-03 1 1.2941 -2.5371)" class="st5" width="0.8" height="8.8"/>
			</g>
			<g>
				
					<rect x="438.8" y="216" transform="matrix(1 5.837886e-03 -5.837886e-03 1 1.2943 -2.5603)" class="st5" width="0.8" height="8.8"/>
			</g>
			<g>
				
					<rect x="442.8" y="216" transform="matrix(1 5.837886e-03 -5.837886e-03 1 1.2945 -2.5835)" class="st5" width="0.8" height="8.8"/>
			</g>
			<g>
				
					<rect x="446.8" y="216.1" transform="matrix(1 6.221382e-03 -6.221382e-03 1 1.3803 -2.7776)" class="st5" width="0.8" height="8.8"/>
			</g>
		</g>
		<g>
			<rect x="397.2" y="369" class="st9" width="23.5" height="10.6"/>
		</g>
		<g>
			<rect x="396.9" y="336.7" class="st9" width="23.5" height="10.6"/>
		</g>
		<g>
			<rect x="397.2" y="299.3" class="st9" width="23.5" height="10.6"/>
		</g>
		<g>
			<rect x="384.4" y="127.5" class="st5" width="48.3" height="1.7"/>
		</g>
		<g>
			<rect x="384.4" y="147.9" class="st5" width="48.3" height="1.7"/>
		</g>
		<g>
			<rect x="384.4" y="168.4" class="st5" width="48.3" height="1.7"/>
		</g>
		<g>
			<path class="st5" d="M385,169.9C384.9,169.9,384.9,169.9,385,169.9c-0.4-0.1-0.6-0.3-0.6-0.6l-0.3-41c0-0.3,0.2-0.6,0.5-0.6
				c0.3-0.1,0.6,0.1,0.7,0.4l6.8,18.5l6.9-17.6c0.1-0.2,0.3-0.4,0.5-0.4c0.2,0,0.5,0.1,0.6,0.3l10.3,18.6l11.3-18.6
				c0.1-0.2,0.3-0.3,0.6-0.3c0.2,0,0.4,0.1,0.5,0.4l9.1,19.6c0.1,0.2,0.1,0.3,0,0.5c0,0.1-2.2,5.2-4.4,10.2
				c-4.6,10.6-4.9,10.6-5.5,10.6c-0.3,0-0.5-0.2-0.6-0.4c-0.3-0.6-6.5-11.5-11-19.4l-8.2,19.4c-0.1,0.2-0.3,0.4-0.6,0.4
				c-0.2,0-0.5-0.1-0.6-0.4l-8.9-19.5l-6.6,19.4C385.5,169.7,385.2,169.9,385,169.9z M422.5,169L422.5,169L422.5,169z M411,148.8
				c1.6,2.7,9.1,15.8,11,19.4c1.5-2.8,5.8-12.7,8.6-19.3l-8.5-18.3L411,148.8z M392.7,148.4l8.8,19.4l8.1-18.9l-10-18.1L392.7,148.4
				z M385.3,131.9l0.3,33.8l5.8-17.3L385.3,131.9z"/>
		</g>
		<g>
			<path class="st5" d="M432,169.9c-0.3,0-0.6-0.3-0.6-0.6V128c0-0.3,0.3-0.6,0.6-0.6c0.3,0,0.6,0.3,0.6,0.6v41.3
				C432.7,169.6,432.4,169.9,432,169.9z"/>
		</g>
		<g>
			<g>
				<path class="st10" d="M444.1,144.2c0,0-4.3,1-7.7-0.9c-3.4-1.9-7.6-6-9-11.4c-1.4-5.5-1.8-8.7-0.1-13.8c2.4-7.1,7-7.3,7-7.3
					L444.1,144.2z"/>
			</g>
			<g>
				<path class="st11" d="M430.7,130.2c2.9,9.2,9.2,15.4,14.1,13.9c4.9-1.5,6.5-10.2,3.6-19.4c-2.9-9.2-9.2-15.4-14.1-13.9
					C429.5,112.3,427.8,121,430.7,130.2z"/>
			</g>
			<g>
				<path class="st12" d="M432.4,129.8c2.7,8.5,8.2,14.3,12.3,13c4.1-1.3,5.3-9.2,2.7-17.7c-2.7-8.5-8.2-14.3-12.3-13
					C430.9,113.4,429.7,121.3,432.4,129.8z"/>
			</g>
			<g>
				<path class="st13" d="M432.5,129.7c-1.8-5.8-1.8-11.4-0.3-14.7c3.1,1.9,6.2,6.4,7.9,12.1c1.8,5.8,1.8,11.4,0.3,14.7
					C437.4,139.9,434.3,135.4,432.5,129.7z"/>
			</g>
			<g class="st14">
				<path class="st0" d="M439.6,115.4c-0.1,0.9-0.8,1.6-1.3,2.3c-1.3,1.7-2.1,3.7-2.4,5.8c-0.1,0.6-0.2,1.4-0.8,1.6
					c-0.6,0.2-1.2-0.3-1.5-0.9c-0.4-0.9-0.3-1.9-0.2-2.9c0.2-2.5,0.7-5.1,2.3-6.9C437,113,440.1,113,439.6,115.4z"/>
			</g>
		</g>
		<g>
			<g>
				<path class="st10" d="M435.8,180.8c0,0-4.8,1.3-8.7-0.8c-3.9-2-8.7-6.4-10.5-12.4c-1.8-6.1-2.4-9.7-0.6-15.4
					c2.4-8,7.6-8.5,7.6-8.5L435.8,180.8z"/>
			</g>
			<g>
				<path class="st11" d="M420.3,165.6c3.6,10.2,10.8,16.9,16.2,15c5.4-1.9,6.9-11.7,3.3-21.9c-3.6-10.2-10.8-16.9-16.2-15
					C418.3,145.7,416.8,155.4,420.3,165.6z"/>
			</g>
			<g>
				<path class="st12" d="M422.2,165.2c3.3,9.4,9.6,15.7,14.2,14.1c4.6-1.6,5.6-10.5,2.3-19.9c-3.3-9.4-9.6-15.7-14.2-14.1
					C419.9,146.9,418.9,155.8,422.2,165.2z"/>
			</g>
			<g>
				<path class="st13" d="M422.3,165c-2.3-6.4-2.5-12.6-0.9-16.4c3.5,2.1,7.1,7,9.3,13.3c2.3,6.4,2.5,12.6,0.9,16.4
					C428.1,176.2,424.5,171.3,422.3,165z"/>
			</g>
			<g class="st14">
				<path class="st0" d="M429.8,148.8c-0.1,1-0.8,1.8-1.4,2.6c-1.4,1.9-2.2,4.2-2.4,6.5c-0.1,0.7-0.2,1.6-0.9,1.9
					c-0.7,0.3-1.4-0.3-1.7-1c-0.5-1-0.4-2.1-0.3-3.2c0.2-2.8,0.5-5.7,2.3-7.8C426.7,146.2,430.1,146.1,429.8,148.8z"/>
			</g>
		</g>
		<g>
			<g>
				<path class="st10" d="M389.1,151c0,0,4.1,0.6,6.3,2.9c2.2,2.3,4.2,6.2,3.4,10.3c-0.8,4.1-1.7,6.4-5.1,9.2
					c-4.7,4-8.7,2.9-8.7,2.9L389.1,151z"/>
			</g>
			<g>
				<path class="st11" d="M395.3,164.3c1-7-2.1-13-6.8-13.4c-4.7-0.4-9.3,4.9-10.3,11.9c-1,7,2.1,13,6.8,13.4
					C389.7,176.7,394.3,171.3,395.3,164.3z"/>
			</g>
			<g>
				<path class="st12" d="M393.7,164.1c0.9-6.4-1.6-11.9-5.6-12.3c-4-0.3-8,4.6-8.8,11c-0.9,6.4,1.6,11.9,5.6,12.3
					C388.9,175.5,392.8,170.5,393.7,164.1z"/>
			</g>
			<g>
				<path class="st13" d="M393.6,164.1c-0.6,4.4-2.7,8.1-5.2,9.9c-1.9-2.2-2.9-6.1-2.3-10.4c0.6-4.4,2.7-8.1,5.2-9.9
					C393.2,155.9,394.2,159.8,393.6,164.1z"/>
			</g>
			<g class="st14">
				<path class="st0" d="M382.2,171.6c0.4-0.5,1.2-0.8,2-1.1c1.7-0.7,3.2-1.9,4.2-3.2c0.3-0.4,0.7-0.9,1.3-0.9
					c0.6,0,0.9,0.6,0.9,1.1c0,0.7-0.4,1.4-0.9,2c-1.1,1.6-2.5,3.2-4.6,4C383.6,174,380.9,173.1,382.2,171.6z"/>
			</g>
		</g>
		<g>
			<g>
				<path class="st10" d="M388.7,110.1c0,0,4.7,2.1,6.6,5.9c1.9,3.8,3.1,9.8,0.9,15.2c-2.3,5.4-4.1,8.2-9,11.2
					c-6.9,4.1-11.4,1.3-11.4,1.3L388.7,110.1z"/>
			</g>
			<g>
				<path class="st11" d="M392,130.3c3.4-9.4,1.6-18.6-4-20.6c-5.6-2-12.8,4-16.2,13.3c-3.4,9.4-1.6,18.6,4,20.6
					C381.3,145.7,388.6,139.7,392,130.3z"/>
			</g>
			<g>
				<path class="st12" d="M390.2,129.5c3.1-8.6,1.8-17-2.9-18.7c-4.7-1.7-11.1,3.9-14.2,12.5c-3.1,8.6-1.8,17,2.9,18.7
					C380.7,143.8,387.1,138.1,390.2,129.5z"/>
			</g>
			<g>
				<path class="st13" d="M390,129.5c-2.1,5.9-5.8,10.4-9.4,12.1c-1.6-3.6-1.5-9.3,0.6-15.1c2.1-5.9,5.8-10.4,9.4-12.1
					C392.2,118.1,392.1,123.7,390,129.5z"/>
			</g>
			<g class="st14">
				<path class="st0" d="M373.9,136.4c0.7-0.6,1.8-0.7,2.7-1c2.3-0.5,4.4-1.6,6-3.1c0.5-0.5,1.1-1,1.8-0.8c0.7,0.2,0.9,1.1,0.8,1.7
					c-0.2,1-1,1.7-1.7,2.5c-1.9,1.8-4,3.7-6.7,4.1C374.8,140.1,371.9,138.1,373.9,136.4z"/>
			</g>
		</g>
		<g>
			<rect x="408.6" y="98.4" class="st4" width="1.8" height="22.1"/>
		</g>
		<g>
			<path class="st4" d="M411.3,98.8c0,1-0.8,1.8-1.8,1.8c-1,0-1.8-0.8-1.8-1.8c0-1,0.8-1.8,1.8-1.8
				C410.5,96.9,411.3,97.8,411.3,98.8z"/>
		</g>
	</g>
</g>
<g id="Designed_by_freepik">
</g>
</svg>
