<?xml version="1.0" encoding="utf-8"?>
<!-- Generator: Adobe Illustrator 22.0.0, SVG Export Plug-In . SVG Version: 6.00 Build 0)  -->
<svg version="1.1" id="Capa_1" xmlns="http://www.w3.org/2000/svg" xmlns:xlink="http://www.w3.org/1999/xlink" x="0px" y="0px"
	 viewBox="0 0 500 500" style="enable-background:new 0 0 500 500;" xml:space="preserve">
<style type="text/css">
	.st0{fill:#A7D0BF;}
	.st1{fill:#9AC0B0;}
	.st2{fill:#BCDFD1;}
	.st3{fill:#808181;}
	.st4{fill:#676767;}
	.st5{fill:#603914;}
	.st6{fill:#404040;}
	.st7{fill:#4E4D4D;}
	.st8{fill:#FDCE03;}
	.st9{fill:#518095;}
	.st10{fill:#E6BA04;}
	.st11{fill:#EB5B28;}
	.st12{fill:#B43033;}
	.st13{fill:#F2F2F2;}
	.st14{fill:#343434;}
	.st15{fill:#754D24;}
	.st16{fill:#A67D52;}
	.st17{fill:#6492A6;}
	.st18{fill:#C69C6C;}
	.st19{fill:#8C633A;}
	.st20{fill:#262626;}
	.st21{fill:#010202;}
</style>
<g>
	<path class="st0" d="M176.4,102.3v343.8H365V102.3H176.4z"/>
	<g>
		<rect x="317.2" y="236" class="st1" width="29.6" height="76.4"/>
		<rect x="317.2" y="121.7" class="st1" width="29.6" height="76.4"/>
		<rect x="317.2" y="350.4" class="st1" width="29.6" height="76.4"/>
	</g>
</g>
<polygon class="st2" points="139.9,158.9 139.9,129.9 109,129.9 109,139.5 65.4,139.5 65.4,158.9 49.7,158.9 49.7,446.1 206,446.1 
	206,158.9 "/>
<g>
	<g>
		<rect x="67.5" y="185.2" class="st0" width="24.5" height="24.5"/>
		<rect x="115.6" y="185.2" class="st0" width="24.5" height="24.5"/>
		<rect x="163.7" y="185.2" class="st0" width="24.5" height="24.5"/>
	</g>
	<g>
		<rect x="67.5" y="239.9" class="st0" width="24.5" height="24.5"/>
		<rect x="115.6" y="239.9" class="st0" width="24.5" height="24.5"/>
		<rect x="163.7" y="239.9" class="st0" width="24.5" height="24.5"/>
	</g>
	<g>
		<rect x="67.5" y="294.6" class="st0" width="24.5" height="24.5"/>
		<rect x="115.6" y="294.6" class="st0" width="24.5" height="24.5"/>
		<rect x="163.7" y="294.6" class="st0" width="24.5" height="24.5"/>
	</g>
	<g>
		<rect x="67.5" y="349.4" class="st0" width="24.5" height="24.5"/>
		<rect x="115.6" y="349.4" class="st0" width="24.5" height="24.5"/>
		<rect x="163.7" y="349.4" class="st0" width="24.5" height="24.5"/>
	</g>
</g>
<g>
	<rect x="455.3" y="413.3" class="st3" width="23.1" height="32.8"/>
	<path class="st4" d="M478.4,415.9h-23.1c-0.6,0-1-0.4-1-1v-0.6c0-0.6,0.4-1,1-1h23.1c0.6,0,1,0.4,1,1v0.6
		C479.4,415.4,479,415.9,478.4,415.9z"/>
	<path class="st4" d="M478.4,431h-23.1c-0.6,0-1-0.4-1-1v-0.6c0-0.6,0.4-1,1-1h23.1c0.6,0,1,0.4,1,1v0.6
		C479.4,430.6,479,431,478.4,431z"/>
	<path class="st4" d="M478.4,446.1h-23.1c-0.6,0-1-0.4-1-1v-0.6c0-0.6,0.4-1,1-1h23.1c0.6,0,1,0.4,1,1v0.6
		C479.4,445.7,479,446.1,478.4,446.1z"/>
</g>
<g>
	<path class="st5" d="M44.5,369.8l1.1-3.8c6.8-23.8,40.6-23.9,47.4,0l1.1,3.8H44.5z"/>
	<path class="st6" d="M35.3,436.4H116c1.1,0,2-0.9,2-2v-3.5H33.3v3.5C33.3,435.5,34.2,436.4,35.3,436.4z"/>
	<path class="st7" d="M129.3,425.2h50.2v-3.9c0-13.5-4-26.7-11.6-37.9l0,0c-4.3-6.4-11.4-10.2-19.1-10.2h-15c-2.5,0-4.6,2.1-4.6,4.6
		V425.2z"/>
	<path class="st3" d="M28.4,425.2h100.9V416H29.4c-0.6,0-1,0.4-1,1V425.2z"/>
	<path class="st8" d="M118.6,367.2l1.6-3.3c1.3-2.6,4-4.3,6.9-4.3h12.6c1.7,0,3.1,1.4,3.1,3.1v4c0,1.7-1.4,3.1-3.1,3.1h-6.2
		c-2.9,0-5.6,1.7-6.9,4.3l-15.9,32.6c-0.8,1.6-2.4,2.6-4.1,2.6H34.4c-0.8,0-1.4-0.6-1.5-1.4l-4.2-36.4c-0.1-0.9,0.6-1.7,1.5-1.7
		h84.3C116.2,369.8,117.8,368.8,118.6,367.2z"/>
	
		<rect x="39.8" y="409.3" transform="matrix(-1 -1.224647e-16 1.224647e-16 -1 141.3501 825.2815)" class="st4" width="61.8" height="6.7"/>
	<path class="st4" d="M26.4,431h155.4c1,0,1.9-0.8,1.9-1.9v-2c0-1-0.8-1.9-1.9-1.9H26.4c-1,0-1.9,0.8-1.9,1.9v2
		C24.6,430.1,25.4,431,26.4,431z"/>
	<g>
		<g>
			<path class="st9" d="M152.5,380.3h13c0.9,0.9,1.7,2,2.5,3.1v0c4.9,7.2,8.3,15.3,10.1,23.8h-25.5c-0.8,0-1.5-0.7-1.5-1.5v-23.8
				C151,381,151.7,380.3,152.5,380.3z"/>
		</g>
		<path class="st9" d="M135.8,407.2h8.9c0.6,0,1-0.4,1-1v-24.8c0-0.6-0.4-1-1-1h-8.9c-0.6,0-1,0.4-1,1v24.8
			C134.8,406.7,135.3,407.2,135.8,407.2z"/>
	</g>
	<polygon class="st10" points="93,404.2 100.3,404.2 114.1,375.5 106.9,375.5 	"/>
	<polygon class="st10" points="75.6,404.2 82.9,404.2 96.7,375.5 89.5,375.5 	"/>
	<polygon class="st10" points="58.2,404.2 65.5,404.2 79.3,375.5 72.1,375.5 	"/>
	<polygon class="st10" points="40.8,404.2 48.1,404.2 61.9,375.5 54.7,375.5 	"/>
	<polygon class="st10" points="36.7,391.7 44.5,375.5 37.3,375.5 35,380.1 	"/>
	<path class="st11" d="M176.8,422.2h3.3c0.6,0,1-0.4,1-1v-2.1c0-0.6-0.4-1-1-1h-3.3c-0.6,0-1,0.4-1,1v2.1
		C175.8,421.8,176.3,422.2,176.8,422.2z"/>
	<path class="st12" d="M28.2,422.7h3.3c0.6,0,1-0.4,1-1v-2.1c0-0.6-0.4-1-1-1h-3.3c-0.6,0-1,0.4-1,1v2.1
		C27.2,422.2,27.6,422.7,28.2,422.7z"/>
	<path class="st4" d="M139.4,414.1h-3.6c-0.5,0-0.9-0.4-0.9-0.9v-1c0-0.5,0.4-0.9,0.9-0.9h3.6c0.5,0,0.9,0.4,0.9,0.9v1
		C140.3,413.7,139.9,414.1,139.4,414.1z"/>
	<path class="st13" d="M169.8,420.2c0,1,0.8,1.8,1.8,1.8c1,0,1.8-0.8,1.8-1.8c0-1-0.8-1.8-1.8-1.8
		C170.6,418.4,169.8,419.2,169.8,420.2z"/>
	<g>
		<g>
			<circle class="st14" cx="82.6" cy="432.7" r="14.8"/>
		</g>
		<circle class="st7" cx="82.6" cy="432.7" r="9.1"/>
	</g>
	<g>
		<g>
			<circle class="st14" cx="152.6" cy="432.7" r="14.8"/>
		</g>
		<circle class="st7" cx="152.6" cy="432.7" r="9.1"/>
	</g>
	<g>
		<g>
			<circle class="st14" cx="50.4" cy="432.7" r="14.8"/>
		</g>
		<circle class="st7" cx="50.4" cy="432.7" r="9.1"/>
	</g>
	<path class="st15" d="M114.9,369.8L114.9,369.8c-13.7-22.9-46.9-22.9-60.6,0l0,0H114.9z"/>
	<path class="st16" d="M80.3,369.8L80.3,369.8c-13-14.2-35.3-14.2-48.3,0v0H80.3z"/>
	<polygon class="st17" points="155.8,407.2 153.8,407.2 163,380.3 165,380.3 	"/>
	<path class="st17" d="M162,407.2h-4.5l9.1-25.5c0,0,1.7,2.2,2.7,4L162,407.2z"/>
	<g>
		<path class="st6" d="M169.4,431c-1-8.4-8.2-15.1-16.8-15.1c-8.6,0-15.8,6.7-16.8,15.1H169.4z"/>
	</g>
	<path class="st18" d="M49.3,364.4c0,0.6-0.5,1.1-1.1,1.1S47,365,47,364.4c0-0.6,0.5-1.1,1.1-1.1S49.3,363.7,49.3,364.4z"/>
	<circle class="st18" cx="52.9" cy="362.1" r="1.5"/>
	<circle class="st18" cx="51.5" cy="366.1" r="0.7"/>
	<circle class="st18" cx="57.9" cy="366.5" r="1.9"/>
	<path class="st18" d="M40.9,367.5c0,0.5-0.4,0.8-0.8,0.8c-0.5,0-0.8-0.4-0.8-0.8c0-0.5,0.4-0.8,0.8-0.8
		C40.5,366.7,40.9,367,40.9,367.5z"/>
	<path class="st18" d="M42.9,364.7c0,0.3-0.2,0.5-0.5,0.5c-0.3,0-0.5-0.2-0.5-0.5c0-0.3,0.2-0.5,0.5-0.5
		C42.6,364.3,42.9,364.5,42.9,364.7z"/>
	<circle class="st18" cx="58.2" cy="363" r="0.5"/>
	<path class="st19" d="M94.9,359.4c0,1.1-0.9,1.9-1.9,1.9c-1.1,0-1.9-0.9-1.9-1.9c0-1.1,0.9-1.9,1.9-1.9
		C94,357.5,94.9,358.4,94.9,359.4z"/>
	<circle class="st19" cx="92" cy="365.1" r="1.1"/>
	<circle class="st19" cx="96.9" cy="362.8" r="1.5"/>
	<path class="st19" d="M82.2,357.5c0,1.5-1.2,2.7-2.7,2.7c-1.5,0-2.7-1.2-2.7-2.7c0-1.5,1.2-2.7,2.7-2.7
		C81,354.8,82.2,356,82.2,357.5z"/>
	<path class="st19" d="M84.2,362.7c0,0.6-0.5,1-1,1c-0.6,0-1-0.5-1-1c0-0.6,0.5-1,1-1C83.7,361.7,84.2,362.1,84.2,362.7z"/>
	<path class="st19" d="M80,363.2c0,1-0.8,1.7-1.7,1.7c-1,0-1.7-0.8-1.7-1.7c0-1,0.8-1.7,1.7-1.7C79.3,361.5,80,362.2,80,363.2z"/>
	<circle class="st19" cx="98.8" cy="358.9" r="0.7"/>
	<circle class="st15" cx="59" cy="356.3" r="1.5"/>
	<path class="st15" d="M60.2,352.8c0,0.4-0.3,0.7-0.7,0.7s-0.7-0.3-0.7-0.7s0.3-0.7,0.7-0.7S60.2,352.4,60.2,352.8z"/>
	<circle class="st15" cx="63.5" cy="353.8" r="2.3"/>
</g>
<g>
	<g>
		<g>
			<path class="st14" d="M227.5,259c2.9,0,5.6-1,7.9-2.8c2.9-2.4,4.6-5.9,4.6-9.7c0-1.2-0.9-2.1-2.1-2.1c-1.2,0-2.1,0.9-2.1,2.1
				c0,2.5-1.1,4.8-3,6.4c-2,1.6-4.4,2.2-7,1.7c-3.1-0.6-5.6-3.2-6.3-6.3c-0.8-3.7,1-7.4,4.3-9.1c3.6-1.8,5.8-5.4,5.8-9.2l-0.5-57.7
				h-3.4l-0.3,57.7c0,2.2-1.4,4.3-3.6,5.4c-5.1,2.6-7.7,8.1-6.5,13.7c1,4.7,4.8,8.5,9.5,9.5C225.8,258.9,226.6,259,227.5,259z"/>
		</g>
		<g>
			<path class="st14" d="M381.8,236C381.8,236,381.8,236,381.8,236c1,0,1.7-0.8,1.7-1.8l-1.1-22.7c0-0.5-0.3-1-0.7-1.3
				c-0.4-0.3-0.9-0.4-1.4-0.3l-18.8,4.1v-19c0-0.5-0.2-1-0.6-1.3c-0.4-0.3-0.9-0.4-1.4-0.4l-19.4,3.7l-0.7-19.6
				c0-0.5-0.2-0.9-0.6-1.2c-0.4-0.3-0.9-0.4-1.3-0.4l-20,3.1v-18.8c0-0.5-0.2-1-0.6-1.3c-0.4-0.3-0.9-0.5-1.4-0.4l-19.5,3.3v-18.6
				c0-0.9-0.7-1.7-1.7-1.7c-0.9,0-1.7,0.8-1.7,1.7v20.6c0,0.5,0.2,1,0.6,1.3c0.4,0.3,0.9,0.5,1.4,0.4l19.5-3.3V181
				c0,0.5,0.2,1,0.6,1.3c0.4,0.3,0.9,0.5,1.3,0.4l20.1-3.1l0.7,19.7c0,0.5,0.2,0.9,0.6,1.3c0.4,0.3,0.9,0.4,1.4,0.3l19.3-3.7v19.1
				c0,0.5,0.2,1,0.6,1.3c0.4,0.3,0.9,0.4,1.4,0.3l18.9-4.2l1,20.7C380.1,235.3,380.9,236,381.8,236z"/>
		</g>
		<g>
			<path class="st14" d="M419.7,388.9c0.7,0,1.5-0.4,1.9-1.1c0.5-1,0.2-2.3-0.9-2.8l-23.9-12.8l20.2-20.2c0.5-0.5,0.7-1.1,0.6-1.8
				c-0.1-0.6-0.5-1.2-1-1.5l-22-12.5l17.9-18.6c0.4-0.4,0.6-1,0.6-1.6c0-0.6-0.3-1.1-0.8-1.5L391.8,299l15.6-19.3
				c0.7-0.9,0.6-2.2-0.3-2.9l-17.9-15l12.7-21c0.6-1,0.3-2.3-0.7-2.9c-1-0.6-2.3-0.3-2.9,0.7l-13.7,22.5c-0.5,0.9-0.3,2,0.4,2.7
				l17.7,14.9l-15.7,19.3c-0.4,0.4-0.5,1-0.5,1.6c0.1,0.6,0.4,1.1,0.8,1.4l20.2,15.3l-18.1,18.8c-0.4,0.5-0.7,1.1-0.6,1.8
				c0.1,0.6,0.5,1.2,1,1.5l22,12.5l-20.2,20.3c-0.5,0.5-0.7,1.1-0.6,1.8c0.1,0.7,0.5,1.2,1.1,1.5l26.4,14.1
				C419,388.8,419.4,388.9,419.7,388.9z"/>
		</g>
		<g>
			
				<rect x="223.5" y="133.1" transform="matrix(0.8699 -0.4932 0.4932 0.8699 -33.2181 142.8524)" class="st14" width="61.4" height="2.5"/>
		</g>
		<g>
			<rect x="226.3" y="150.7" class="st7" width="2.5" height="7.7"/>
		</g>
		<g>
			<polygon class="st3" points="284.9,154.4 277.9,135.7 228.6,157.7 233.2,170.2 			"/>
		</g>
		<g>
			<rect x="279.6" y="119.3" class="st7" width="2.5" height="17.3"/>
		</g>
		<g>
			
				<rect x="350.8" y="84.7" transform="matrix(0.6174 -0.7867 0.7867 0.6174 -3.0893 343.985)" class="st14" width="2.5" height="181"/>
		</g>
		<g>
			
				<rect x="428.9" y="230.8" transform="matrix(0.9962 -8.659758e-02 8.659758e-02 0.9962 -25.3609 38.4247)" class="st14" width="2.5" height="161.5"/>
		</g>
		<g>
			<rect x="402.3" y="229" class="st7" width="18.3" height="4.2"/>
		</g>
		<g>
			
				<rect x="407.7" y="236.2" transform="matrix(0.9911 -0.1334 0.1334 0.9911 -38.2643 57.5672)" class="st7" width="5.9" height="156.5"/>
		</g>
		<g>
			
				<rect x="386.8" y="236.7" transform="matrix(0.9981 -6.164714e-02 6.164714e-02 0.9981 -18.6417 24.6214)" class="st7" width="5.9" height="155.4"/>
		</g>
		<g>
			
				<rect x="337.4" y="113.7" transform="matrix(0.6218 -0.7831 0.7831 0.6218 -11.7306 333.5364)" class="st7" width="4.2" height="130.4"/>
		</g>
		<g>
			
				<rect x="328.7" y="129" transform="matrix(0.6251 -0.7806 0.7806 0.6251 -26.5429 330.5117)" class="st7" width="4.2" height="127.8"/>
		</g>
		<g>
			<circle class="st4" cx="391.7" cy="231.1" r="15"/>
		</g>
		<g>
			
				<ellipse transform="matrix(0.9794 -0.2022 0.2022 0.9794 -38.6232 83.9621)" class="st7" cx="391.7" cy="231.1" rx="6.8" ry="6.8"/>
		</g>
		<g>
			<circle class="st4" cx="280.9" cy="144.9" r="12.7"/>
		</g>
		<g>
			<circle class="st7" cx="280.9" cy="144.9" r="5.8"/>
		</g>
		<g>
			<circle class="st4" cx="227.5" cy="165.6" r="9.1"/>
		</g>
		<g>
			<path class="st7" d="M223.4,165.6c0,2.3,1.9,4.1,4.1,4.1c2.3,0,4.1-1.9,4.1-4.1c0-2.3-1.9-4.1-4.1-4.1
				C225.2,161.5,223.4,163.3,223.4,165.6z"/>
		</g>
		<g>
			<path class="st4" d="M276.3,119.3c0,2.6,2.1,4.6,4.6,4.6s4.6-2.1,4.6-4.6c0-2.6-2.1-4.6-4.6-4.6S276.3,116.7,276.3,119.3z"/>
		</g>
		<g>
			<circle class="st4" cx="227.5" cy="149.5" r="3.2"/>
		</g>
		<g>
			<circle class="st4" cx="423.2" cy="231.1" r="8.6"/>
		</g>
		<g>
			<circle class="st7" cx="423.2" cy="231.1" r="5.9"/>
		</g>
		<g>
			<path class="st12" d="M228.2,222.2l11.1-11.1c0.4-0.4,0.4-1,0-1.4l-11.1-11.1c-0.4-0.4-1-0.4-1.4,0l-11.1,11.1
				c-0.4,0.4-0.4,1,0,1.4l11.1,11.1C227.2,222.6,227.8,222.6,228.2,222.2z"/>
		</g>
		<g>
			<path class="st13" d="M228.2,216.6l5.6-5.6c0.4-0.4,0.4-1,0-1.4l-5.6-5.6c-0.4-0.4-1-0.4-1.4,0l-5.6,5.6c-0.4,0.4-0.4,1,0,1.4
				l5.6,5.6C227.2,217,227.8,217,228.2,216.6z"/>
		</g>
	</g>
	<g>
		<path class="st9" d="M378.1,359.2h-30.5c-2.6,0-4.8,2.1-5,4.7l-3,46h45.1l-1.5-45.9C383,361.3,380.8,359.2,378.1,359.2z"/>
		<rect x="350.8" y="415.5" class="st14" width="40.2" height="6.8"/>
		<g>
			<g>
				<path class="st14" d="M423.4,444.9H316.5c-6.6,0-11.9-5.3-11.9-11.9l0,0c0-6.6,5.3-11.9,11.9-11.9h106.9
					c6.6,0,11.9,5.3,11.9,11.9l0,0C435.3,439.5,430,444.9,423.4,444.9z"/>
				<path class="st20" d="M423.4,446.1H316.5c-7.3,0-13.2-5.9-13.2-13.2c0-7.3,5.9-13.2,13.2-13.2h106.9c7.3,0,13.2,5.9,13.2,13.2
					C436.6,440.2,430.7,446.1,423.4,446.1z M316.5,422.2c-5.9,0-10.7,4.8-10.7,10.7c0,5.9,4.8,10.7,10.7,10.7h106.9
					c5.9,0,10.7-4.8,10.7-10.7c0-5.9-4.8-10.7-10.7-10.7H316.5z"/>
			</g>
			<g>
				<path class="st3" d="M334.5,441.3h-4.8c-0.6,0-1-0.4-1-1v-4.2h6.8v4.2C335.5,440.9,335,441.3,334.5,441.3z"/>
				<path class="st3" d="M345.3,441.3h-4.8c-0.6,0-1-0.4-1-1v-4.2h6.8v4.2C346.3,440.9,345.8,441.3,345.3,441.3z"/>
				<path class="st3" d="M356.1,441.3h-4.8c-0.6,0-1-0.4-1-1v-4.2h6.8v4.2C357.1,440.9,356.7,441.3,356.1,441.3z"/>
				<path class="st3" d="M366.9,441.3h-4.8c-0.6,0-1-0.4-1-1v-4.2h6.8v4.2C367.9,440.9,367.5,441.3,366.9,441.3z"/>
				<path class="st3" d="M377.8,441.3H373c-0.6,0-1-0.4-1-1v-4.2h6.8v4.2C378.8,440.9,378.3,441.3,377.8,441.3z"/>
				<path class="st3" d="M388.6,441.3h-4.8c-0.6,0-1-0.4-1-1v-4.2h6.8v4.2C389.6,440.9,389.2,441.3,388.6,441.3z"/>
				<path class="st3" d="M399.4,441.3h-4.8c-0.6,0-1-0.4-1-1v-4.2h6.8v4.2C400.4,440.9,400,441.3,399.4,441.3z"/>
				<path class="st3" d="M410.3,441.3h-4.8c-0.6,0-1-0.4-1-1v-4.2h6.8v4.2C411.3,440.9,410.8,441.3,410.3,441.3z"/>
			</g>
			<g>
				<path class="st3" d="M356.1,422.3h-4.8c-0.6,0-1,0.4-1,1v5.9h6.8v-5.9C357.1,422.7,356.7,422.3,356.1,422.3z"/>
				<path class="st3" d="M388.6,422.3h-4.8c-0.6,0-1,0.4-1,1v5.9h6.8v-5.9C389.6,422.7,389.2,422.3,388.6,422.3z"/>
			</g>
			<rect x="322.6" y="428.5" class="st4" width="94.7" height="8.9"/>
			<g>
				<g>
					<circle class="st7" cx="422" cy="432.9" r="7.5"/>
					<path class="st4" d="M426.5,432.9c0,2.5-2,4.4-4.4,4.4c-2.5,0-4.4-2-4.4-4.4s2-4.4,4.4-4.4
						C424.5,428.5,426.5,430.5,426.5,432.9z"/>
				</g>
				<g>
					<circle class="st7" cx="317.9" cy="432.9" r="7.5"/>
					<path class="st4" d="M322.3,432.9c0,2.5-2,4.4-4.4,4.4c-2.5,0-4.4-2-4.4-4.4s2-4.4,4.4-4.4
						C320.3,428.5,322.3,430.5,322.3,432.9z"/>
				</g>
			</g>
		</g>
		<g>
			<polygon class="st7" points="384.6,409.9 383.8,385.5 340.5,396.1 339.6,409.9 			"/>
		</g>
		<rect x="371.2" y="353.3" class="st14" width="5.2" height="8.4"/>
		<rect x="363.4" y="351.8" class="st14" width="4.3" height="8.4"/>
		<path class="st7" d="M376.6,348.7H371c-0.6,0-1,0.4-1,1v3.6h7.7v-3.6C377.6,349.2,377.2,348.7,376.6,348.7z"/>
		<path class="st8" d="M445.4,411.2h-78v-23.5c0-1.7,1.3-3,3-3h72c1.7,0,3,1.3,3,3V411.2z"/>
		<rect x="405.7" y="388.7" class="st7" width="29.6" height="14.8"/>
		<g>
			<path class="st7" d="M378.1,359.2h-30.5c-2.6,0-4.8,2.1-5,4.7l0,0.4h40.5l0-0.3C383,361.3,380.8,359.2,378.1,359.2z"/>
		</g>
		<polygon class="st17" points="342.9,395.5 351.7,364.3 354.3,364.3 345.8,394.8 		"/>
		<polygon class="st17" points="355.8,392.3 349.4,393.9 357.7,364.3 363.7,364.3 		"/>
		<g>
			<g>
				<path class="st3" d="M415.8,395.2c0-0.3,0-0.6-0.1-0.9l1.4-0.7l-0.8-1.5l-1.4,0.7c-0.4-0.4-0.9-0.8-1.5-0.9l0.1-1.6l-1.7-0.1
					l-0.1,1.6c-0.6,0.1-1.2,0.4-1.6,0.8l-1.3-0.8l-0.9,1.4l1.3,0.8c-0.1,0.3-0.2,0.6-0.2,0.9c0,0.3,0,0.6,0.1,0.9l-1.4,0.7l0.8,1.5
					l1.4-0.7c0.4,0.4,0.9,0.8,1.5,1l-0.1,1.6l1.7,0.1l0.1-1.6c0.6-0.1,1.2-0.4,1.6-0.8l1.3,0.8l0.9-1.4l-1.3-0.8
					C415.7,395.8,415.8,395.5,415.8,395.2z M412.4,396.9c-1,0-1.8-0.9-1.8-1.9c0-1,0.9-1.8,1.9-1.8c1,0,1.8,0.9,1.8,1.9
					C414.3,396.2,413.4,396.9,412.4,396.9z"/>
			</g>
			<g>
				<path class="st3" d="M422.2,395.7c-0.2-0.2-0.4-0.3-0.7-0.4l0.2-1.3l-1.4-0.2l-0.2,1.3c-0.5,0-1,0.2-1.4,0.5l-1-0.8l-0.9,1.1
					l1,0.8c-0.2,0.5-0.3,1-0.3,1.5l-1.2,0.5l0.5,1.3l1.2-0.5c0.1,0.2,0.3,0.4,0.5,0.6c0.2,0.2,0.4,0.3,0.7,0.4l-0.2,1.3l1.4,0.2
					l0.2-1.3c0.5,0,1-0.2,1.4-0.5l1,0.8l0.9-1.1l-1-0.8c0.2-0.5,0.3-1,0.3-1.5l1.2-0.5l-0.5-1.3l-1.2,0.5
					C422.6,396,422.4,395.8,422.2,395.7z M421.6,398.9c-0.5,0.7-1.5,0.8-2.2,0.2c-0.7-0.5-0.8-1.5-0.2-2.2c0.5-0.7,1.5-0.8,2.2-0.2
					C422.1,397.2,422.2,398.2,421.6,398.9z"/>
			</g>
			<path class="st4" d="M421.5,397.9c0,0.6-0.5,1.1-1.1,1.1c-0.6,0-1.1-0.5-1.1-1.1c0-0.6,0.5-1.1,1.1-1.1
				C421.1,396.8,421.5,397.3,421.5,397.9z"/>
			<path class="st4" d="M413.8,395.1c0,0.7-0.6,1.3-1.3,1.3c-0.7,0-1.3-0.6-1.3-1.3c0-0.7,0.6-1.3,1.3-1.3
				C413.2,393.7,413.8,394.3,413.8,395.1z"/>
		</g>
		<path class="st10" d="M443.4,417.4H341.6c-1.1,0-2-0.9-2-2v-5.5h105.8v5.5C445.4,416.5,444.5,417.4,443.4,417.4z"/>
		<path class="st12" d="M342.6,415.3h-2.4c-1.1,0-2-0.9-2-2l0,0c0-1.1,0.9-2,2-2h2.4c0.5,0,1,0.4,1,1v2
			C343.6,414.9,343.2,415.3,342.6,415.3z"/>
		<path class="st11" d="M442.3,415.3h2.4c1.1,0,2-0.9,2-2l0,0c0-1.1-0.9-2-2-2h-2.4c-0.5,0-1,0.4-1,1v2
			C441.3,414.9,441.8,415.3,442.3,415.3z"/>
	</g>
	<g>
		<g>
			<path class="st4" d="M202.3,294.4l-2-1.3l24.2-28.1c0.7-1.1,1.9-1.8,3.3-1.8c1.3,0,2.6,0.7,3.3,1.8l24.1,28.1l-2,1.3L229,266.3
				c-0.3-0.4-0.8-0.7-1.3-0.7s-1,0.3-1.3,0.7L202.3,294.4z"/>
		</g>
		<path class="st10" d="M244.3,333h-33.2c-1.4,0-2.6-1-2.9-2.4l-7.2-34.2h53.4l-7.2,34.2C247,332,245.7,333,244.3,333z"/>
		<g>
			<rect x="222.6" y="301.6" class="st8" width="10.3" height="27.4"/>
			<polygon class="st8" points="243.7,329 238.4,329 238.4,301.6 248.6,301.6 			"/>
			<polygon class="st8" points="211.8,329 217.1,329 217.1,301.6 206.9,301.6 			"/>
		</g>
		<path class="st8" d="M254.9,292.9h-54.2c-1.6,0-2.8,1.3-2.8,2.8l0,0c0,1.6,1.3,2.8,2.8,2.8h54.2c1.6,0,2.8-1.3,2.8-2.8l0,0
			C257.7,294.2,256.4,292.9,254.9,292.9z"/>
	</g>
	<path class="st10" d="M228.4,272h-1.2c-1.7,0-3-1.3-3-3v-14.5c0-1.7,1.3-3,3-3h1.2c1.7,0,3,1.3,3,3V269
		C231.4,270.6,230,272,228.4,272z"/>
</g>
<g>
	<path class="st5" d="M267.9,446.1l-1.2-4.3c-7.8-27.4-46.6-27.4-54.4,0l-1.2,4.3H267.9z"/>
	<path class="st15" d="M187.1,446.1L187.1,446.1c15.8-26.3,53.8-26.3,69.6,0l0,0H187.1z"/>
	<path class="st16" d="M226.7,446.1L226.7,446.1c14.9-16.3,40.6-16.3,55.4,0v0H226.7z"/>
	<circle class="st18" cx="263.7" cy="439.9" r="1.3"/>
	<path class="st18" d="M247.1,438.7c0,0.9,0.8,1.7,1.7,1.7s1.7-0.8,1.7-1.7c0-0.9-0.8-1.7-1.7-1.7S247.1,437.8,247.1,438.7z"/>
	<path class="st18" d="M267,443.5c0,0.5,0.4,0.9,0.9,0.9c0.5,0,0.9-0.4,0.9-0.9s-0.4-0.9-0.9-0.9C267.4,442.7,267,443.1,267,443.5z"
		/>
	<path class="st18" d="M250.3,442.4c0,1.2,1,2.1,2.1,2.1c1.2,0,2.1-1,2.1-2.1c0-1.2-1-2.1-2.1-2.1
		C251.3,440.3,250.3,441.2,250.3,442.4z"/>
	<path class="st18" d="M272,443.5c0,0.5,0.4,1,1,1c0.5,0,1-0.4,1-1s-0.4-1-1-1C272.4,442.6,272,443,272,443.5z"/>
	<path class="st18" d="M269.7,440.4c0,0.3,0.3,0.6,0.6,0.6c0.3,0,0.6-0.3,0.6-0.6c0-0.3-0.3-0.6-0.6-0.6
		C270,439.8,269.7,440.1,269.7,440.4z"/>
	<path class="st18" d="M251.6,438.4c0,0.3,0.3,0.6,0.6,0.6c0.3,0,0.6-0.3,0.6-0.6s-0.3-0.6-0.6-0.6
		C251.8,437.8,251.6,438,251.6,438.4z"/>
	<path class="st19" d="M210,434.3c0,1.2,1,2.2,2.2,2.2c1.2,0,2.2-1,2.2-2.2c0-1.2-1-2.2-2.2-2.2C211,432,210,433,210,434.3z"/>
	<circle class="st19" cx="213.4" cy="440.8" r="1.3"/>
	<circle class="st19" cx="207.7" cy="438.1" r="1.7"/>
	<path class="st19" d="M224.6,432c0,1.7,1.4,3.1,3.1,3.1c1.7,0,3.1-1.4,3.1-3.1c0-1.7-1.4-3.1-3.1-3.1
		C225.9,428.9,224.6,430.3,224.6,432z"/>
	<path class="st19" d="M222.3,438c0,0.7,0.5,1.2,1.2,1.2c0.7,0,1.2-0.5,1.2-1.2s-0.5-1.2-1.2-1.2C222.9,436.8,222.3,437.4,222.3,438
		z"/>
	<path class="st19" d="M227.1,438.6c0,1.1,0.9,2,2,2s2-0.9,2-2s-0.9-2-2-2S227.1,437.5,227.1,438.6z"/>
	<circle class="st19" cx="205.6" cy="433.7" r="0.9"/>
	<circle class="st15" cx="247.4" cy="430.7" r="1.7"/>
	<circle class="st15" cx="247.9" cy="426" r="0.8"/>
	<path class="st15" d="M240.2,426.4c0,1.4,1.2,2.6,2.6,2.6c1.4,0,2.6-1.2,2.6-2.6s-1.2-2.6-2.6-2.6
		C241.3,423.8,240.2,425,240.2,426.4z"/>
</g>
<g>
	<g>
		<rect x="256.4" y="407.9" class="st7" width="3.7" height="38.3"/>
		<rect x="288.3" y="407.9" class="st7" width="3.7" height="38.3"/>
	</g>
	<rect x="252.9" y="411.9" class="st13" width="42.6" height="23.6"/>
	<g>
		<polygon class="st12" points="295.5,435.5 288.3,435.5 281.7,411.9 288.9,411.9 		"/>
		<polygon class="st12" points="281.1,435.5 273.9,435.5 267.3,411.9 274.5,411.9 		"/>
		<polygon class="st12" points="266.7,435.5 259.5,435.5 252.9,411.9 260.1,411.9 		"/>
	</g>
	<path class="st10" d="M258.3,403.8L258.3,403.8c-1.5,0-2.7,1.2-2.7,2.7v1.3h5.5v-1.3C261,405.1,259.8,403.8,258.3,403.8z"/>
	<path class="st10" d="M290.1,403.8L290.1,403.8c-1.5,0-2.7,1.2-2.7,2.7v1.3h5.5v-1.3C292.9,405.1,291.6,403.8,290.1,403.8z"/>
</g>
<rect x="24.6" y="446.5" class="st21" width="454.8" height="9.8"/>
</svg>
