<?xml version="1.0" encoding="utf-8"?>
<!-- Generator: Adobe Illustrator 22.0.0, SVG Export Plug-In . SVG Version: 6.00 Build 0)  -->
<svg version="1.1" id="Capa_1" xmlns="http://www.w3.org/2000/svg" xmlns:xlink="http://www.w3.org/1999/xlink" x="0px" y="0px"
	 viewBox="0 0 500 500" style="enable-background:new 0 0 500 500;" xml:space="preserve">
<style type="text/css">
	.st0{fill:#5D9030;}
	.st1{fill:#46782F;}
	.st2{fill:#6BA03C;}
	.st3{fill:#54873B;}
	.st4{fill:#77AF43;}
	.st5{fill:#5D9641;}
	.st6{fill:#8CAF3E;}
	.st7{fill:#7D972A;}
	.st8{fill:#5D9631;}
	.st9{fill:#57C2E0;}
	.st10{fill:#9ED7EE;}
	.st11{fill:#89D1ED;}
	.st12{fill:#C9E8F6;}
	.st13{fill:#EBF6FB;}
	.st14{fill:#8BB643;}
	.st15{fill:#7FA52F;}
	.st16{fill:#77AF2C;}
	.st17{fill:#63412B;}
</style>
<g>
	<g>
		<g>
			<path class="st0" d="M168,132.1c-4.7-0.1-10,1.1-13.9-3.1c-3.6-3.8-2.8-9.6,0.5-13.3c-2-1.7-2.2-4.1-2.1-6.5
				c0.3-1.7,0.7-3.4,1.5-4.7c0.6-0.7,2.2-1.6,2.4-2.3c0.4-1.3-1.3-4.5-1.4-6.2c0.1-2.8,1.6-5.1,3.4-7.1c-3.6-3.8-0.7-9.3,2.5-12.5
				c-1.4-2.2-0.5-6.6-0.1-9c0.5-2.7,1.7-10.1,4.2-11.7c3.8-2.3,5.9,6.7,6.3,9.1c0.5,2.1,0.6,4.4,1.1,6.4c0.5,2.3,1.3,3,2.7,4.5
				c2.2,2.4,2.5,5.3,1.7,8.3c-0.1,0.8-0.8,2-0.7,2.8c0.3,1.1,2.4,2.5,3,3.6c2.2,3.5,1.8,7.8-1.3,10.6c3,0.8,5.6,2.9,6.7,5.7
				c1.6,3.7,0.1,6.4-2.1,9.1c4.4,3.5,4.5,9.1,0.2,12.7c-3.2,2.7-8.4,3.1-12.3,3.3L168,132.1z"/>
		</g>
		<path class="st1" d="M161,119.3c-0.1-0.3-0.2-0.7-0.2-1c-0.1-0.4,0-0.7,0-1.1c0-0.4,0.1-0.7,0.3-1.1c0.2-0.4,0.4-0.7,0.8-0.9
			c0.3-0.2,0.7-0.4,1.1-0.5c0.4-0.1,0.8-0.1,1.2-0.1c0.4,0,0.8,0.1,1.1,0.2c0.4,0.1,0.7,0.3,1,0.4l-0.9,0.6c0-0.5-0.1-0.9,0-1.4
			c0-0.5,0.1-0.9,0.3-1.4c0.3-0.9,0.8-1.7,1.5-2.3c0.4-0.3,0.8-0.5,1.2-0.7c0.2-0.1,0.4-0.2,0.7-0.2c0.2,0,0.4-0.1,0.7-0.1
			c0.2,0,0.5,0,0.7,0.1c0.2,0,0.4,0.1,0.6,0.2c0.4,0.1,0.8,0.3,1.2,0.5c-0.4-0.1-0.8-0.2-1.2-0.2c-0.4,0-0.8,0-1.2,0.1
			c-0.2,0-0.4,0.1-0.5,0.1c-0.2,0-0.3,0.2-0.5,0.2c-0.3,0.2-0.6,0.4-0.9,0.6c-0.2,0.3-0.5,0.5-0.7,0.9c-0.1,0.2-0.2,0.3-0.2,0.5
			c-0.1,0.2-0.2,0.3-0.2,0.5c-0.1,0.4-0.2,0.7-0.2,1.1c0,0.4,0,0.7,0,1.1v0c0,0.3-0.2,0.6-0.6,0.7c-0.1,0-0.2,0-0.3-0.1
			c-0.3-0.1-0.5-0.3-0.8-0.4c-0.3-0.1-0.6-0.2-0.8-0.2c-0.3-0.1-0.6-0.1-0.8,0c-0.3,0-0.5,0.1-0.8,0.2c-0.2,0.1-0.5,0.3-0.6,0.6
			c-0.2,0.2-0.3,0.5-0.4,0.8c-0.1,0.3-0.2,0.6-0.2,0.9C161.1,118.6,161.1,118.9,161,119.3z"/>
	</g>
	<g>
		<path class="st2" d="M238.3,147.1c-0.7-2.1-8.3-2-11.7-12.9c-2.9-9.3,4.2-14,7.6-10.9c-3.5-3.2-1.1-9.1,2.1-8.8l0,0
			c-3.5-2.7-4.1-13.2,3.5-14.3c-2.9-6-0.8-13.8,3.8-9c-2.1-5.5-3.1-6.8-1.5-12.2c0.8-3,3.7-5.5,6.5-3.7c-6.3-7.2-0.9-15.3,4-12.1
			c-0.2-5.1,2.3-8.6,4.3-7.6c3,1.8,3.3,7.3,3.5,11.1c2.7-0.7,4.3,0.2,6.7,3c3,3.5,1.4,8.5,1.4,8.5c2.7-0.4,6.3,7.3,6.6,10.9
			c0.4,5.1,0.3,6.5-0.9,9.8c7.8,2.5,7.4,13.1,5.2,18.2c5.8-0.2,12.1,10.9,8.4,16.5c5.7,2.8,7.4,16,3,17.9L238.3,147.1z"/>
		<path class="st3" d="M242.5,120.2l0-0.6c0-0.2,0.1-0.4,0.1-0.6c0.1-0.2,0.1-0.4,0.3-0.6c0.1-0.2,0.2-0.4,0.4-0.5
			c0.1-0.2,0.3-0.3,0.5-0.4c0.2-0.1,0.4-0.2,0.6-0.3c0.4-0.2,0.8-0.3,1.3-0.4c0.4-0.1,0.9-0.2,1.3-0.2c0.4,0,0.9,0,1.3,0
			c0.4,0,0.9,0.1,1.3,0.2c0.4,0.1,0.9,0.3,1.3,0.4l-0.7,0.6c-0.2-0.6-0.3-1.1-0.2-1.8c0-0.3,0-0.6,0.1-1c0.1-0.3,0.3-0.6,0.5-0.9
			c0.2-0.3,0.6-0.5,0.9-0.6c0.3-0.1,0.7-0.2,1-0.2c0.6,0,1.2,0.1,1.8,0.2l-0.7,0.4c0.1-0.5,0.2-1,0.4-1.4c0.1-0.2,0.2-0.4,0.3-0.7
			c0.1-0.2,0.3-0.4,0.4-0.6c0.1-0.2,0.3-0.4,0.4-0.6c0.1-0.2,0.3-0.4,0.5-0.5c0.4-0.3,0.7-0.6,1.2-0.9c0.2-0.1,0.4-0.2,0.7-0.3
			c0.2-0.1,0.5-0.1,0.7-0.2c0.5-0.1,1-0.1,1.4-0.1c0.2,0,0.5,0.1,0.7,0.2c0.2,0.1,0.4,0.2,0.7,0.3c0.2,0.1,0.4,0.2,0.6,0.4l0.5,0.5
			l-0.6-0.4l-0.6-0.3c-0.2-0.1-0.4-0.1-0.6-0.2c-0.2,0-0.4,0-0.6,0c-0.4,0-0.8,0.1-1.2,0.2c-0.2,0.1-0.4,0.1-0.6,0.3
			c-0.2,0.1-0.4,0.2-0.5,0.3c-0.4,0.2-0.7,0.5-0.9,0.8c-0.1,0.2-0.3,0.3-0.4,0.5c-0.1,0.2-0.3,0.3-0.4,0.5c-0.1,0.2-0.2,0.4-0.3,0.6
			c-0.1,0.2-0.2,0.4-0.2,0.6c-0.1,0.4-0.2,0.8-0.3,1.2v0c-0.1,0.3-0.4,0.5-0.7,0.4l0,0c-0.5-0.1-1-0.2-1.4-0.2
			c-0.5,0-0.8,0.2-1.1,0.4c-0.1,0.1-0.2,0.3-0.3,0.5c-0.1,0.2-0.1,0.4-0.1,0.6c0,0.5,0.1,1,0.2,1.5l0,0c0.1,0.3-0.1,0.6-0.4,0.6
			c-0.1,0-0.2,0-0.3,0c-0.4-0.2-0.7-0.3-1.1-0.4c-0.4-0.1-0.8-0.2-1.2-0.3c-0.4-0.1-0.8-0.1-1.2-0.1c-0.4,0-0.8,0-1.2,0.1
			c-0.4,0.1-0.8,0.1-1.2,0.3c-0.4,0.1-0.7,0.3-1,0.5c-0.2,0.1-0.3,0.3-0.4,0.4c-0.2,0.1-0.2,0.3-0.3,0.5c-0.1,0.2-0.1,0.4-0.2,0.6
			L242.5,120.2z"/>
		<path class="st3" d="M254.5,87.7c0.3-0.2,0.6-0.4,1-0.5c0.4-0.1,0.8-0.2,1.1-0.2c0.4,0,0.8,0,1.2,0.1c0.2,0.1,0.4,0.1,0.6,0.2
			c0.2,0.1,0.4,0.2,0.5,0.3c0.3,0.2,0.6,0.6,0.8,0.9c0.2,0.4,0.4,0.8,0.5,1.2c0.1,0.4,0.1,0.8,0.1,1.2c0,0.4-0.1,0.8-0.2,1.2l-1-0.4
			c0.2-0.3,0.4-0.7,0.8-1c0.2-0.1,0.3-0.3,0.5-0.4c0.2-0.1,0.3-0.3,0.6-0.4c0.4-0.2,0.9-0.3,1.4-0.3c0.3,0,0.5,0.1,0.7,0.2
			c0.2,0.1,0.4,0.2,0.6,0.4c0.3,0.3,0.6,0.6,0.8,1c0.2,0.4,0.4,0.8,0.5,1.1c0.1,0.4,0.2,0.8,0.2,1.2c0,0.4,0,0.8,0,1.2l-0.5-0.5
			c0.6,0,1.2,0.2,1.7,0.5c0.5,0.3,1,0.8,1.2,1.4c0.2,0.6,0.2,1.2,0.1,1.7c-0.1,0.6-0.3,1.1-0.5,1.6c0.1-0.5,0.2-1.1,0.2-1.6
			c0-0.5-0.1-1-0.3-1.5c-0.2-0.4-0.6-0.8-1-0.9c-0.4-0.2-0.9-0.2-1.4-0.2c-0.2,0-0.5-0.2-0.5-0.4v0v-0.1c0-0.3,0-0.7,0-1
			c0-0.3-0.1-0.7-0.2-1c-0.1-0.3-0.2-0.6-0.4-0.9c-0.2-0.3-0.4-0.5-0.6-0.7c-0.1-0.1-0.2-0.1-0.3-0.2c-0.1,0-0.2-0.1-0.4-0.1
			c-0.2,0-0.5,0-0.8,0.1c-0.1,0-0.3,0.2-0.4,0.2c-0.1,0.1-0.2,0.2-0.4,0.3c-0.2,0.2-0.4,0.5-0.7,0.8l0,0c-0.2,0.2-0.5,0.2-0.8,0
			c-0.1-0.1-0.2-0.3-0.2-0.5c0.1-0.3,0.2-0.7,0.2-1c0-0.3,0-0.7,0-1c0-0.3-0.1-0.6-0.3-0.9c-0.1-0.3-0.3-0.6-0.6-0.8
			c-0.1-0.1-0.3-0.2-0.4-0.3c-0.1-0.1-0.3-0.2-0.4-0.2c-0.3-0.1-0.6-0.2-1-0.3c-0.4,0-0.7,0-1.1,0C255.2,87.5,254.8,87.6,254.5,87.7
			z"/>
		<path class="st3" d="M270.4,126.5c0,0,0-0.1,0-0.3c0-0.2,0.1-0.5,0.3-0.8c0.2-0.3,0.4-0.7,0.7-1c0.2-0.2,0.3-0.3,0.6-0.5
			c0.2-0.1,0.4-0.3,0.7-0.4c0.2-0.1,0.5-0.2,0.7-0.2c0.2-0.1,0.5-0.1,0.7-0.1c0.5,0,0.9,0.1,1.2,0.3c0.3,0.2,0.6,0.3,0.7,0.5
			c0.2,0.1,0.2,0.2,0.2,0.2s-0.1,0-0.3,0c-0.2,0-0.5,0-0.8-0.1c-0.2,0-0.3,0-0.5,0c-0.2,0-0.4,0-0.5,0.1c-0.2,0-0.4,0.1-0.5,0.1
			c-0.2,0-0.4,0.1-0.5,0.2c-0.7,0.3-1.4,0.8-1.9,1.2c-0.2,0.2-0.4,0.4-0.6,0.5C270.5,126.5,270.4,126.5,270.4,126.5z"/>
	</g>
	<g>
		<path class="st2" d="M380.5,294.6c-6.6-0.1-14.3,1.6-19.8-4.4c-5.1-5.4-4-13.6,0.8-18.9c-2.8-2.4-3.1-5.8-2.9-9.2
			c0.4-2.4,0.9-4.8,2.1-6.7c0.8-1,3.2-2.3,3.4-3.3c0.6-1.8-1.9-6.4-1.9-8.8c0.1-4,2.3-7.3,4.9-10.1c-5.1-5.4-1-13.3,3.6-17.7
			c-2.1-3.2-0.7-9.4-0.2-12.9c0.8-3.8,2.4-14.3,6-16.6c5.4-3.3,8.4,9.5,9,12.9c0.6,3,0.9,6.2,1.5,9c0.6,3.2,1.9,4.2,3.9,6.4
			c3.1,3.4,3.5,7.6,2.4,11.8c-0.2,1.2-1.2,2.8-1,4c0.4,1.6,3.5,3.6,4.3,5.2c3.1,5,2.6,11-1.8,15.1c4.2,1.2,7.9,4.1,9.6,8.1
			c2.3,5.2,0.1,9-3,12.9c6.3,4.9,6.4,13,0.2,18.1c-4.6,3.9-12,4.4-17.4,4.7L380.5,294.6z"/>
		<path class="st3" d="M391.6,285.6c0.3,0.7,0.9,1.1,1.5,1.6c0.6,0.4,1.3,0.8,2,1c0.4,0.1,0.8,0.2,1.2,0.1c0.2,0,0.4-0.1,0.7-0.2
			c0.2-0.1,0.5-0.4,0.6-0.6c0.2-0.5,0-1-0.1-1.4c-0.1-0.4-0.3-0.7-0.5-1l-0.7,0.7l0.6,0.3c0.2,0.1,0.4,0.1,0.6,0.2
			c0.2,0.1,0.4,0.1,0.6,0.1c0.2,0,0.4,0,0.6-0.1c0.2,0,0.4-0.1,0.6-0.2c0.2-0.1,0.4-0.2,0.5-0.4c0.2-0.1,0.3-0.3,0.4-0.5
			c0.1-0.2,0.2-0.4,0.3-0.6c0.1-0.2,0.2-0.4,0.2-0.6c0-0.2,0.1-0.4,0-0.6c0-0.2,0-0.4-0.1-0.6c0-0.2-0.1-0.4-0.2-0.6
			c-0.1-0.2-0.2-0.4-0.3-0.5c-0.1-0.2-0.2-0.3-0.4-0.4c-0.1-0.1-0.3-0.3-0.4-0.4l-0.5-0.3l0.4,0.4c0.1,0.1,0.2,0.3,0.3,0.4
			c0.1,0.1,0.2,0.3,0.3,0.5c0.1,0.1,0.1,0.3,0.2,0.5c0.1,0.2,0.1,0.3,0.1,0.5c0,0.2,0,0.3,0,0.5c0,0.2,0,0.3-0.1,0.5
			c0,0.2-0.1,0.3-0.2,0.4c-0.1,0.3-0.3,0.5-0.6,0.7c-0.1,0.1-0.2,0.2-0.4,0.2c-0.1,0-0.3,0.1-0.4,0.1c-0.1,0-0.3,0.1-0.4,0
			c-0.1,0-0.3,0-0.4-0.1c-0.1-0.1-0.3-0.1-0.4-0.1c-0.1-0.1-0.3-0.1-0.4-0.2l0,0c-0.3-0.1-0.6,0-0.7,0.3c-0.1,0.2,0,0.3,0,0.5
			c0.2,0.3,0.3,0.6,0.4,0.8c0.1,0.3,0.1,0.6,0.1,0.7c0,0.1,0,0.1-0.1,0.2c-0.1,0.1-0.2,0.1-0.3,0.1c-0.3,0-0.6,0-0.9,0
			c-0.6-0.1-1.3-0.3-1.9-0.6C392.7,286.4,392.1,286.1,391.6,285.6z"/>
		<path class="st3" d="M390.2,256.6c0,0,0.1,0,0.3,0c0.2,0,0.4,0,0.7,0c0.3,0,0.6,0,0.9,0.1c0.2,0,0.3,0.1,0.5,0.1
			c0.2,0,0.3,0.1,0.5,0.2c0.1,0.1,0.3,0.1,0.4,0.2c0.1,0.1,0.2,0.2,0.2,0.3c0.1,0.1,0.1,0.2,0.1,0.4c0,0.1,0,0.3,0,0.4
			c0,0.1,0,0.3,0,0.4c0,0.1,0,0.2-0.1,0.3c0,0.2,0,0.3,0,0.3s0.1-0.1,0.2-0.2c0.1-0.1,0.3-0.3,0.5-0.6c0.1-0.1,0.1-0.3,0.2-0.5
			c0-0.2,0.1-0.5,0-0.7c-0.1-0.3-0.2-0.5-0.4-0.7c-0.2-0.2-0.4-0.4-0.6-0.5c-0.5-0.2-0.9-0.3-1.4-0.3c-0.4,0-0.8,0.1-1.1,0.2
			c-0.3,0.1-0.6,0.3-0.7,0.4C390.3,256.5,390.2,256.6,390.2,256.6z"/>
		<path class="st3" d="M376.1,239.9c-0.1,0.2-0.2,0.5-0.3,0.7c-0.1,0.3-0.1,0.5-0.1,0.8c0,0.3,0,0.5,0.1,0.8
			c0.1,0.3,0.1,0.5,0.3,0.8c0.1,0.1,0.1,0.3,0.3,0.4c0.1,0.1,0.2,0.2,0.4,0.3c0.2,0.1,0.4,0.1,0.6,0.1c0.2-0.1,0.4-0.2,0.5-0.3
			c0.2-0.3,0.4-0.5,0.5-0.8c0.1-0.3,0.2-0.5,0.2-0.8l-0.9,0.1c0.2,0.3,0.3,0.5,0.5,0.7c0.1,0.1,0.2,0.2,0.3,0.3
			c0.1,0.1,0.3,0.2,0.4,0.3c0.3,0.2,0.6,0.3,0.9,0.3c0.3,0.1,0.6,0.1,1,0c0.3-0.1,0.6-0.2,0.9-0.4c0.1-0.1,0.3-0.2,0.4-0.3
			c0.1-0.1,0.2-0.2,0.3-0.4c0.2-0.3,0.3-0.6,0.3-0.9c0-0.2,0.1-0.3,0-0.5l0-0.5l-0.6,0.5l0.5,0.1c0.2,0,0.3,0,0.5,0
			c0.2,0,0.4,0,0.5-0.1c0.2,0,0.3-0.1,0.5-0.2c0.2-0.1,0.3-0.2,0.5-0.3c0.1-0.1,0.3-0.2,0.4-0.3c0.1-0.1,0.2-0.3,0.3-0.4
			c0.1-0.1,0.2-0.3,0.2-0.5c0.1-0.2,0.1-0.4,0.1-0.5c0-0.2,0-0.4-0.1-0.5c-0.1-0.3-0.3-0.7-0.5-0.9c-0.1-0.1-0.2-0.2-0.4-0.3
			c-0.1-0.1-0.3-0.2-0.4-0.2c-0.3-0.1-0.6-0.1-0.9-0.2c0.3,0.1,0.6,0.2,0.8,0.4c0.1,0.1,0.2,0.2,0.3,0.3c0.1,0.1,0.2,0.2,0.3,0.3
			c0.1,0.1,0.1,0.2,0.2,0.4c0.1,0.1,0.1,0.2,0.1,0.4c0,0.1,0,0.3,0,0.4c0,0.1-0.1,0.2-0.1,0.4c-0.1,0.1-0.1,0.2-0.2,0.3
			c-0.1,0.1-0.2,0.2-0.3,0.3c-0.1,0.1-0.2,0.2-0.3,0.2c-0.1,0.1-0.2,0.1-0.3,0.2c-0.1,0-0.2,0.1-0.4,0.1c-0.1,0-0.2,0-0.4,0
			c-0.1,0-0.3,0-0.4,0l-0.4-0.1c-0.3,0-0.5,0.1-0.6,0.4c0,0,0,0.1,0,0.1v0l0,0.3c0,0.1,0,0.2,0,0.3c0,0.2-0.1,0.4-0.2,0.5
			c0,0.1-0.1,0.1-0.2,0.2c-0.1,0.1-0.1,0.1-0.2,0.2c-0.2,0.1-0.3,0.2-0.5,0.2c-0.2,0-0.4,0-0.6,0c-0.2,0-0.4-0.1-0.6-0.2
			c-0.1-0.1-0.2-0.1-0.3-0.2c-0.1-0.1-0.2-0.1-0.2-0.2c-0.2-0.1-0.3-0.3-0.4-0.5l0,0c-0.2-0.2-0.4-0.3-0.7-0.1
			c-0.1,0.1-0.2,0.2-0.2,0.3c0,0.2-0.1,0.5-0.2,0.7c-0.1,0.2-0.1,0.4-0.2,0.6c0,0.1-0.1,0.1-0.1,0.1c0,0,0,0-0.1,0c0,0,0,0-0.1,0
			c-0.1,0-0.1-0.1-0.2-0.1c-0.1-0.1-0.1-0.2-0.2-0.2c-0.1-0.2-0.2-0.4-0.3-0.6c-0.1-0.2-0.1-0.5-0.2-0.7c0-0.2-0.1-0.5,0-0.7
			c0-0.1,0-0.3,0-0.4L376.1,239.9z"/>
		<path class="st3" d="M378.8,222.1c0,0,0.2,0.3,0.6,0.7c0.2,0.2,0.5,0.4,0.8,0.5c0.3,0.1,0.7,0.2,1.1,0.2c0.2,0,0.4-0.1,0.6-0.1
			c0.2-0.1,0.4-0.2,0.5-0.3c0.3-0.2,0.5-0.6,0.6-0.8c0.1-0.3,0.1-0.5,0.1-0.7c0-0.2,0-0.3,0-0.3s-0.1,0.1-0.2,0.2
			c-0.1,0.1-0.3,0.3-0.4,0.4c-0.4,0.3-0.8,0.5-1.3,0.5c-0.5,0-1.1-0.1-1.6-0.2c-0.3-0.1-0.5-0.1-0.6-0.1
			C378.9,222.1,378.8,222.1,378.8,222.1z"/>
		<path class="st3" d="M373.5,205.6l-0.1,0.4c-0.1,0.1-0.1,0.3-0.1,0.4c0,0.3,0,0.6,0,0.9c0,0.3,0.1,0.6,0.2,0.9
			c0.1,0.3,0.2,0.6,0.4,0.8c0.1,0.1,0.2,0.3,0.3,0.4c0.1,0.1,0.3,0.2,0.5,0.3c0.2,0.1,0.5,0.1,0.7,0c0.1,0,0.2-0.1,0.3-0.1
			c0.1-0.1,0.2-0.1,0.2-0.2c0.2-0.1,0.2-0.3,0.3-0.5c0.1-0.2,0.1-0.3,0.2-0.5c0.1-0.3,0.1-0.6,0.2-0.9l-0.9,0.2
			c0.2,0.3,0.4,0.6,0.7,0.8c0.2,0.1,0.3,0.2,0.5,0.3c0.2,0.1,0.5,0.1,0.8,0.1c0.3-0.1,0.5-0.2,0.6-0.4c0.1-0.2,0.2-0.3,0.3-0.5
			c0.2-0.3,0.2-0.7,0.3-1l-0.5,0.3l0.6,0c0.2,0,0.4-0.1,0.6-0.1c0.2,0,0.4-0.2,0.6-0.3c0.2-0.1,0.3-0.3,0.4-0.5
			c0.1-0.2,0.2-0.4,0.1-0.6c0-0.2,0-0.4-0.1-0.6c-0.1-0.2-0.1-0.4-0.2-0.5l-0.3-0.5l0.1,0.5c0.1,0.2,0,0.3,0.1,0.5
			c0,0.2,0,0.3,0,0.5c0,0.2-0.1,0.3-0.2,0.4c0,0.1-0.1,0.1-0.2,0.1c0,0-0.1,0.1-0.2,0.1c-0.1,0-0.2,0.1-0.4,0.1
			c-0.2,0-0.3,0.1-0.4,0l-0.5,0c-0.2,0-0.4,0.1-0.5,0.3l0,0c-0.1,0.3-0.2,0.6-0.3,0.8c-0.1,0.2-0.3,0.4-0.3,0.4c0,0-0.2,0-0.4-0.2
			c-0.2-0.2-0.4-0.4-0.5-0.6c-0.2-0.2-0.5-0.3-0.7-0.1c-0.1,0.1-0.2,0.2-0.2,0.3l0,0c0,0.2-0.1,0.5-0.1,0.7c0,0.1-0.1,0.2-0.1,0.3
			c0,0.1-0.1,0.2-0.1,0.2c0,0,0,0.1-0.1,0.1c0,0,0,0-0.1,0c0,0-0.1,0-0.2,0c-0.1,0-0.2,0-0.3-0.1c-0.1,0-0.2-0.1-0.3-0.2
			c-0.3-0.3-0.6-0.8-0.8-1.3c-0.1-0.3-0.2-0.5-0.2-0.8C373.5,206.2,373.5,205.9,373.5,205.6z"/>
		<path class="st3" d="M369.4,268.8c-0.1,0.3-0.2,0.6-0.2,0.9c0,0.3,0,0.6,0,0.9c0.1,0.6,0.3,1.2,0.7,1.8c0.1,0.1,0.2,0.3,0.3,0.4
			c0.1,0.1,0.3,0.2,0.4,0.3c0.3,0.2,0.8,0.3,1.2,0.2c0.2,0,0.4-0.1,0.5-0.2c0.2-0.1,0.3-0.2,0.4-0.3c0.3-0.2,0.5-0.5,0.7-0.8
			l-0.9-0.4c-0.1,0.6-0.1,1.1,0.1,1.7c0.1,0.3,0.2,0.6,0.4,0.8c0.2,0.3,0.5,0.5,0.9,0.6c0.2,0,0.4,0,0.5,0c0.2,0,0.3-0.1,0.5-0.1
			c0.3-0.1,0.5-0.3,0.7-0.5c0.1-0.1,0.2-0.2,0.2-0.3c0.1-0.1,0.1-0.2,0.2-0.4c0.1-0.2,0.2-0.5,0.3-0.7c-0.2,0.2-0.3,0.4-0.5,0.6
			c-0.1,0.1-0.2,0.2-0.3,0.3c-0.1,0.1-0.2,0.2-0.3,0.2c-0.1,0.1-0.2,0.1-0.3,0.2c-0.1,0-0.2,0.1-0.3,0.1c-0.1,0-0.2,0-0.3,0
			c-0.1,0-0.2,0-0.2,0c-0.1-0.1-0.3-0.2-0.4-0.3c-0.1-0.1-0.2-0.3-0.2-0.5c-0.1-0.4-0.1-0.9,0-1.3c0-0.3-0.2-0.5-0.4-0.6
			c-0.2,0-0.3,0-0.5,0.2l0,0.1c-0.2,0.2-0.3,0.4-0.5,0.6c-0.1,0.1-0.2,0.2-0.3,0.2c-0.1,0.1-0.2,0.1-0.3,0.1c-0.1,0-0.2,0-0.3,0
			c-0.1,0-0.2,0-0.3-0.1c-0.1-0.1-0.2-0.1-0.3-0.2c-0.1-0.1-0.2-0.1-0.3-0.2c-0.2-0.2-0.3-0.4-0.5-0.6c-0.2-0.2-0.3-0.5-0.4-0.7
			C369.6,269.9,369.4,269.4,369.4,268.8z"/>
	</g>
	<g>
		<path class="st4" d="M80.9,313.6c6.6-0.3,14.3,1.2,19.6-4.9c5-5.5,3.6-13.7-1.3-18.9c2.8-2.4,2.9-5.9,2.7-9.3
			c-0.4-2.4-1.1-4.8-2.3-6.6c-0.8-1-3.2-2.2-3.5-3.2c-0.6-1.8,1.7-6.5,1.7-8.9c-0.3-4-2.5-7.2-5.2-10c5-5.5,0.6-13.3-4.1-17.6
			c2-3.2,0.5-9.5-0.2-12.9c-0.9-3.8-2.8-14.2-6.4-16.4c-5.5-3.1-8.1,9.8-8.7,13.2c-0.6,3-0.7,6.2-1.3,9.1c-0.6,3.2-1.8,4.2-3.7,6.5
			c-3,3.5-3.3,7.7-2.1,11.9c0.2,1.2,1.2,2.8,1.1,4c-0.4,1.6-3.4,3.7-4.2,5.3c-2.9,5.1-2.3,11.1,2.2,15c-4.2,1.3-7.8,4.3-9.3,8.4
			c-2.1,5.3,0.1,9,3.4,12.8c-6.2,5.1-6.1,13.1,0.2,18.1c4.7,3.8,12.1,4.1,17.5,4.2L80.9,313.6z"/>
		<path class="st5" d="M69.6,304.9c-0.3,0.7-0.9,1.2-1.4,1.6c-0.6,0.4-1.2,0.8-2,1c-0.4,0.1-0.7,0.2-1.2,0.2c-0.2,0-0.4-0.1-0.7-0.2
			c-0.2-0.1-0.5-0.3-0.6-0.6c-0.2-0.5-0.1-1,0-1.4c0.1-0.4,0.3-0.7,0.5-1.1l0.7,0.7l-0.6,0.3c-0.2,0.1-0.4,0.1-0.6,0.2
			c-0.2,0.1-0.4,0.1-0.6,0.1c-0.2,0-0.4,0-0.7,0c-0.2,0-0.4-0.1-0.6-0.2c-0.2-0.1-0.4-0.2-0.6-0.3c-0.2-0.1-0.3-0.3-0.5-0.5
			c-0.1-0.2-0.2-0.4-0.3-0.6c-0.1-0.2-0.2-0.4-0.2-0.6c0-0.2-0.1-0.4,0-0.6c0-0.2,0-0.4,0.1-0.6c0-0.2,0.1-0.4,0.2-0.6
			c0.1-0.2,0.2-0.3,0.3-0.5c0.1-0.2,0.2-0.3,0.4-0.4c0.1-0.1,0.3-0.3,0.4-0.4l0.5-0.3l-0.4,0.4c-0.1,0.1-0.2,0.3-0.3,0.4
			c-0.1,0.1-0.2,0.3-0.2,0.5c-0.1,0.2-0.1,0.3-0.2,0.5c-0.1,0.2-0.1,0.3-0.1,0.5c0,0.2,0,0.3,0,0.5c0,0.2,0.1,0.3,0.1,0.5
			c0,0.2,0.1,0.3,0.2,0.4c0.1,0.3,0.4,0.5,0.6,0.7c0.1,0.1,0.2,0.2,0.4,0.2c0.1,0,0.3,0.1,0.4,0.1c0.1,0,0.3,0,0.4,0
			c0.1,0,0.3,0,0.4-0.1c0.1-0.1,0.3-0.1,0.4-0.2c0.1-0.1,0.3-0.1,0.4-0.2l0,0c0.3-0.1,0.6,0,0.7,0.3c0.1,0.2,0.1,0.3,0,0.5
			c-0.2,0.3-0.3,0.6-0.4,0.9c-0.1,0.3-0.1,0.6-0.1,0.7c0,0.1,0,0.1,0.1,0.1c0.1,0.1,0.2,0.1,0.3,0.1c0.3,0,0.6,0,0.9,0
			c0.6-0.1,1.3-0.3,1.9-0.6C68.5,305.8,69.1,305.4,69.6,304.9z"/>
		<path class="st5" d="M70.2,275.8c0,0-0.1,0-0.3,0c-0.2,0-0.4,0-0.7,0c-0.3,0-0.6,0.1-0.9,0.1c-0.2,0-0.3,0.1-0.5,0.1
			c-0.2,0-0.3,0.1-0.4,0.2c-0.1,0.1-0.3,0.1-0.4,0.2c-0.1,0.1-0.2,0.2-0.2,0.3c-0.1,0.1-0.1,0.2-0.1,0.4c0,0.1,0,0.3,0,0.4
			c0,0.1,0,0.3,0,0.4c0,0.1,0.1,0.2,0.1,0.3c0,0.2,0.1,0.3,0.1,0.3s-0.1-0.1-0.2-0.2c-0.2-0.1-0.3-0.3-0.5-0.6
			c-0.1-0.1-0.1-0.3-0.2-0.5c0-0.2-0.1-0.5,0-0.7c0.1-0.3,0.2-0.5,0.4-0.7c0.2-0.2,0.4-0.4,0.6-0.5c0.5-0.2,0.9-0.3,1.3-0.3
			c0.4,0,0.8,0.1,1.1,0.2c0.3,0.1,0.6,0.3,0.7,0.4C70.1,275.8,70.2,275.8,70.2,275.8z"/>
		<path class="st5" d="M83.9,258.8c0.1,0.2,0.2,0.5,0.3,0.7c0.1,0.3,0.1,0.5,0.1,0.8c0,0.3,0,0.5,0,0.8c0,0.3-0.1,0.5-0.2,0.8
			c-0.1,0.1-0.1,0.3-0.2,0.4c-0.1,0.1-0.2,0.2-0.4,0.3c-0.2,0.1-0.4,0.1-0.6,0.1c-0.2,0-0.4-0.2-0.5-0.3c-0.2-0.3-0.4-0.5-0.5-0.8
			c-0.1-0.3-0.2-0.5-0.3-0.8l0.9,0.1c-0.1,0.3-0.3,0.5-0.5,0.7c-0.1,0.1-0.2,0.2-0.3,0.3c-0.1,0.1-0.2,0.2-0.4,0.3
			c-0.3,0.2-0.6,0.3-0.9,0.3c-0.3,0.1-0.6,0.1-1,0c-0.3,0-0.6-0.2-0.9-0.3c-0.1-0.1-0.3-0.2-0.4-0.3c-0.1-0.1-0.2-0.2-0.3-0.4
			c-0.2-0.3-0.3-0.6-0.4-0.9c0-0.2-0.1-0.3-0.1-0.5l0-0.5l0.6,0.5l-0.5,0.1c-0.2,0-0.3,0-0.5,0c-0.2,0-0.3,0-0.5-0.1
			c-0.2,0-0.3-0.1-0.5-0.2c-0.2-0.1-0.3-0.1-0.5-0.3c-0.2-0.1-0.3-0.2-0.4-0.3c-0.1-0.1-0.2-0.3-0.3-0.4c-0.1-0.1-0.2-0.3-0.2-0.5
			c-0.1-0.2-0.1-0.4-0.1-0.5c0-0.2,0-0.4,0-0.5c0.1-0.3,0.2-0.7,0.5-0.9c0.1-0.1,0.2-0.2,0.4-0.3c0.1-0.1,0.3-0.2,0.4-0.2
			c0.3-0.1,0.6-0.2,0.9-0.2c-0.3,0.1-0.6,0.2-0.8,0.4c-0.1,0.1-0.2,0.2-0.3,0.3c-0.1,0.1-0.2,0.2-0.3,0.3c-0.1,0.1-0.1,0.2-0.2,0.4
			c-0.1,0.1,0,0.3-0.1,0.4c0,0.1,0,0.2,0,0.4c0,0.1,0.1,0.2,0.1,0.4c0.1,0.1,0.1,0.2,0.2,0.3c0.1,0.1,0.2,0.2,0.3,0.3
			c0.1,0.1,0.2,0.2,0.3,0.2c0.1,0.1,0.2,0.1,0.3,0.1c0.1,0,0.2,0.1,0.4,0.1c0.1,0,0.2,0,0.4,0c0.1,0,0.3,0,0.4,0l0.4-0.1
			c0.3-0.1,0.5,0.1,0.6,0.4c0,0,0,0.1,0,0.1v0l0,0.3c0,0.1,0,0.2,0,0.3c0,0.2,0.1,0.4,0.2,0.5c0,0.1,0.1,0.1,0.2,0.2
			c0.1,0.1,0.1,0.1,0.2,0.2c0.2,0.1,0.3,0.2,0.5,0.2c0.2,0,0.4,0,0.6,0c0.2,0,0.4-0.1,0.6-0.2c0.1-0.1,0.2-0.1,0.3-0.2
			c0.1-0.1,0.2-0.1,0.2-0.2c0.2-0.1,0.3-0.3,0.4-0.5l0,0c0.1-0.2,0.4-0.3,0.7-0.1c0.1,0.1,0.2,0.2,0.2,0.3c0.1,0.2,0.1,0.5,0.2,0.7
			c0.1,0.2,0.2,0.4,0.3,0.6c0,0.1,0.1,0.1,0.1,0.1c0,0,0,0,0.1,0c0,0,0,0,0.1,0c0.1,0,0.1-0.1,0.2-0.1c0.1-0.1,0.1-0.2,0.2-0.2
			c0.1-0.2,0.2-0.4,0.3-0.6c0.1-0.2,0.1-0.5,0.2-0.7c0-0.2,0.1-0.5,0-0.7c0-0.1,0-0.3,0-0.4L83.9,258.8z"/>
		<path class="st5" d="M80.7,241.1c0,0-0.2,0.3-0.6,0.7c-0.2,0.2-0.5,0.4-0.8,0.5c-0.3,0.1-0.7,0.2-1.1,0.2c-0.2,0-0.4,0-0.6-0.1
			c-0.2-0.1-0.4-0.2-0.5-0.3c-0.3-0.2-0.5-0.6-0.6-0.8c-0.1-0.3-0.1-0.5-0.1-0.7c0-0.2,0-0.3,0-0.3s0.1,0.1,0.2,0.2
			c0.1,0.1,0.3,0.3,0.4,0.4c0.4,0.3,0.8,0.5,1.3,0.5c0.5,0,1.1-0.1,1.6-0.2c0.3-0.1,0.5-0.1,0.6-0.1
			C80.6,241.1,80.7,241.1,80.7,241.1z"/>
		<path class="st5" d="M85.6,224.4l0.2,0.4c0.1,0.1,0.1,0.3,0.1,0.4c0.1,0.3,0.1,0.6,0,0.9c0,0.3-0.1,0.6-0.2,0.9
			c-0.1,0.3-0.2,0.6-0.4,0.8c-0.1,0.1-0.2,0.3-0.3,0.4c-0.1,0.1-0.3,0.2-0.5,0.3c-0.2,0.1-0.4,0.1-0.7,0.1c-0.1,0-0.2-0.1-0.3-0.1
			c-0.1-0.1-0.2-0.1-0.2-0.2c-0.2-0.1-0.2-0.3-0.3-0.4c-0.1-0.2-0.1-0.3-0.2-0.5c-0.1-0.3-0.1-0.6-0.2-0.9l0.9,0.2
			c-0.2,0.3-0.4,0.6-0.7,0.8c-0.1,0.1-0.3,0.3-0.5,0.3c-0.2,0.1-0.5,0.1-0.8,0.1c-0.3-0.1-0.5-0.2-0.7-0.4c-0.1-0.2-0.3-0.3-0.3-0.5
			c-0.2-0.3-0.3-0.7-0.3-1l0.5,0.3l-0.6,0c-0.2,0-0.4-0.1-0.6-0.1c-0.2,0-0.4-0.2-0.6-0.3c-0.2-0.1-0.3-0.3-0.5-0.5
			c-0.1-0.2-0.2-0.4-0.1-0.6c0-0.2,0-0.4,0.1-0.6c0.1-0.2,0.1-0.4,0.2-0.5l0.3-0.5l-0.1,0.5c-0.1,0.2,0,0.3-0.1,0.5
			c0,0.2,0,0.3,0,0.5c0,0.2,0.1,0.3,0.2,0.4c0,0.1,0.1,0.1,0.2,0.1c0,0,0.1,0.1,0.2,0.1c0.1,0,0.2,0.1,0.4,0.1c0.2,0,0.3,0.1,0.5,0
			l0.5-0.1c0.2,0,0.4,0.1,0.5,0.3l0,0c0.1,0.3,0.2,0.5,0.3,0.8c0.1,0.2,0.3,0.4,0.4,0.4c0,0,0.2,0,0.4-0.2c0.2-0.2,0.3-0.4,0.5-0.6
			c0.2-0.2,0.5-0.3,0.7-0.1c0.1,0.1,0.2,0.2,0.2,0.3l0,0c0.1,0.2,0.1,0.5,0.2,0.7c0,0.1,0.1,0.2,0.1,0.3c0.1,0.1,0.1,0.2,0.1,0.2
			c0,0,0,0.1,0.1,0.1c0,0,0,0,0.1,0c0,0,0.1,0,0.2,0c0.1,0,0.2,0,0.2-0.1c0.1,0,0.2-0.1,0.3-0.2c0.3-0.4,0.6-0.8,0.7-1.3
			c0.1-0.3,0.1-0.5,0.2-0.8C85.6,225,85.6,224.7,85.6,224.4z"/>
		<path class="st5" d="M91.3,287.5c0.1,0.3,0.2,0.6,0.2,0.9c0,0.3,0,0.6,0,0.9c-0.1,0.6-0.3,1.2-0.7,1.8c-0.1,0.1-0.2,0.3-0.3,0.4
			c-0.1,0.1-0.3,0.2-0.4,0.3c-0.3,0.2-0.8,0.3-1.2,0.2c-0.2,0-0.4-0.1-0.6-0.2c-0.2-0.1-0.3-0.2-0.5-0.3c-0.3-0.2-0.5-0.5-0.7-0.8
			l0.9-0.4c0.1,0.5,0.1,1.1,0,1.7c-0.1,0.3-0.2,0.6-0.4,0.9c-0.2,0.3-0.5,0.5-0.8,0.6c-0.2,0-0.4,0.1-0.5,0c-0.2,0-0.3-0.1-0.5-0.1
			c-0.3-0.1-0.5-0.3-0.7-0.5c-0.1-0.1-0.2-0.2-0.2-0.3c-0.1-0.1-0.1-0.2-0.2-0.3c-0.1-0.2-0.2-0.5-0.3-0.7c0.2,0.2,0.3,0.4,0.5,0.6
			c0.1,0.1,0.2,0.2,0.3,0.3c0.1,0.1,0.2,0.2,0.3,0.2c0.1,0.1,0.2,0.1,0.3,0.2c0.1,0,0.2,0.1,0.3,0.1c0.1,0,0.2,0,0.3,0
			c0.1,0,0.2,0,0.2-0.1c0.1-0.1,0.3-0.2,0.3-0.3c0.1-0.1,0.1-0.3,0.2-0.5c0.1-0.4,0-0.9,0-1.3c0-0.3,0.1-0.5,0.4-0.6
			c0.2,0,0.4,0,0.5,0.2l0,0.1c0.2,0.2,0.3,0.4,0.5,0.6c0.1,0.1,0.2,0.2,0.3,0.2c0.1,0.1,0.2,0.1,0.3,0.1c0.1,0,0.2,0,0.3,0
			c0.1,0,0.2,0,0.3-0.1c0.1-0.1,0.2-0.1,0.3-0.2c0.1-0.1,0.2-0.1,0.3-0.2c0.2-0.2,0.3-0.4,0.4-0.6c0.1-0.2,0.2-0.5,0.3-0.8
			C91.2,288.7,91.3,288.1,91.3,287.5z"/>
	</g>
	<path class="st6" d="M218.2,176.8c5.3-5.4,8.1-12.5,9-20.4c0.6-6.5,1.2-12.1,6.5-16.6c4.4-4.4,10.4-3.8,15.3-7.3
		c5.8-3.6,7.8-9.7,16.1-11.1c12.9-1.6,22.5,5.7,29.6,15.5c11,13.7,7.2,28.8,9.5,45.3c2.8,17.4,22.6,28.4,36.7,35
		c4.4,2.1,4.4,12.3,8.4,25.5c5.1,16.4,10.8,28.1,27.9,34.6c10.9,4.9,17.5,7.4,23.3,18.6c3.2,7.7,11,22.1,5.3,29.3
		c-5.6,6.8-18.2,6.6-26,7.5c-12,1.1-24,1.8-36,2.9c-23.5,2.7-47.9-3.3-71.1-3.9c-17.6-0.4-41.9,4.7-50.5-16.2
		c-3.2-7.7-2.8-16.5-1.8-24.4c1.4-15.8,2.9-31.7,2.9-47.9L218.2,176.8z"/>
	<path class="st7" d="M279.9,186.8c0,0,1.2,0.7,2.8,1.9c0.4,0.3,0.8,0.6,1.3,1c0.4,0.4,1,0.7,1.4,1c1,0.7,2,1.5,3,2.3
		c1.1,0.7,2.1,1.5,3.1,2.2c0.5,0.3,0.9,0.8,1.4,1.1c0.5,0.3,0.9,0.6,1.3,0.9c1.6,1.1,2.6,2.1,2.6,2.1s-1.3-0.2-3.3-0.9
		c-0.5-0.2-1-0.3-1.5-0.6c-0.6-0.2-1.1-0.5-1.6-0.8c-1.1-0.6-2.2-1.4-3.4-2.1c-1-0.9-2.1-1.8-3-2.7c-0.5-0.4-0.9-0.9-1.3-1.3
		c-0.4-0.4-0.7-0.9-1-1.3C280.5,188,279.9,186.8,279.9,186.8z"/>
	<path class="st7" d="M306.9,205.6c0,0,1,0.2,2.4,0.9c1.4,0.6,3.1,1.6,4.6,2.7c0.8,0.5,1.6,1,2.3,1.6c0.7,0.5,1.4,1.1,1.9,1.6
		c1.1,1,1.7,1.8,1.7,1.8s-1-0.2-2.4-0.7c-1.4-0.5-3.2-1.4-4.9-2.4c-1.6-1.1-3.1-2.4-4.1-3.5C307.4,206.5,306.9,205.6,306.9,205.6z"
		/>
	<path class="st7" d="M380.3,293.7c0,0,0.2,0.1,0.5,0.3c0.3,0.2,0.7,0.4,1.1,0.9c0.4,0.4,0.9,1,1.2,1.6c0.2,0.3,0.4,0.6,0.5,1
		l0.4,1.1c0.2,0.8,0.3,1.5,0.3,2.2c0,0.7,0,1.4-0.1,1.9c-0.2,1.1-0.5,1.9-0.5,1.9c0,0-0.4-0.7-0.8-1.7c-0.4-1-0.8-2.4-1.2-3.7
		c-0.2-0.7-0.4-1.3-0.5-1.9c-0.1-0.3-0.1-0.6-0.2-0.9c-0.1-0.3-0.1-0.5-0.2-0.8c-0.1-0.5-0.3-1-0.4-1.3
		C380.3,293.9,380.3,293.7,380.3,293.7z"/>
	<path class="st7" d="M340.5,269.1c0,0,0.4-0.4,0.9-0.6c0.5-0.2,1.3-0.4,2-0.3c0.7,0,1.3,0.1,1.8,0.4c0.5,0.3,0.9,0.6,0.9,0.6
		s-0.3,0.4-0.9,0.7c-0.5,0.3-1.3,0.5-2,0.6c-0.7-0.1-1.4-0.3-1.9-0.7C340.8,269.5,340.5,269.1,340.5,269.1z"/>
	<path class="st1" d="M408.8,323.6c0.8-2.4-6.6-10.7,1.1-13c-3.9-3.9-1-8.7,4.1-9.5c-0.7-4.6-1.9-9.6,4-11.3
		c-3.2-6.8,0.7-12.1,8.2-10.6c-1.6-3.2-1.1-11.5,4.6-8.6c0.9,0.4,4.8,10.8,5.3,12.2c2.6,5,2.8,9.1,5.9,14c2.6,4.5,9.4,11.5,3.3,17.4
		c6.9-0.8,2.4,9.6-0.2,12.5c-4.4,4-7.7,3.2-12.8,3.5c-6.5,0.4-15.6,2.3-19.3-4.9L408.8,323.6z"/>
	<path class="st0" d="M420.9,331.7c-2.5-4-0.9-7.8,3.1-11.3c1.3-1.5,4.6-0.3,5.5-1.7c1.3-1.5-1.2-4.1-0.3-5.5c2.1-3.8,4.8-5.4,6-8.2
		c0.8-2.4-0.3-5.1,0.5-7.4c0.8-1.9,4.5-3,4.4-4c1.1-4.7-2.7-7.3-0.7-12c0,0.5,4.5-2.1,4-2.1c1.4-0.5-0.7-5.1,3.6-1.6
		c2.4,2.2,1.8,7.3,0.5,9.7c5.7,2,5.5,6.6,7.1,11.2c1.7,5.5,4.1,7.2,8.1,12c3.5,4.9,7.4,15.8-0.3,19.5c3.6,6.3-3.7,7.6-7.8,9.7
		c-3.2,1.1-8.6,3.7-13.2,4c-1.8,0.1-3.8-1.2-5.6-1.5c-2.3,0.1-5.5,1.7-8.3,0.5c-2.4-0.8-5.4-5.3-6.9-7.5L420.9,331.7z"/>
	<path class="st8" d="M404.6,339.6c-3.3-0.7-12.8,2.6-14.1-2.9c-7.4,0.9-5.5-8-0.6-10.6c-1.6-4.1-0.9-8.7,3.6-9.5
		c-1.7-5.5-0.6-10.2,4.9-12.3c-1.7-5-4.8-11.3,1-15.3c-6.1-9.9,6-17.5,8-5.5c1.3,6.4,0.8,5.5,4.3,10.4c3,4.5,4.6,7.6,5,14.1
		c5.6,0.6,4.2,8.6,5.3,12.7c10-3.8,9.7,17.1,3.5,20.6c-2.3,1-11,1.5-13.8,1.7c-3.2,0.2-6.9-0.1-8.1-3.3L404.6,339.6z"/>
	<g>
		<path class="st9" d="M223.9,146.4c5.7,2.5,2.6,13.3,11,14.7c0.7-3.8-2.3-16.5,3.9-13.2c4.8,2.5,1.8,15.2,10.1,15.6
			c1.2-4.2,0-8.8-0.3-13c3.3,0.7,4.9,4.4,7.3,7c1.3-9.9-4.1-16.5-9.2-23.5c-4.3-0.4-9.2,0.2-13.8,0.7c-8.3,0.7-16.6,1-24.9,0.7
			c6.1,6.1,5.1,19.5,10.7,25.6C219.9,157.7,218.2,143.9,223.9,146.4z"/>
		<path class="st10" d="M305.8,419.4c3.7,2.8,4.9,5.6-2.4,7.3c-19.2,4.3-40-11.7-59.7-7.8c6.3,5.2,50.7,11.5,42.8,20.3
			c-7.4,8.7-32.2-4.7-39.3-8c-7.6-3.3-22-12.2-30-5.7c5.1,7.6,53,20.2,48.7,26.5c-4.3,6.7-30.2-2.5-35-4.5
			c-10.4-3.1-27.1-13.3-37.6-9.5c5.2,9.9,46.7,15,42.7,25.9c-0.2,0.4-0.4,0.8-0.7,1.1c32.7,7.9,60.7,14,69.6,14
			c25.5,0.4,108.8-24.6,119.3-36.8C419.2,438.3,363.1,429.4,305.8,419.4z"/>
		<g>
			<path class="st11" d="M233.8,219.1c4-17.2,11.8-3.2,23.2-4.3c8.3-0.9,10.5-11.9,11.8-20.2c-1.6-6-2.8-11.9-3.8-15.8
				c-2.9-10.9-2.2-23-5.1-34c-2-7.7-7.1-10.2-13.1-10.7c5.1,6.9,10.5,13.6,9.2,23.5c-2.5-2.6-4.1-6.3-7.3-7c0.2,4.2,1.4,8.7,0.3,13
				c-8.4-0.5-5.4-13.1-10.1-15.6c-6.2-3.4-3.2,9.4-3.9,13.2c-8.4-1.4-5.3-12.2-11-14.7c-5.7-2.5-4,11.3-5.2,14.6
				c-5.5-6.1-4.6-19.5-10.7-25.6c-7.4-0.3-14.7-1.1-22-2.7l13.8,39.5c5.1,12.6,6,24.1,13.2,35.7
				C221.6,204.4,229.7,211.8,233.8,219.1z"/>
			<path class="st11" d="M393.6,332.9c-24.2-11.1-59.8-0.8-66.1-31.5c-2.4-11.9-6.3-56.1-12-69.6c-4.2,4.5-22.3-0.5-26.9,1.7
				c-4.9,2.3-3.1,7.7-10,9.6c-5.9,1.3-11.7-2.8-17.6-1.5c1.4,7.4-9.7,5-14.3,4.3c-7-1.1-13.2-3.8-19-7.2c7.9,15.8,18,30.6,24.8,46.9
				c8,18.5,13.9,41.6,33.6,46.9c9.4,2.3,40,2.1,41.1,13.6c1.2,13.4-113.6,13.4-128.9,13.4c-16.7-0.5-174.7,6.5-162,42.4
				c5.6,15.9,51.4,24.5,66,28.7c15.7,4.3,80.4,21.7,133.2,34.4c0.2-0.4,0.5-0.7,0.7-1.1c4-10.9-37.5-16-42.7-25.9
				c10.4-3.8,27.2,6.4,37.6,9.5c4.7,2,30.7,11.2,35,4.5c4.3-6.3-43.7-18.9-48.7-26.5c8-6.5,22.4,2.5,30,5.7c7.1,3.3,32,16.7,39.3,8
				c7.8-8.8-36.5-15.1-42.8-20.3c19.7-3.9,40.5,12.1,59.7,7.8c7.3-1.7,6.1-4.5,2.4-7.3c-64.6-11.2-130.8-23.6-126.8-31.2
				c1.9-3.5,40.9-6.4,50.6-6.5c34.7-0.5,58.3-2.6,65.1-3.2c51.6-4.1,57.1-5.7,92.2-15.8c7.4-2.2,19.6-6.2,20-14.5
				C407.4,339.9,400.8,336.2,393.6,332.9z"/>
			<path class="st9" d="M261.1,241.5c5.9-1.3,11.7,2.8,17.6,1.5c6.9-1.9,5.1-7.3,10-9.6c4.6-2.2,22.7,2.8,26.9-1.7
				c-0.2-0.6-0.5-1.1-0.8-1.6c-7.2-13.5-26.4-8.2-36.5-16c-4.2-3.5-7.1-11.6-9.3-19.6c-1.4,8.3-3.5,19.3-11.8,20.2
				c-11.4,1.1-19.2-12.9-23.2,4.3c-4.1-7.2-12.2-14.7-20.8-11.1c0.3,0.5,0.6,1,1,1.5c4.1,6.3,6.3,12.6,9.4,19.8
				c1.3,3.2,2.8,6.3,4.3,9.4c5.8,3.4,12.1,6,19,7.2C251.3,246.6,262.5,248.9,261.1,241.5z"/>
		</g>
	</g>
	<path class="st12" d="M256.4,463.1c10.4,4.5,24.7,10.7,35.9,11.9c20,1.7-5.3-11.7-10.1-15.2c13.9-0.3,37.3,12.7,49.8,4.6
		c11.6-7.6-12-8.1-12.5-16.4c-0.1-9.7,30.9,6.1,36.4,5.8c17.1-1,2.6-12.2-4.6-16c9.6-1.5,18.7,4,28.4,2.6
		c-3.8-10.9-37.4-14.1-47-13.1c0.3,5.5,7.5,9.8,11.4,13.7c-9.2,1-28.1-13.3-35.4-4.5c-4.8,5.4,1.4,17.5-3,21.5
		c-5.8,4.5-18.7-3.6-23.9-5.1c-3.7-0.7-4.8-3-7.8,0.9c-2.6,2.9-1.5,6.6,1.4,9.2c-3.2,0.2-6.5,0.4-9.3-0.4L256.4,463.1z"/>
	<path class="st12" d="M226.3,363c-17.5,1.9-34.6,1.5-52.1,4.8c7.6,3.3,19.1,2.6,27.9,2.1c-4.6,1.2-10.1,1.5-14.1,4
		c6.6,1.9,15.3,0.1,21.8,0.2c-3.6,1.6-7.8,1.8-11.4,3.9c5.8,5.2,27.8-0.2,35.6-0.6c8.3-0.5,23.2,1,29.9-4.4
		c-4.8-2.5-11.6-0.7-17.2-0.4c3.6-1.6,8.2-2.3,11.3-4.3c-8.5-3.2-20.4,0.2-29.1,0.7c3.7-0.7,6.9-1.3,10.5-2.4
		c-1.6-3.2-5.7-2.5-9-4.1L226.3,363z"/>
	<path class="st13" d="M310.2,331.9c-9.9,12.6-47.8-10.8-19.7-12.8c-7.2,4.1-11.8-11.8-12.1-16.9c3.2-0.6,6.1,0.6,8.9,1.8
		c-5.3-3.9-5.7-10.8,0.7-12.5c5.5-1.2,15.1,4.7,17.2,9.2c-4.9-4.8-2.6-13.7,4.2-16c7.7-2.3,15.1,5.6,17.4,12.5
		c-1-18.5,14.1-21.6,15.6-2.3c5.3-13.7,32.1,2.4,20.6,12.3c9.2-1.9,10.1,22.6-6,16.5c6.6,11.2-15.3,17.1-22.1,10
		c1.4,9.2-21.7,9.1-22.7-0.1L310.2,331.9z"/>
	<path class="st12" d="M131.8,371c-6.5,0.4-34.6,2.9-35.8,13.6c-1.3,10.7,22.9-12.4,18,6.9c4.2,0.7,10.7-7.1,14.1-5
		c6.7,3.8-3.5,11.8,7.3,6.5c9-4.7,13.9-8.7,24.5-8.8c4.6-0.3,14,1.5,14-5.9c-7.9-1.4-15.6,2.3-23.5,2.2c-0.6-3.2,2-5.7,2.3-8.9
		c-5.6-1.5-12.4,1.2-18.4,1.5c0,0,0.4-1.4,0.4-1.9c-0.5,0-1.4,0.1-1.9-0.4L131.8,371z"/>
	<path class="st12" d="M145.9,421.7c3.5-4.2,12.6,2.1,16.1,3.6c3.3,1.2,21.8,9.4,22.8,2.4c0.7-4.2-11.2-9.6-13.2-12.2
		c5.4-2.6,27.6,5.9,29.5-2.6c1.5-5.6-20.2-12.8-24.8-13.4c-3.3-0.3-9.2,1-11.9,3c-3.1,2-2.9,5.3-5.2,6.8c-7.1,5.9-19.3-6.3-28.2-7.2
		c-2,5.2,2,10.5-3,13.1c-7.7,3.7-11.9-5.8-16.3-9.3c-3.7-3-13.4-7.6-18.2-5.5c-4.6,2-3.5,5.4-0.9,8.5c2,2.4,4.9,4.6,6.5,5.8
		c7.2,5.3,16.7,7.9,24.8,11.8c6.1,2.9,11.1,9.5,18.3,9.6C153.2,436.2,141.9,426.5,145.9,421.7z"/>
	<path class="st14" d="M100,333c-9.2,1.9-17.5-7.4-19-16.1c-3-19.7,12.2-30.8,16.3-48.1c1.9-7.5,2.8-15.9,3.8-23.4
		c1.7-11.7,5.7-22.5,7.3-34.2c2.4-15.4,6.6-30.5,8.1-45.8c1.5-14.4,2-22.3,12.4-34.5c9.6-11.2,22.8-14.7,36.7-15
		c15.3-0.4,32.7,6,37.8,21.5c5,14.1,2.7,31.8,13.5,42.8c6.9,6.6,10.7,8.7,14,18.2c3.4,10.5,5.3,20.5,11.4,29.9
		c5,6.7,10,13.3,13.6,20.5c4.2,8.6,5.6,17.7,9.8,26.3c6.8,14,14,27.5,20.4,41.5c2.1,4.1,6.6,9.8,7.3,13.9c1.8,6.9-3.8,7.2-9.7,8
		c-12.4,1.2-29.2-0.2-41.4-2.8c-16.4-3.2-25.7-4.6-41.8-1.4c-14.7,2.7-27.1-4.5-40.9-2.4c-15.6,2.3-30.5,1.7-45.4-0.2
		c-3.3-0.3-8.3,0-9.7,0.1L100,333z"/>
	<path class="st15" d="M117.6,249.6c0.9,0.1,1.8,0.2,2.7,0.3c0.9,0.1,1.8,0.1,2.7,0.1c1.8,0,3.6,0.1,5.4,0.3
		c0.9,0.1,1.8,0.2,2.7,0.4c0.9,0.3,1.8,0.4,2.6,0.8l1.3,0.5l0.3,0.1c0.2,0.1,0.2,0.1,0.3,0.2l0.6,0.3c0.7,0.4,1.6,1.1,2.3,1.7
		c2.8,2.5,4.7,5.6,6.8,8.4c1,1.4,2.1,2.8,3.3,4c0.6,0.6,1.2,1.1,1.9,1.6l1,0.6l1.1,0.4l-0.1,0c0.8,0,1.5,0.3,2.4,0.2
		c0.8,0,1.6-0.1,2.5-0.2c1.7-0.3,3.4-0.7,5.2-0.9c0.9-0.1,1.8-0.2,2.8-0.2c0.9-0.1,1.9,0.1,2.9,0.4c1,0.2,1.7,0.6,2.6,0.9
		c0.8,0.3,1.7,0.7,2.5,1.1c0.8,0.4,1.7,0.8,2.4,1.3c0.8,0.5,1.5,0.9,2.3,1.4c1.5,1,2.9,2.1,4.3,3.2c1.4,1.1,2.7,2.3,4,3.5
		c1.3,1.2,2.6,2.4,3.9,3.6c-2.9-2.1-5.6-4.3-8.5-6.3c-1.4-1-2.9-2-4.4-2.9c-0.7-0.5-1.5-0.8-2.3-1.3c-0.8-0.4-1.5-0.7-2.3-1.1
		c-0.8-0.3-1.5-0.7-2.4-0.9c-0.8-0.2-1.7-0.6-2.5-0.7c-0.8-0.1-1.5-0.3-2.4-0.2c-0.8,0-1.6,0.1-2.5,0.2c-1.7,0.3-3.4,0.7-5.2,1
		c-0.9,0.2-1.8,0.3-2.8,0.3c-0.9,0.1-1.9-0.1-2.9-0.2l-0.1,0l-0.1,0l-1.4-0.6c-0.4-0.2-0.8-0.5-1.3-0.8c-0.8-0.6-1.5-1.2-2.2-1.9
		c-1.3-1.4-2.4-2.8-3.4-4.3c-2-2.9-3.9-6-6.3-8.4c-0.6-0.6-1.1-1.1-1.9-1.6l-0.6-0.4c-0.1,0-0.2-0.2-0.2-0.1l-0.3-0.1l-1.2-0.5
		c-0.8-0.4-1.6-0.6-2.4-0.9c-0.8-0.2-1.7-0.4-2.5-0.6c-1.7-0.3-3.5-0.6-5.2-0.8c-0.9-0.1-1.8-0.2-2.7-0.4
		C119.3,250,118.5,249.8,117.6,249.6z"/>
	<path class="st15" d="M170.4,248.9c0,0,0.1-0.4,0.4-1.1c0.1-0.3,0.3-0.7,0.5-1.2c0.2-0.5,0.4-1,0.7-1.5c0.3-0.5,0.7-1.1,1.2-1.7
		c0.2-0.3,0.4-0.6,0.7-0.9c0.3-0.3,0.6-0.5,0.9-0.8c0.6-0.5,1.2-1.2,2-1.5c0.8-0.4,1.5-0.9,2.3-1.2c0.8-0.3,1.6-0.5,2.4-0.8
		c0.8-0.2,1.6-0.3,2.4-0.5c1.5-0.3,2.9-0.4,4.2-0.5c2.4-0.2,4.1-0.2,4.1-0.2s-1.5,0.7-3.8,1.5c-1.2,0.4-2.5,0.8-4,1.2
		c-0.7,0.2-1.4,0.4-2.2,0.6c-0.7,0.3-1.4,0.5-2.2,0.8c-0.7,0.2-1.4,0.6-2,0.9c-0.7,0.3-1.2,0.8-1.8,1.2c-0.3,0.2-0.6,0.4-0.9,0.6
		c-0.3,0.2-0.5,0.5-0.7,0.7c-0.4,0.5-0.9,0.9-1.3,1.3c-0.4,0.4-0.7,0.9-1.1,1.3c-0.3,0.4-0.6,0.7-0.8,1
		C170.6,248.6,170.4,248.9,170.4,248.9z"/>
	<path class="st15" d="M174.7,194.5c0,0,0-1.2,0.3-2.8c0.3-1.6,0.8-3.7,1.3-5.8c0.3-1,0.5-2,0.8-3c0.3-1,0.4-1.9,0.6-2.6
		c0.2-0.8,0.3-1.5,0.4-1.9c0.1-0.5,0.2-0.8,0.2-0.8s0.1,0.3,0.2,0.7c0.1,0.5,0.3,1.2,0.4,2c0.1,0.8,0.2,1.8,0.1,2.9
		c-0.1,0.5,0,1.1-0.2,1.6c-0.1,0.5-0.2,1.1-0.3,1.6c-0.3,1.1-0.6,2.1-1.1,3.1c-0.4,1-0.8,1.8-1.3,2.5
		C175.5,193.6,174.7,194.5,174.7,194.5z"/>
	<path class="st15" d="M229.2,265.8c0,0,0.5,0.6,0.9,1.6c0.2,0.5,0.5,1.1,0.6,1.7c0.1,0.3,0.2,0.7,0.2,1l0.1,1.1
		c0,0.7,0,1.5-0.2,2.1c-0.1,0.7-0.4,1.3-0.7,1.8c-0.2,0.5-0.6,0.8-0.9,1.1c-0.2,0.2-0.4,0.3-0.4,0.3s0-0.2,0-0.5c0-0.3,0-0.7,0-1.2
		c0-0.5,0-1,0-1.6c0-0.6,0-1.2,0-1.8c0-1.3,0-2.6,0.1-3.6C229,266.5,229.2,265.8,229.2,265.8z"/>
	<path class="st15" d="M148.8,137.1c0,0-0.1,0.8-0.5,1.8c-0.2,0.5-0.5,1.1-0.7,1.7c-0.3,0.6-0.6,1.2-0.9,1.8c-0.3,0.6-0.7,1.2-1,1.7
		c-0.4,0.5-0.7,1.1-1,1.5c-0.6,0.9-1.3,1.4-1.3,1.4s-0.1-0.8,0-1.9c0.1-0.6,0.2-1.2,0.4-1.9c0.2-0.7,0.5-1.3,0.9-2
		c0.8-1.3,1.7-2.5,2.6-3.1C148.1,137.5,148.8,137.1,148.8,137.1z"/>
	<path class="st7" d="M282.1,143.6c0,0,0.3,0.3,0.6,0.7c0.3,0.4,0.6,1,0.8,1.6c0.1,0.7,0.1,1.4,0.1,1.9c-0.1,0.5-0.2,0.8-0.2,0.8
		s-0.2-0.3-0.5-0.8c-0.2-0.4-0.4-1-0.5-1.6c-0.2-0.6-0.3-1.3-0.3-1.8C282,144,282.1,143.6,282.1,143.6z"/>
	<path class="st0" d="M217.4,337.4c-0.8-2.1-0.1-4.8,1.7-7.5c1.3-1.9,5.2-3.5,6.1-5c1.1-2.1-1-4.1,0-5.9c2.1-3.8,4.8-5.4,6-8.2
		c0.8-2.4-0.3-5.1,0.5-7.4c0.8-1.9,4.5-3,4.4-3.9c-0.2-3.3-4.2-15.7,3.2-13.4c0.3-2.7,1.1-4.5,3.8-2.3c2.4,2.2,1.8,7.3,0.5,9.7
		c5.7,2,5.5,6.6,7.1,11.2c1.7,5.5,4.1,7.2,8.1,12.1c1.9,2.7,12.4,22.1,2.9,21.2c-0.8,7.5-14.1,2.6-14.4,3.3c-1.9,4.7-7.8,4.5-12,2.6
		c-1.9-0.9-3.3-2.8-5.2-3.3c-1.7-0.5-5.2,0.8-7.4,0.5C219.8,340.5,218,339.2,217.4,337.4z"/>
	<path class="st8" d="M191,341.6c-4.7,1.6-12.4,3.7-13.7-1.8c-7.4,0.9-5.5-8-0.6-10.6c-1.6-4.1-1-8.7,3.6-9.5
		c-1.7-5.5-0.6-10.2,4.9-12.3c-1.7-5-4.8-11.3,1-15.3c-6.1-9.8,6-17.5,8-5.5c1.3,6.4,0.8,5.5,4.3,10.4c3,4.5,4.6,7.6,5,14.1
		c5.6,0.6,4.2,8.6,5.3,12.7c3.5-1.3,5.5,0.6,7,3.5c0.6,1.2,2.9,6,2.9,7.2c0,4.6-10.8,9.6-11.4,5.2c0.8,6-14,7.3-13.9,1.1
		C192.9,341,192,341.3,191,341.6z"/>
	<path class="st1" d="M143.3,336.6c-4.2,7.2-16.9-11.6-4.4-12.3c-0.8-6,2.7-10.3,3.8-14.6c0.7-3.3-1.6-4.1,0.9-7.9
		c2.1-3.4,4.1-1.6,5.3-5.4c0.8-2.8-2.6-5.4,0-8.3c2.2-2.4,7.3-1.8,9.7-0.5c4.3,2.5,3.6,7.2,3.9,11.8c6.5-0.4,9.1,4.6,8.9,10.2
		c6,0.1,9.3,9.7,4,12.7c13.7,4.8-7.5,15.2-11.1,16.4c-6.3,2.7-15,5.9-18.6-2.2L143.3,336.6z"/>
	<path class="st0" d="M94.2,331.7c0.7-2.1-0.1-4.8-2.1-7.4c-1.4-1.9-5.4-3.2-6.3-4.6c-1.2-2,0.7-4.1-0.4-5.9
		c-2.3-3.7-5.1-5.1-6.5-7.9c-0.9-2.3,0-5.1-0.9-7.4c-0.9-1.8-4.6-2.8-4.6-3.7c0-3.3,3.3-15.9-3.9-13.2c-0.5-2.7-1.3-4.4-3.9-2.1
		c-2.3,2.3-1.4,7.4,0,9.7c-5.6,2.3-5.1,6.9-6.5,11.5c-1.4,5.5-3.7,7.4-7.4,12.5c-1.8,2.8-11.2,22.7-1.7,21.4
		c1.2,7.4,14.2,1.8,14.6,2.6c2.2,4.6,8,4.1,12.1,1.9c1.8-1,3.2-3,5-3.6c1.6-0.6,5.3,0.6,7.4,0.1C92,334.9,93.6,333.5,94.2,331.7z"/>
	<path class="st1" d="M119.6,335.7c4.8,1.1,12.8,2.3,13.4-3.3c7.4,0.1,4.6-8.6-0.6-10.6c1.2-4.2,0-8.8-4.7-9
		c1.1-5.6-0.6-10.1-6.2-11.7c1.1-5.1,3.5-11.8-2.7-15.1c5-10.5-7.9-16.7-8.6-4.6c-0.6,6.5-0.2,5.6-3.1,10.8
		c-2.5,4.8-3.7,8.1-3.4,14.5c-5.5,1.2-3.2,9-3.9,13.2c-3.6-0.9-5.4,1.2-6.6,4.2c-0.5,1.3-2.2,6.3-2,7.5c0.5,4.6,11.8,8.4,11.9,3.9
		c-0.1,6,14.7,5.7,13.9-0.4C117.7,335.2,118.6,335.4,119.6,335.7z"/>
	<path class="st12" d="M279.2,247.7c-3.6,2.5-2.1,12.6-1.4,17.2c1.3,7.3,2.2,22.6,6.7,28.3c4.2-8.1-2.5-20.7,2.2-27.4
		c3.2,7.7,2.3,16.5,6.4,24.2c1.9-6.6-0.5-16.6,3.4-22.4c4.5,5.3,2.7,14.7,6.7,20.5c-0.2-2.8-2.5-20.2,2.7-18.2
		c3.8,1.6,1.7,14.3,6.1,17.3c4.3-5.8,0.7-20.4,0.3-27.3c-0.4-6.9-0.9-16.2-5.8-21.4c-7.2,4.6,1,17.5-7.7,20.3
		c-1.1-2.7-2-18.4-8.3-15.3c-5,2.6,1.7,13.3-2.3,16.8c-3-4.5-1-9.7-5.8-12.6L279.2,247.7z"/>
	<path class="st12" d="M237.1,192.4c1.4,9.2,0.8,22.6,4,30.8c2.7,7.7,20.8,16,29.6,15.5c-2.5-4-8.7-6-11.6-9.5
		c7.8-0.4,13.8,6.6,22.1,6.6c0.7-4.2-4.1-7.2-7-9.8c3.2-0.2,26.4,8.2,13.7-3.1c-2.5-2.6-7.6-3.3-10.5-6.4c-3.9-3-5.5-7.1-8.1-11.6
		c-2.1-4.1-7.5-26.9-12.4-22.5c-4.8,4.4,2.8,24.4,2.7,30.9c-6.3-4.7-2.5-19.3-10.1-23.5c-3.7,8.1,3.4,19.7-4.1,26.6
		c-3.3-9.1-1.5-18.9-6.6-27.4c-0.9,0-0.4,1-0.8,1.9L237.1,192.4z"/>
	<path class="st12" d="M340,334.8c4.2,17.4-17.2,23.7-30,27.1c3.9,4.4,13.3-1.7,18.8-2.9c-0.3,3.7-5.3,4.9-8.4,7
		c9,3.2,17.7-7,26.5-5.6c-0.8,2.8-3.5,3.9-5.7,6.3c5.6,1.1,11.3-4.8,16.8-6.5c-0.8,1.9-1.1,4.7-2,6.6c15.1,5.2,35.3-14.5,24.8-29.2
		c-1.5-1.3-4.1-6.3-6.8-5.6c-4.1,1.2,0.3,5.5-0.9,7.9c-4.2,8.1-5.7-3.4-9.1-6c0.3,5.1-0.4,9.7-5.8,11.4c-1.6-3.6-0.5-9.2-4.4-11.8
		c-2.5,4.3-2.3,9.4-6.7,12.9C346.5,344.2,345.9,324.8,340,334.8L340,334.8z"/>
	<path class="st15" d="M193.2,227.2c0,0,0.2,0.4,0.3,1.1c0.1,0.7,0.2,1.5,0.2,2.4c-0.1,0.9-0.3,1.8-0.5,2.4c-0.2,0.6-0.5,1-0.5,1
		s-0.1-0.5-0.2-1.1c-0.1-0.7-0.1-1.5,0-2.4c0-0.9,0.2-1.7,0.4-2.4C193,227.6,193.2,227.2,193.2,227.2z"/>
	<path class="st15" d="M199.4,227.8c0,0,0.2,0.4,0.3,0.9c0.2,0.5,0.1,1.3,0,2.1c-0.1,0.4-0.2,0.7-0.4,1.1c-0.1,0.3-0.4,0.6-0.5,0.8
		c-0.4,0.5-0.7,0.7-0.7,0.7s0-0.4,0.1-1c0.1-0.5,0.2-1.2,0.4-1.9c0.1-0.3,0.1-0.7,0.2-1c0.1-0.3,0.2-0.6,0.3-0.9
		C199.2,228.1,199.4,227.8,199.4,227.8z"/>
	<path class="st15" d="M203.3,227.7c0,0,0.1,0.1,0.1,0.2c0.1,0.2,0.2,0.3,0.3,0.6c0.2,0.6,0.1,1.4-0.2,2.1c-0.3,0.7-0.7,1.3-1.1,1.7
		c-0.4,0.4-0.8,0.6-0.8,0.6s0.1-0.4,0.2-0.9c0.2-0.5,0.3-1.2,0.6-1.8c0.1-0.3,0.2-0.6,0.3-0.9c0.1-0.3,0.2-0.5,0.3-0.8
		C203.2,228.1,203.2,227.7,203.3,227.7z"/>
	<path class="st15" d="M190.4,123.2c0,0-0.1-0.4-0.1-1c0-0.6,0.2-1.4,0.5-2.2c0.3-0.8,0.8-1.5,1.2-1.9c0.4-0.5,0.8-0.7,0.8-0.7
		s0,0.4-0.2,1c-0.2,0.6-0.4,1.4-0.7,2.1c-0.2,0.7-0.7,1.4-0.9,1.9C190.6,122.8,190.4,123.2,190.4,123.2z"/>
	<path class="st15" d="M192.1,124.5c0,0,0.1-0.4,0.2-0.9c0.2-0.5,0.5-1.1,1-1.6c0.3-0.2,0.5-0.5,0.8-0.7c0.2-0.2,0.6-0.3,0.8-0.4
		c0.5-0.2,0.9-0.2,0.9-0.2s-0.2,0.4-0.5,0.8c-0.3,0.4-0.7,0.9-1.2,1.4c-0.2,0.2-0.4,0.5-0.7,0.7c-0.2,0.2-0.5,0.4-0.7,0.6
		C192.5,124.4,192.1,124.5,192.1,124.5z"/>
	<path class="st15" d="M193.2,127c0,0,0.2-0.3,0.6-0.5c0.4-0.3,0.7-0.7,1.2-0.9c0.5-0.3,1.1-0.5,1.5-0.6c0.5-0.1,0.8-0.1,0.8-0.1
		c0,0.1-0.7,1.1-1.7,1.7c-0.5,0.3-1.2,0.5-1.6,0.6C193.5,127,193.2,127,193.2,127z"/>
	<path class="st15" d="M119.3,244.1c0,0,0.3,0.4,0.5,0.9c0.2,0.6,0.6,1.3,0.8,2.1c0.1,0.4,0.3,0.8,0.4,1.1c0.1,0.4,0.2,0.7,0.3,1
		c0.2,0.6,0.2,1.1,0.2,1.1s-0.4-0.3-0.8-0.8c-0.5-0.5-0.8-1.3-1.1-2.1c-0.2-0.8-0.4-1.7-0.4-2.3
		C119.2,244.5,119.3,244.1,119.3,244.1z"/>
	<path class="st15" d="M123.8,244c0,0,0.2,0.3,0.4,0.8c0.2,0.5,0.4,1.2,0.5,1.9c0,0.7-0.1,1.4-0.2,2c-0.1,0.5-0.3,0.9-0.3,0.9
		s-0.2-0.3-0.4-0.9c-0.2-0.5-0.3-1.2-0.3-1.8c-0.1-0.7-0.1-1.4,0-1.9C123.6,244.4,123.8,244,123.8,244z"/>
	<path class="st15" d="M128,244.9c0,0,0.2,0.3,0.4,0.8c0.2,0.4,0.3,1.2,0.3,1.9c-0.1,0.7-0.3,1.3-0.5,1.8c-0.2,0.5-0.5,0.8-0.5,0.8
		s-0.1-0.4-0.2-0.9c0-0.5-0.1-1.2,0-1.8c0-0.6,0.2-1.2,0.2-1.7C127.8,245.3,128,244.9,128,244.9z"/>
	<path class="st15" d="M277.4,324.6c0,0-0.3-0.2-0.6-0.6c-0.3-0.4-0.6-0.9-0.8-1.5c-0.2-0.6-0.2-1.3-0.2-1.8c0-0.5,0.1-0.9,0.1-0.9
		s0.3,0.3,0.5,0.7c0.2,0.4,0.5,1,0.6,1.6c0.1,0.3,0.2,0.6,0.3,0.9c0.1,0.3,0.1,0.6,0.1,0.8C277.5,324.2,277.4,324.6,277.4,324.6z"/>
	<path class="st15" d="M273.3,326.7c0,0-0.4-0.1-0.9-0.5c-0.5-0.3-1.1-0.8-1.6-1.4c-0.4-0.6-0.8-1.3-1-1.9c-0.2-0.6-0.2-1-0.2-1
		s0.4,0.3,0.7,0.7c0.3,0.4,0.9,0.9,1.3,1.5c0.2,0.3,0.4,0.6,0.6,0.9c0.2,0.3,0.3,0.6,0.5,0.8C273.2,326.3,273.3,326.7,273.3,326.7z"
		/>
	<path class="st15" d="M282.3,325.9c0,0-0.3-1.1-0.1-1.9c0.2-0.9,1-1.6,1-1.6c0,0,0.3,1.1,0.1,1.9
		C283.1,325.2,282.3,325.9,282.3,325.9z"/>
	<path class="st15" d="M247.7,333.7c0,0,0.4,0.5,0.8,1.4c0.5,0.8,1,2,1.4,3.2c0.6,1.1,1,2.3,1.3,3.2c0.3,0.9,0.4,1.6,0.4,1.6
		s-0.4-0.5-1-1.3c-0.5-0.8-1.2-1.9-1.8-3.1c-0.4-1.2-0.8-2.4-0.9-3.4C247.8,334.4,247.7,333.7,247.7,333.7z"/>
	<path class="st15" d="M255.2,344c0,0-0.1-0.6-0.1-1.6c0-0.5,0-1,0.1-1.6c0.1-0.6,0.2-1.2,0.4-1.8c0.4-1.2,0.9-2.3,1.4-3.1
		c0.5-0.8,0.9-1.3,0.9-1.3s-0.1,0.6-0.3,1.5c-0.2,0.9-0.5,2.1-0.9,3.2c-0.3,1.1-0.7,2.3-0.9,3.2C255.5,343.4,255.2,344,255.2,344z"
		/>
	<path class="st15" d="M258.7,343.6c0,0,0.1-0.5,0.4-1.1c0.3-0.6,0.7-1.4,1.3-2.1c0.4-0.8,1-1.4,1.5-1.9c0.5-0.5,0.9-0.8,0.9-0.8
		s-0.1,0.5-0.3,1.1c-0.2,0.7-0.6,1.5-1.1,2.3c-0.5,0.7-1.2,1.4-1.7,1.8C259.1,343.4,258.7,343.6,258.7,343.6z"/>
	<path class="st15" d="M198.2,334.9c0,0,0.4,0.5,0.9,1.4c0.4,0.9,1.1,1.9,1.6,3c0.6,1.1,1.1,2.2,1.5,3.1c0.4,0.8,0.6,1.5,0.6,1.5
		s-0.5-0.4-1.2-1.1c-0.3-0.4-0.7-0.8-1-1.3c-0.3-0.5-0.7-1.1-1-1.6c-0.5-1.2-1-2.4-1.2-3.3C198.2,335.6,198.2,334.9,198.2,334.9z"/>
	<path class="st15" d="M206.3,343.5c0,0-0.2-0.4-0.4-1c-0.1-0.3-0.2-0.6-0.2-1c0-0.4,0-0.8,0-1.3c0.1-0.4,0.2-0.8,0.3-1.2
		c0.1-0.4,0.3-0.7,0.5-1c0.4-0.5,0.7-0.8,0.7-0.8s0,0.5-0.1,1c-0.1,0.3-0.1,0.6-0.1,1c0,0.4-0.1,0.7-0.2,1.1c0,0.7-0.3,1.5-0.3,2.1
		C206.4,343.1,206.3,343.5,206.3,343.5z"/>
	<path class="st15" d="M209.4,343.8c0,0,0.3-0.4,0.8-0.9c0.3-0.2,0.5-0.5,0.8-0.8c0.2-0.3,0.5-0.6,0.8-0.9c0.5-0.7,1.2-1.3,1.6-1.8
		c0.4-0.5,0.8-0.8,0.8-0.8s-0.1,0.5-0.3,1.1c-0.1,0.3-0.2,0.7-0.5,1.1c-0.2,0.4-0.5,0.8-0.8,1.1c-0.4,0.3-0.7,0.7-1.1,1
		c-0.3,0.3-0.7,0.4-1,0.6C209.9,343.7,209.4,343.8,209.4,343.8z"/>
	<path class="st15" d="M415.1,343c0,0-0.2-0.3-0.5-0.7c-0.2-0.5-0.5-1.1-0.6-1.7c-0.1-0.6-0.2-1.3-0.1-1.8c0-0.5,0.1-0.9,0.1-0.9
		s0.3,0.3,0.5,0.7c0.2,0.5,0.5,1.1,0.6,1.7c0.1,0.6,0.2,1.3,0.1,1.8C415.2,342.6,415.1,343,415.1,343z"/>
	<path class="st15" d="M419.2,344c0,0-0.1-0.4-0.2-1.1c-0.1-0.6,0-1.5,0.2-2.3c0.2-0.4,0.3-0.8,0.5-1.2c0.1-0.4,0.4-0.7,0.6-0.9
		c0.5-0.5,0.8-0.7,0.8-0.7s-0.1,0.5-0.2,1.1c-0.2,0.5-0.3,1.4-0.6,2.1c-0.2,0.8-0.5,1.5-0.7,2.1C419.5,343.6,419.2,344,419.2,344z"
		/>
	<path class="st15" d="M423.7,343.5c0,0,0.1-0.4,0.4-1c0.3-0.6,0.7-1.3,1.2-2c0.5-0.7,1.1-1.3,1.6-1.7c0.5-0.4,0.9-0.6,0.9-0.6
		s-0.1,0.4-0.4,1c-0.3,0.6-0.7,1.3-1.2,2c-0.5,0.7-1.1,1.2-1.6,1.6C424.1,343.3,423.7,343.5,423.7,343.5z"/>
	<path class="st15" d="M248.6,240.1c0,0,0.1-0.6,0.4-1.4c0.3-0.8,0.7-1.8,1.3-2.8c0.3-0.5,0.6-0.9,1-1.3c0.3-0.4,0.7-0.7,1-1
		c0.6-0.6,1.1-0.8,1.1-0.8s-0.2,0.6-0.6,1.3c-0.4,0.7-0.9,1.7-1.5,2.6c-0.5,0.9-1.2,1.8-1.7,2.5C249,239.7,248.6,240.1,248.6,240.1z
		"/>
	<path class="st15" d="M250.7,243.9c0,0,0.2-0.5,0.6-1c0.4-0.6,0.9-1.3,1.5-2c0.3-0.3,0.6-0.7,1-1c0.3-0.3,0.7-0.5,1-0.7
		c0.6-0.4,1.1-0.6,1.1-0.6s-0.2,0.5-0.6,1c-0.4,0.5-0.9,1.3-1.5,2c-0.6,0.7-1.4,1.3-1.9,1.7C251.2,243.7,250.7,243.9,250.7,243.9z"
		/>
	<path class="st15" d="M251.1,244.9c0,0,0.4-0.2,1.1-0.5c0.3-0.1,0.7-0.3,1.1-0.4c0.4-0.2,0.8-0.3,1.2-0.4c0.8-0.3,1.7-0.4,2.4-0.5
		c0.7-0.1,1.2-0.1,1.2-0.1s-0.4,0.3-1,0.7c-0.6,0.4-1.4,0.7-2.3,1c-0.9,0.2-1.9,0.4-2.5,0.3C251.5,245,251.1,244.9,251.1,244.9z"/>
	<path class="st15" d="M125.3,129.2c0,0,0.4,0.2,0.9,0.5c0.5,0.4,1.2,0.9,1.7,1.5c0.5,0.7,0.9,1.5,1.2,2c0.3,0.6,0.4,1,0.4,1
		s-0.4-0.2-0.9-0.6c-0.5-0.4-1-1-1.5-1.6c-0.6-0.6-1-1.3-1.4-1.9C125.4,129.6,125.3,129.2,125.3,129.2z"/>
	<path class="st15" d="M123.3,133.7c0,0,0.4,0,0.9,0.1c0.5,0.1,1.1,0.3,1.7,0.6c0.6,0.3,1.1,0.7,1.4,1c0.4,0.3,0.6,0.7,0.6,0.7
		s-0.4,0-0.9-0.1c-0.5-0.1-1.1-0.3-1.7-0.6c-0.6-0.3-1.1-0.7-1.4-1C123.5,134,123.3,133.7,123.3,133.7z"/>
	<path class="st15" d="M119.5,138.3c0,0,0.4-0.1,1-0.2c0.6,0,1.4-0.1,2.2,0c0.8,0.1,1.6,0.3,2.2,0.6c0.6,0.3,0.9,0.6,0.9,0.6
		s-0.5,0.1-1,0.1c-0.3,0-0.6,0-1,0c-0.4,0-0.7,0-1.1-0.1c-0.8-0.1-1.6-0.2-2.2-0.5C119.9,138.5,119.5,138.3,119.5,138.3z"/>
	<path class="st7" d="M340.1,220.8c0,0,0.1-0.5,0.3-1.3c0.2-0.7,0.6-1.7,1.1-2.6c0.5-0.9,1.1-1.8,1.7-2.3c0.6-0.6,1-0.8,1-0.8
		s-0.1,0.5-0.5,1.2c-0.3,0.7-0.7,1.6-1.2,2.5c-0.5,0.9-1,1.7-1.5,2.4C340.5,220.5,340.1,220.8,340.1,220.8z"/>
	<path class="st7" d="M341.6,223.6c0,0,0.1-0.4,0.3-1c0.2-0.5,0.6-1.3,1.1-1.9c0.3-0.3,0.6-0.6,0.8-0.8c0.3-0.3,0.6-0.4,0.9-0.6
		c0.6-0.3,1-0.3,1-0.3s-0.2,0.4-0.5,0.9c-0.4,0.4-0.7,1.1-1.3,1.6c-0.5,0.6-1,1.1-1.5,1.5C341.9,223.4,341.6,223.6,341.6,223.6z"/>
	<path class="st7" d="M342.6,224.9c0,0,0.3-0.3,0.8-0.6c0.3-0.1,0.6-0.3,0.8-0.5c0.3-0.2,0.6-0.3,0.9-0.5c0.3-0.2,0.6-0.4,0.9-0.5
		c0.3-0.1,0.6-0.3,0.8-0.4c0.5-0.3,0.9-0.4,0.9-0.4s-0.1,0.4-0.5,0.9c-0.3,0.5-0.9,1-1.6,1.5c-0.4,0.2-0.8,0.3-1.1,0.4
		c-0.4,0.2-0.7,0.1-1,0.1C343,225,342.6,224.9,342.6,224.9z"/>
	<path class="st7" d="M245.2,128.1c0,0,0.3,0.3,0.6,0.9c0.3,0.6,0.7,1.3,1,2.2c0.3,0.8,0.4,1.7,0.5,2.3c0.1,0.7,0,1.1,0,1.1
		s-0.3-0.3-0.6-0.9c-0.3-0.6-0.7-1.3-1-2.2c-0.3-0.8-0.4-1.7-0.5-2.3C245.2,128.6,245.2,128.1,245.2,128.1z"/>
	<path class="st7" d="M250,125.3c0,0,0.2,0.5,0.3,1.2c0.1,0.7,0.3,1.7,0.3,2.7c0,1-0.1,2-0.2,2.7c-0.1,0.8-0.3,1.3-0.3,1.3
		s-0.2-0.5-0.3-1.2c-0.2-0.7-0.3-1.7-0.3-2.7c0-1,0.1-2,0.2-2.7C249.9,125.8,250,125.3,250,125.3z"/>
	<path class="st7" d="M253.5,124.5c0,0,0.2,0.4,0.4,1c0.2,0.6,0.4,1.4,0.5,2.2c0,0.9-0.2,1.7-0.4,2.3c-0.2,0.6-0.4,1-0.4,1
		s-0.2-0.4-0.3-1.1c-0.1-0.6-0.2-1.4-0.1-2.2c-0.1-0.8,0-1.7,0-2.3C253.4,125,253.5,124.5,253.5,124.5z"/>
	<path class="st7" d="M287.3,193.3c0,0-0.1-0.6,0-1.4c0.1-0.8,0.1-1.9,0.4-3c0.3-1.1,0.8-2.1,1.2-2.8c0.4-0.7,0.7-1.2,0.7-1.2
		s0,0.6-0.1,1.4c-0.1,0.8-0.3,1.9-0.6,2.9c-0.2,0.5-0.3,1-0.4,1.5c-0.1,0.5-0.3,0.9-0.5,1.3C287.6,192.8,287.3,193.3,287.3,193.3z"
		/>
	<path class="st7" d="M289.4,193.6c0,0,0-0.4,0.2-0.9c0.2-0.5,0.6-1.1,1.1-1.6c0.3-0.2,0.5-0.5,0.8-0.7c0.2-0.2,0.6-0.3,0.8-0.4
		c0.5-0.2,0.9-0.2,0.9-0.2s-0.2,0.4-0.5,0.8c-0.3,0.4-0.7,0.9-1.2,1.4c-0.3,0.2-0.4,0.5-0.7,0.7c-0.2,0.2-0.5,0.4-0.7,0.5
		C289.7,193.4,289.4,193.6,289.4,193.6z"/>
	<path class="st7" d="M290.8,195.7c0,0,0.2-0.3,0.7-0.7c0.4-0.4,1-0.8,1.7-1.2c0.6-0.4,1.3-0.6,1.9-0.8c0.5-0.2,0.9-0.2,0.9-0.2
		s-0.2,0.3-0.7,0.8s-1,0.9-1.7,1.2c-0.6,0.4-1.4,0.6-1.9,0.7C291.2,195.7,290.8,195.7,290.8,195.7z"/>
	<path class="st7" d="M318.4,226.7c0,0,0.3-0.1,0.8-0.3c0.5-0.2,1.3-0.3,2.1-0.6c0.4-0.1,0.8-0.3,1.3-0.4c0.4-0.1,0.9-0.4,1.4-0.5
		c1-0.4,2.1-0.8,3.1-1.2c2.2-0.8,4.4-1.5,6.2-1.7c0.9-0.2,1.7-0.1,2.2-0.1c0.5,0,0.8,0,0.8,0s-0.3,0.2-0.7,0.4
		c-0.5,0.2-1.1,0.6-1.9,1c-1.6,0.8-3.6,1.8-5.8,2.6c-1.1,0.4-2.3,0.8-3.4,0.9c-1.1,0.3-2.2,0.3-3.1,0.3c-0.9,0.1-1.6-0.2-2.2-0.3
		C318.7,226.8,318.4,226.7,318.4,226.7z"/>
	<path class="st7" d="M326.7,224.5c0,0-0.1-0.4-0.1-1c0-0.6-0.1-1.3,0-2.1c0.1-0.4,0.2-0.8,0.3-1.1c0.1-0.4,0.4-0.7,0.5-0.9
		c0.3-0.5,0.6-0.8,0.6-0.8s0,0.5,0,1c-0.1,0.5-0.1,1.3-0.2,2c-0.1,0.7-0.3,1.6-0.5,2.1C326.9,224.2,326.7,224.5,326.7,224.5z"/>
	<g>
		<path class="st16" d="M141.1,105.7c-5.6-0.1-11.9,1.3-16.6-3.7c-4.3-4.5-3.4-11.4,0.6-15.8c-2.4-2-2.6-4.9-2.5-7.7
			c0.3-2,0.8-4.1,1.8-5.6c0.7-0.9,2.7-1.9,2.8-2.7c0.5-1.5-1.6-5.4-1.6-7.4c0.1-3.4,1.9-6.1,4.1-8.5c-4.3-4.5-0.8-11.1,3-14.9
			c-1.7-2.7-0.6-7.9-0.1-10.8c0.6-3.2,2-12,5-13.9c4.5-2.8,7,8,7.6,10.9c0.5,2.5,0.7,5.2,1.3,7.6c0.5,2.7,1.6,3.5,3.3,5.3
			c2.6,2.8,2.9,6.4,2,9.9c-0.2,1-1,2.4-0.8,3.4c0.4,1.3,2.9,3,3.6,4.3c2.6,4.2,2.1,9.2-1.5,12.7c3.6,1,6.6,3.4,8,6.8
			c1.9,4.4,0.1,7.6-2.6,10.8c5.3,4.1,5.4,10.9,0.2,15.2c-3.8,3.3-10.1,3.7-14.6,3.9L141.1,105.7z"/>
		<path class="st17" d="M133.3,75.9c-2.2,0.2,0.5,3.5,1.2,4.3c2.2,2.7,5.7,3.2,5.7,3.2s1,13,0.9,15.7c-3.1,0.3-7.1-4.5-8.3-8.4
			c-3,1.1,2.4,6.8,3.6,7.7c1.1,1,3.1,1.7,3.9,2.9c0.9,1.2,1.1,28.6,1.1,29c0.8,0.5,1.8,0.5,2.7,0c0.2-5.5-1-27.9-0.7-29.5
			c3-2.4,4.8-5,5.7-7.4c0.9-2.1,0.9-3.3,1.6-5.6c0.2-1,1.1-3.9,0.5-4.9c-1-1.6-1,0.5-1.3,1.5c-0.2,1.5-0.7,3.7-1.2,5.1
			c-1,2.9-1.5,5.1-3.8,7.8c-0.5,0.6-1.4,1.1-2.1,1.5c-0.4-3.3-0.7-18.2-0.9-22.3c0-1.4-0.3-8.3-1.3-8.2c-0.5,0-0.6-0.1-0.7,0.4
			c-0.2,1.4,0.8,12.5,0,12.9c-1.6,0.7-5-2.8-5.5-4L133.3,75.9z"/>
		<path class="st8" d="M150.3,98.1c0.4,0.4,0.9,0.8,1.4,1c0.5,0.3,1.1,0.4,1.6,0.5c0.3,0,0.6,0.1,0.8,0c0.3,0,0.4-0.1,0.5-0.3
			c0.1-0.2,0-0.4-0.1-0.7c-0.1-0.2-0.2-0.5-0.4-0.7c-0.1-0.1,0-0.3,0.1-0.4c0.1,0,0.2,0,0.3,0l0,0l0.4,0.2c0.1,0.1,0.3,0.1,0.4,0.1
			c0.1,0,0.3,0,0.4,0.1c0.1,0,0.3,0,0.4,0c0.1,0,0.2-0.1,0.4-0.1c0.1,0,0.2-0.1,0.3-0.2c0.1-0.1,0.2-0.2,0.3-0.3
			c0.1-0.1,0.2-0.2,0.2-0.3c0-0.1,0.1-0.2,0.1-0.4c0-0.1,0.1-0.3,0.1-0.4c0-0.1,0-0.3,0-0.4l0-0.2l-0.1-0.2l-0.1-0.2l-0.1-0.2
			c-0.1-0.1-0.1-0.3-0.2-0.4c-0.1-0.1-0.2-0.2-0.3-0.3l-0.3-0.3l0.4,0.2c0.1,0.1,0.2,0.2,0.4,0.3c0.1,0.1,0.2,0.2,0.3,0.4l0.1,0.2
			l0.1,0.2l0.1,0.2l0.1,0.2c0,0.2,0.1,0.3,0.1,0.5c0,0.2,0,0.3,0,0.5c0,0.2-0.1,0.3-0.1,0.5c-0.1,0.2-0.2,0.3-0.2,0.5
			c-0.1,0.1-0.2,0.3-0.4,0.4c-0.1,0.1-0.3,0.2-0.4,0.3c-0.2,0.1-0.3,0.2-0.5,0.2c-0.2,0-0.3,0.1-0.5,0c-0.2,0-0.3,0-0.5-0.1
			c-0.2,0-0.3-0.1-0.5-0.1l-0.5-0.2l0.4-0.4c0.2,0.3,0.3,0.5,0.4,0.9c0.1,0.3,0.2,0.7,0.1,1.1c-0.1,0.2-0.2,0.4-0.4,0.5
			c-0.2,0.1-0.4,0.1-0.5,0.2c-0.3,0-0.7,0-1-0.1c-0.6-0.2-1.2-0.4-1.7-0.8C151.1,99,150.6,98.6,150.3,98.1z"/>
		<path class="st8" d="M149.2,73.8c0,0,0.1-0.1,0.2-0.2c0.1-0.1,0.3-0.2,0.6-0.3c0.3-0.1,0.6-0.2,0.9-0.2c0.2,0,0.4,0,0.5,0.1
			c0.2,0,0.4,0.1,0.5,0.2l0.3,0.2l0.2,0.2c0.1,0.2,0.2,0.3,0.3,0.5c0.1,0.2,0,0.4,0,0.5c0,0.2-0.1,0.3-0.1,0.4
			c-0.1,0.1-0.1,0.2-0.2,0.3c-0.1,0.1-0.1,0.2-0.2,0.2c-0.1,0.1-0.2,0.2-0.2,0.2s0-0.1,0.1-0.2c0-0.1,0-0.2,0.1-0.3
			c0-0.1,0-0.2,0.1-0.3c0-0.1,0-0.2,0-0.4c0-0.1,0-0.1,0-0.2c0-0.1,0-0.1-0.1-0.2c0-0.1-0.1-0.2-0.2-0.3l-0.2-0.1l-0.2-0.1
			c-0.1-0.1-0.3-0.1-0.4-0.2c-0.1,0-0.3-0.1-0.4-0.1c-0.1,0-0.3,0-0.4,0c-0.1,0-0.3,0-0.4,0c-0.2,0-0.4,0-0.6,0.1
			C149.3,73.8,149.2,73.8,149.2,73.8z"/>
		<path class="st8" d="M137.4,59.9c-0.2,0.8-0.1,1.7,0.3,2.4c0.1,0.2,0.2,0.3,0.4,0.4c0.1,0.1,0.2,0,0.3-0.1
			c0.2-0.3,0.3-0.7,0.4-1.1c0-0.1,0.2-0.2,0.3-0.2c0.1,0,0.1,0.1,0.2,0.1l0,0l0.2,0.2c0.1,0.1,0.1,0.1,0.2,0.2
			c0.1,0.1,0.1,0.1,0.2,0.2c0.1,0.1,0.2,0.1,0.2,0.1c0.2,0.1,0.3,0.1,0.5,0.2c0.1,0,0.2,0,0.3,0c0.1,0,0.2,0,0.3,0
			c0.1,0,0.2-0.1,0.3-0.1c0.1,0,0.2-0.1,0.2-0.1c0.1-0.1,0.1-0.1,0.2-0.2c0.1-0.1,0.1-0.1,0.2-0.2c0-0.1,0.1-0.1,0.1-0.2
			c0-0.1,0.1-0.2,0.1-0.3c0-0.1,0-0.2,0-0.3l0-0.3v0c0-0.2,0.1-0.3,0.3-0.3c0,0,0,0,0,0l0.3,0.1c0.1,0,0.2,0,0.3,0
			c0.1,0,0.2,0,0.3,0c0.1,0,0.2,0,0.3-0.1c0.1,0,0.2-0.1,0.3-0.1c0.1-0.1,0.2-0.1,0.3-0.2c0.1-0.1,0.2-0.2,0.2-0.2
			c0.1-0.1,0.1-0.2,0.2-0.3c0-0.1,0.1-0.2,0.1-0.3c0-0.1,0-0.2,0-0.3c0-0.1,0-0.2-0.1-0.3c0-0.1-0.1-0.2-0.2-0.3
			c-0.1-0.1-0.1-0.2-0.2-0.3c-0.1-0.1-0.2-0.2-0.3-0.2c-0.1-0.1-0.2-0.1-0.3-0.2l-0.4-0.1l0.4,0.1c0.1,0,0.2,0.1,0.4,0.1
			c0.1,0,0.2,0.1,0.4,0.2c0.1,0.1,0.2,0.2,0.3,0.3c0.1,0.1,0.2,0.2,0.2,0.3c0.1,0.1,0.1,0.3,0.1,0.4c0,0.1,0,0.3,0,0.4
			c0,0.1,0,0.3-0.1,0.4c-0.1,0.1-0.1,0.3-0.2,0.4c-0.1,0.1-0.2,0.2-0.3,0.3c-0.1,0.1-0.2,0.2-0.3,0.3c-0.1,0.1-0.2,0.2-0.4,0.2
			c-0.1,0.1-0.3,0.1-0.4,0.1c-0.1,0-0.3,0.1-0.4,0.1c-0.1,0-0.3,0-0.4,0l-0.4,0l0.3-0.3l0,0.4c0,0.1,0,0.2,0,0.4
			c0,0.1-0.1,0.2-0.1,0.4c0,0.1-0.1,0.2-0.2,0.4c-0.1,0.1-0.2,0.2-0.2,0.3c-0.1,0.1-0.2,0.2-0.3,0.2c-0.1,0.1-0.2,0.1-0.3,0.2
			c-0.1,0-0.2,0.1-0.4,0.1c-0.1,0-0.3,0-0.4,0c-0.1,0-0.3,0-0.4,0c-0.2,0-0.5-0.1-0.7-0.2c-0.1-0.1-0.2-0.1-0.3-0.2
			c-0.1-0.1-0.2-0.1-0.3-0.2c-0.1-0.1-0.2-0.2-0.2-0.3l-0.2-0.3l0.5-0.1c-0.1,0.2-0.1,0.4-0.2,0.7c-0.1,0.2-0.2,0.4-0.4,0.6
			c-0.1,0.1-0.2,0.2-0.4,0.2c-0.2,0.1-0.3,0-0.5,0c-0.3-0.1-0.4-0.3-0.5-0.6c-0.2-0.4-0.3-0.9-0.3-1.3
			C137.1,60.7,137.2,60.2,137.4,59.9z"/>
		<path class="st8" d="M139.6,44.9c0,0,0.1,0,0.2,0.1c0.1,0,0.3,0.1,0.5,0.2c0.4,0.1,0.9,0.3,1.4,0.2c0.1,0,0.2,0,0.3-0.1
			c0.1,0,0.2-0.1,0.3-0.1c0.1-0.1,0.2-0.1,0.3-0.2c0.1-0.1,0.2-0.1,0.2-0.2c0.1-0.1,0.2-0.3,0.3-0.4c0.1-0.1,0.1-0.2,0.1-0.2
			s0,0.1,0,0.2c0,0.1,0,0.3-0.1,0.5c-0.1,0.1-0.1,0.2-0.2,0.3c-0.1,0.1-0.2,0.2-0.3,0.3c-0.1,0.1-0.3,0.2-0.4,0.2
			c-0.2,0.1-0.3,0.1-0.5,0.1c-0.3,0-0.6,0-0.9-0.2c-0.3-0.1-0.5-0.2-0.7-0.4c-0.2-0.1-0.3-0.3-0.4-0.4
			C139.7,45,139.6,44.9,139.6,44.9z"/>
		<path class="st8" d="M135.2,31.1c-0.1,0.5,0,0.9,0.1,1.4c0.1,0.4,0.4,0.8,0.6,1.2c0.1,0.1,0.3,0.3,0.5,0.3c0.2,0,0.3,0,0.4-0.1
			c0.1-0.1,0.2-0.3,0.2-0.5c0.1-0.2,0.1-0.4,0.1-0.7c0-0.2,0.2-0.3,0.3-0.3c0.1,0,0.2,0.1,0.2,0.1l0,0c0.1,0.1,0.1,0.2,0.2,0.3
			c0.1,0.1,0.2,0.2,0.2,0.2c0.1,0.1,0.2,0.1,0.2,0.2c0,0,0.1,0,0.1,0c0,0,0.1,0,0.1,0c0.1,0,0.1-0.1,0.2-0.1
			c0.1-0.1,0.1-0.2,0.2-0.3c0.1-0.2,0.2-0.4,0.3-0.7l0,0c0-0.1,0.2-0.2,0.3-0.2c0.3,0,0.6,0.1,0.8,0c0.1,0,0.3-0.1,0.4-0.1
			c0.1-0.1,0.2-0.1,0.3-0.2c0-0.1,0.1-0.1,0.1-0.2c0-0.1,0-0.1,0.1-0.2c0-0.1,0-0.3,0-0.4c0-0.3-0.1-0.6-0.2-0.9
			c0.2,0.2,0.3,0.5,0.4,0.8c0,0.2,0.1,0.3,0.1,0.5c0,0.1,0,0.2,0,0.3c0,0.1-0.1,0.2-0.1,0.2c-0.1,0.2-0.2,0.3-0.4,0.4
			c-0.1,0.1-0.3,0.2-0.5,0.2c-0.3,0.1-0.7,0.1-1,0.1l0.3-0.2c-0.1,0.3-0.1,0.5-0.3,0.8c-0.1,0.1-0.1,0.3-0.3,0.4
			c-0.1,0.1-0.3,0.2-0.5,0.3c-0.1,0-0.2,0-0.3,0c-0.1,0-0.2,0-0.3-0.1c-0.2-0.1-0.3-0.2-0.4-0.3c-0.2-0.2-0.4-0.4-0.6-0.7l0.5-0.1
			c0,0.2-0.1,0.5-0.2,0.8c0,0.1-0.1,0.2-0.1,0.4c-0.1,0.1-0.1,0.2-0.3,0.4c-0.1,0.1-0.3,0.2-0.4,0.3c-0.2,0.1-0.4,0-0.5,0
			c-0.3-0.1-0.5-0.3-0.7-0.5c-0.2-0.2-0.3-0.4-0.4-0.7c-0.1-0.2-0.2-0.5-0.2-0.7C134.9,32,135,31.5,135.2,31.1z"/>
		<path class="st8" d="M131.8,84c0,0.2,0,0.5,0,0.7c0,0.1,0.1,0.2,0.1,0.4c0,0.1,0.1,0.2,0.1,0.3c0.1,0.2,0.2,0.4,0.3,0.6
			c0.1,0.1,0.1,0.2,0.2,0.3c0.1,0.1,0.1,0.2,0.2,0.3c0.1,0.1,0.2,0.2,0.2,0.2c0.1,0.1,0.2,0.1,0.3,0.2c0.1,0,0.2,0.1,0.3,0.1
			c0.1,0,0.2,0,0.3,0c0.1,0,0.2,0,0.3-0.1l0.1-0.1l0.1-0.1c0.2-0.1,0.3-0.3,0.4-0.5l0,0c0.1-0.1,0.3-0.2,0.4,0
			c0.1,0.1,0.1,0.2,0.1,0.3c0,0.2-0.1,0.4,0,0.6c0,0.2,0,0.4,0,0.6l0.1,0.3c0,0.1,0.1,0.2,0.1,0.2c0,0.1,0.1,0.1,0.2,0.2
			c0.1,0.1,0.1,0.1,0.2,0.1c0.1,0,0.2,0,0.2,0c0.1,0,0.2,0,0.3,0c0.1,0,0.2-0.1,0.3-0.1c0.1,0,0.2-0.1,0.2-0.2
			c0.1-0.1,0.2-0.1,0.2-0.2c0.1-0.1,0.1-0.1,0.2-0.2c0.1-0.2,0.2-0.3,0.4-0.5c-0.1,0.2-0.1,0.4-0.2,0.6c0,0.1-0.1,0.2-0.2,0.3
			c-0.1,0.1-0.1,0.2-0.2,0.3c-0.1,0.1-0.1,0.2-0.3,0.2c-0.1,0.1-0.2,0.1-0.3,0.2c-0.1,0.1-0.2,0.1-0.4,0.1c-0.1,0-0.3,0-0.4,0
			c-0.1,0-0.3-0.1-0.4-0.2c-0.1-0.1-0.2-0.2-0.3-0.3c-0.1-0.1-0.1-0.2-0.2-0.3c0-0.1-0.1-0.2-0.1-0.3c0-0.1,0-0.2-0.1-0.4
			c0-0.1,0-0.2,0-0.3c0-0.2,0-0.5,0-0.7l0.6,0.2l-0.2,0.3c-0.1,0.1-0.2,0.2-0.3,0.3l-0.2,0.1l-0.2,0.1c-0.1,0-0.1,0.1-0.2,0.1
			l-0.2,0.1c-0.1,0.1-0.3,0-0.5,0c-0.1,0-0.3-0.1-0.4-0.1c-0.1-0.1-0.3-0.2-0.4-0.2c-0.1-0.1-0.2-0.2-0.3-0.3
			c-0.1-0.1-0.2-0.2-0.2-0.3c-0.1-0.1-0.1-0.2-0.2-0.4c-0.1-0.2-0.2-0.5-0.2-0.7c0-0.1,0-0.3,0-0.4c0-0.1,0-0.3,0-0.4
			c0-0.1,0-0.3,0-0.4L131.8,84z"/>
	</g>
	<g>
		<path class="st16" d="M331.8,195.7c-5.6-0.1-11.9,1.3-16.6-3.7c-4.3-4.5-3.4-11.4,0.6-15.8c-2.4-2-2.6-4.9-2.5-7.7
			c0.3-2,0.8-4.1,1.8-5.6c0.7-0.9,2.7-1.9,2.8-2.7c0.5-1.5-1.6-5.4-1.6-7.4c0.1-3.4,1.9-6.1,4.1-8.5c-4.3-4.5-0.8-11.1,3-14.9
			c-1.7-2.7-0.6-7.9-0.1-10.8c0.6-3.2,2-12,5-13.9c4.5-2.8,7,8,7.6,10.9c0.5,2.5,0.7,5.2,1.3,7.6c0.5,2.7,1.6,3.5,3.3,5.3
			c2.6,2.8,2.9,6.4,2,9.9c-0.2,1-1,2.4-0.8,3.4c0.4,1.3,2.9,3,3.6,4.3c2.6,4.2,2.1,9.2-1.5,12.7c3.6,1,6.6,3.4,8,6.8
			c1.9,4.4,0.1,7.6-2.6,10.8c5.3,4.1,5.4,10.9,0.2,15.2c-3.8,3.3-10.1,3.7-14.6,3.9L331.8,195.7z"/>
		<path class="st17" d="M324,165.9c-2.2,0.2,0.5,3.5,1.2,4.3c2.2,2.7,5.7,3.2,5.7,3.2s1,13,0.9,15.7c-3.1,0.3-7.1-4.5-8.3-8.4
			c-3,1.1,2.4,6.8,3.6,7.7c1.1,1,3.1,1.7,3.9,2.9c0.9,1.2,1.1,28.6,1.1,29c0.8,0.5,1.8,0.5,2.7,0c0.2-5.5-1-27.9-0.7-29.5
			c3-2.4,4.8-5,5.7-7.4c0.9-2.1,0.9-3.3,1.6-5.6c0.2-1,1.1-3.9,0.5-4.9c-1-1.6-1,0.5-1.3,1.5c-0.2,1.5-0.7,3.7-1.2,5.1
			c-1,2.9-1.5,5.1-3.8,7.8c-0.5,0.6-1.4,1.1-2.1,1.5c-0.4-3.3-0.7-18.2-0.9-22.3c0-1.4-0.3-8.3-1.3-8.2c-0.5,0-0.6-0.1-0.7,0.4
			c-0.2,1.4,0.8,12.5,0,12.9c-1.6,0.7-5-2.8-5.5-4L324,165.9z"/>
		<path class="st8" d="M341.1,188.1c0.4,0.4,0.9,0.8,1.4,1c0.5,0.3,1.1,0.4,1.6,0.5c0.3,0,0.5,0.1,0.8,0c0.3,0,0.4-0.1,0.5-0.3
			c0.1-0.2,0-0.4-0.1-0.7c-0.1-0.2-0.2-0.5-0.4-0.7c-0.1-0.1,0-0.3,0.1-0.4c0.1-0.1,0.2-0.1,0.3,0l0,0l0.4,0.2
			c0.1,0.1,0.3,0.1,0.4,0.1c0.1,0,0.3,0,0.4,0.1c0.1,0,0.3,0,0.4,0c0.1,0,0.2-0.1,0.4-0.1c0.1,0,0.2-0.1,0.3-0.2
			c0.1-0.1,0.2-0.2,0.3-0.3c0.1-0.1,0.2-0.2,0.2-0.3c0-0.1,0.1-0.2,0.1-0.4c0-0.1,0.1-0.3,0.1-0.4c0-0.1,0-0.3,0-0.4l0-0.2l-0.1-0.2
			l-0.1-0.2l-0.1-0.2c-0.1-0.1-0.1-0.3-0.2-0.4c-0.1-0.1-0.2-0.2-0.3-0.3l-0.3-0.3l0.4,0.2c0.1,0.1,0.2,0.2,0.4,0.3
			c0.1,0.1,0.2,0.2,0.3,0.4l0.1,0.2l0.1,0.2l0.1,0.2l0.1,0.2c0,0.2,0.1,0.3,0.1,0.5c0,0.2,0,0.3,0,0.5c0,0.2-0.1,0.3-0.1,0.5
			c-0.1,0.2-0.2,0.3-0.2,0.5c-0.1,0.1-0.2,0.3-0.4,0.4c-0.1,0.1-0.3,0.2-0.4,0.3c-0.2,0.1-0.3,0.2-0.5,0.2c-0.2,0-0.3,0.1-0.5,0
			c-0.2,0-0.3,0-0.5-0.1c-0.2,0-0.3-0.1-0.5-0.1l-0.5-0.2l0.4-0.4c0.2,0.3,0.3,0.5,0.4,0.8c0.1,0.3,0.2,0.7,0.1,1.1
			c-0.1,0.2-0.2,0.4-0.4,0.5c-0.2,0.1-0.4,0.1-0.5,0.2c-0.3,0-0.7,0-1-0.1c-0.6-0.2-1.2-0.4-1.7-0.8
			C341.9,189,341.4,188.6,341.1,188.1z"/>
		<path class="st8" d="M340,163.8c0,0,0.1-0.1,0.2-0.2c0.1-0.1,0.3-0.2,0.6-0.3c0.3-0.1,0.6-0.2,0.9-0.2c0.2,0,0.4,0,0.5,0
			c0.2,0,0.4,0.1,0.5,0.2l0.3,0.2l0.2,0.2c0.1,0.2,0.2,0.3,0.3,0.5c0.1,0.2,0,0.4,0,0.5c0,0.2-0.1,0.3-0.1,0.4
			c-0.1,0.1-0.1,0.2-0.2,0.3c-0.1,0.1-0.1,0.2-0.2,0.2c-0.1,0.1-0.2,0.2-0.2,0.2s0-0.1,0.1-0.2c0-0.1,0-0.2,0.1-0.3
			c0-0.1,0-0.2,0.1-0.3c0-0.1,0-0.2,0-0.4c0-0.1,0-0.1,0-0.2c0-0.1,0-0.1-0.1-0.2c0-0.1-0.1-0.2-0.2-0.3l-0.2-0.1l-0.2-0.1
			c-0.1-0.1-0.3-0.1-0.4-0.2c-0.1,0-0.3-0.1-0.4-0.1c-0.1,0-0.3,0-0.4,0c-0.1,0-0.3,0-0.4,0c-0.2,0-0.4,0-0.6,0.1
			C340.1,163.8,340,163.8,340,163.8z"/>
		<path class="st8" d="M328.2,149.8c-0.2,0.8-0.1,1.7,0.3,2.4c0.1,0.2,0.2,0.3,0.4,0.4c0.1,0.1,0.2,0,0.3-0.1
			c0.2-0.3,0.3-0.7,0.4-1.1c0-0.1,0.2-0.2,0.3-0.2c0.1,0,0.1,0,0.2,0.1l0,0l0.2,0.2c0.1,0.1,0.1,0.1,0.2,0.2
			c0.1,0.1,0.1,0.1,0.2,0.2c0.1,0.1,0.2,0.1,0.2,0.1c0.2,0.1,0.3,0.1,0.5,0.2c0.1,0,0.2,0,0.3,0c0.1,0,0.2,0,0.3,0
			c0.1,0,0.2-0.1,0.3-0.1c0.1,0,0.2-0.1,0.2-0.1c0.1-0.1,0.1-0.1,0.2-0.2c0.1-0.1,0.1-0.1,0.2-0.2c0-0.1,0.1-0.2,0.1-0.2
			c0-0.1,0.1-0.2,0.1-0.3c0-0.1,0-0.2,0-0.3l0-0.3v0c0-0.2,0.1-0.3,0.3-0.3c0,0,0,0,0,0l0.3,0.1c0.1,0,0.2,0,0.3,0
			c0.1,0,0.2,0,0.3,0c0.1,0,0.2,0,0.3-0.1c0.1,0,0.2-0.1,0.3-0.1c0.1-0.1,0.2-0.1,0.3-0.2c0.1-0.1,0.2-0.2,0.2-0.2
			c0.1-0.1,0.1-0.2,0.2-0.3c0-0.1,0.1-0.2,0.1-0.3c0-0.1,0-0.2,0-0.3c0-0.1,0-0.2-0.1-0.3c0-0.1-0.1-0.2-0.2-0.3
			c-0.1-0.1-0.1-0.2-0.2-0.3c-0.1-0.1-0.2-0.2-0.3-0.2c-0.1-0.1-0.2-0.1-0.3-0.2l-0.4-0.1l0.4,0.1c0.1,0,0.2,0.1,0.4,0.1
			c0.1,0,0.2,0.1,0.4,0.2c0.1,0.1,0.2,0.1,0.3,0.3c0.1,0.1,0.2,0.2,0.2,0.3c0.1,0.1,0.1,0.3,0.1,0.4c0,0.1,0,0.3,0,0.4
			c0,0.1,0,0.3-0.1,0.4c-0.1,0.1-0.1,0.3-0.2,0.4c-0.1,0.1-0.2,0.2-0.3,0.3c-0.1,0.1-0.2,0.2-0.3,0.3c-0.1,0.1-0.2,0.2-0.4,0.2
			c-0.1,0.1-0.3,0.1-0.4,0.1c-0.1,0-0.3,0.1-0.4,0.1c-0.1,0-0.3,0-0.4,0l-0.4,0l0.3-0.3l0,0.4c0,0.1,0,0.2,0,0.4
			c0,0.1-0.1,0.2-0.1,0.4c0,0.1-0.1,0.2-0.2,0.4c-0.1,0.1-0.2,0.2-0.2,0.3c-0.1,0.1-0.2,0.2-0.3,0.3c-0.1,0.1-0.2,0.1-0.3,0.2
			c-0.1,0-0.2,0.1-0.4,0.1c-0.1,0-0.3,0-0.4,0c-0.1,0-0.3,0-0.4,0c-0.2,0-0.5-0.1-0.7-0.2c-0.1-0.1-0.2-0.1-0.3-0.2
			c-0.1-0.1-0.2-0.1-0.3-0.2c-0.1-0.1-0.2-0.2-0.2-0.3l-0.2-0.3l0.5-0.1c-0.1,0.2-0.1,0.4-0.2,0.7c-0.1,0.2-0.2,0.4-0.4,0.6
			c-0.1,0.1-0.2,0.2-0.4,0.2c-0.2,0.1-0.3,0-0.5,0c-0.3-0.1-0.4-0.3-0.5-0.6c-0.2-0.4-0.3-0.9-0.3-1.3
			C327.9,150.7,328,150.2,328.2,149.8z"/>
		<path class="st8" d="M330.4,134.9c0,0,0.1,0,0.2,0.1c0.1,0,0.3,0.1,0.5,0.2c0.4,0.1,0.9,0.3,1.4,0.2c0.1,0,0.2,0,0.3-0.1
			c0.1,0,0.2-0.1,0.3-0.1c0.1-0.1,0.2-0.1,0.3-0.2c0.1-0.1,0.2-0.1,0.2-0.2c0.1-0.2,0.3-0.3,0.3-0.4c0.1-0.1,0.1-0.2,0.1-0.2
			s0,0.1,0,0.2c0,0.1,0,0.3-0.1,0.5c-0.1,0.1-0.1,0.2-0.2,0.3c-0.1,0.1-0.2,0.2-0.3,0.3c-0.1,0.1-0.3,0.2-0.4,0.2
			c-0.2,0.1-0.3,0.1-0.5,0.1c-0.3,0-0.6-0.1-0.9-0.2c-0.3-0.1-0.5-0.2-0.7-0.4c-0.2-0.1-0.3-0.3-0.4-0.4
			C330.5,134.9,330.4,134.9,330.4,134.9z"/>
		<path class="st8" d="M325.9,121c-0.1,0.5,0,0.9,0.1,1.4c0.1,0.4,0.4,0.8,0.6,1.2c0.1,0.2,0.3,0.3,0.5,0.3c0.2,0,0.3,0,0.4-0.1
			c0.1-0.1,0.2-0.3,0.2-0.5c0.1-0.2,0.1-0.4,0.1-0.7c0-0.2,0.2-0.3,0.3-0.3c0.1,0,0.2,0.1,0.2,0.1l0,0c0.1,0.1,0.1,0.2,0.2,0.3
			c0.1,0.1,0.2,0.2,0.2,0.2c0.1,0.1,0.2,0.1,0.2,0.2c0,0,0.1,0,0.1,0c0,0,0.1,0,0.1,0c0.1,0,0.1-0.1,0.2-0.1
			c0.1-0.1,0.1-0.2,0.2-0.3c0.1-0.2,0.2-0.4,0.3-0.7l0,0c0-0.1,0.2-0.2,0.3-0.2c0.3,0,0.6,0,0.8,0c0.1,0,0.3-0.1,0.4-0.1
			c0.1-0.1,0.2-0.1,0.3-0.2c0-0.1,0.1-0.1,0.1-0.2c0-0.1,0-0.1,0.1-0.2c0-0.1,0-0.3,0-0.4c0-0.3-0.1-0.6-0.3-0.9
			c0.2,0.2,0.3,0.5,0.4,0.8c0,0.2,0.1,0.3,0.1,0.5c0,0.1,0,0.2,0,0.3c0,0.1-0.1,0.2-0.1,0.2c-0.1,0.2-0.2,0.3-0.4,0.4
			c-0.1,0.1-0.3,0.2-0.5,0.2c-0.3,0.1-0.7,0.1-1,0.1l0.3-0.2c-0.1,0.3-0.1,0.5-0.3,0.8c-0.1,0.1-0.1,0.3-0.3,0.4
			c-0.1,0.1-0.3,0.2-0.5,0.3c-0.1,0-0.2,0-0.3,0c-0.1,0-0.2,0-0.3-0.1c-0.2-0.1-0.3-0.2-0.4-0.3c-0.2-0.2-0.4-0.4-0.6-0.7l0.5-0.1
			c0,0.2-0.1,0.5-0.2,0.8c0,0.1-0.1,0.3-0.1,0.4c-0.1,0.1-0.1,0.3-0.3,0.4c-0.1,0.1-0.3,0.2-0.4,0.3c-0.2,0-0.4,0-0.5,0
			c-0.3-0.1-0.5-0.3-0.7-0.5c-0.2-0.2-0.3-0.4-0.4-0.7c-0.1-0.2-0.2-0.5-0.2-0.7C325.7,122,325.8,121.5,325.9,121z"/>
		<path class="st8" d="M322.6,174c0,0.2,0,0.5,0,0.7c0,0.1,0,0.2,0.1,0.4c0,0.1,0.1,0.2,0.1,0.3c0.1,0.2,0.2,0.4,0.3,0.6
			c0,0.1,0.1,0.2,0.2,0.3c0.1,0.1,0.1,0.2,0.2,0.3c0.1,0.1,0.2,0.1,0.2,0.2c0.1,0.1,0.2,0.1,0.3,0.2c0.1,0,0.2,0.1,0.3,0.1
			c0.1,0,0.2,0,0.3,0c0.1,0,0.2,0,0.3-0.1l0.1-0.1l0.1-0.1c0.2-0.1,0.3-0.3,0.4-0.5l0,0c0.1-0.1,0.3-0.2,0.4,0
			c0.1,0.1,0.1,0.2,0.1,0.3c0,0.2-0.1,0.4,0,0.6c0,0.2,0,0.4,0,0.6l0.1,0.3c0,0.1,0.1,0.2,0.1,0.2c0.1,0.1,0.1,0.1,0.2,0.2
			c0.1,0.1,0.1,0.1,0.2,0.1c0.1,0,0.2,0,0.2,0c0.1,0,0.2,0,0.3,0c0.1,0,0.2-0.1,0.3-0.1c0.1,0,0.2-0.1,0.2-0.2
			c0.1,0,0.2-0.1,0.2-0.2c0.1-0.1,0.1-0.1,0.2-0.2c0.1-0.2,0.2-0.3,0.4-0.5c-0.1,0.2-0.1,0.4-0.2,0.6c0,0.1-0.1,0.2-0.2,0.3
			c-0.1,0.1-0.1,0.2-0.2,0.3c-0.1,0.1-0.1,0.2-0.3,0.2c-0.1,0.1-0.2,0.1-0.3,0.2c-0.1,0.1-0.2,0.1-0.4,0.1c-0.1,0-0.3,0-0.4,0
			c-0.1,0-0.3-0.1-0.4-0.2c-0.1-0.1-0.2-0.2-0.3-0.3c-0.1-0.1-0.1-0.2-0.2-0.3c0-0.1-0.1-0.2-0.1-0.3c0-0.1,0-0.2-0.1-0.4
			c0-0.1,0-0.2,0-0.3c0-0.2,0-0.5,0-0.7l0.6,0.2l-0.2,0.3c-0.1,0.1-0.2,0.2-0.3,0.3l-0.2,0.1l-0.2,0.1c-0.1,0-0.1,0.1-0.2,0.1
			l-0.2,0.1c-0.1,0.1-0.3,0-0.5,0c-0.1,0-0.3-0.1-0.4-0.1c-0.1-0.1-0.3-0.1-0.4-0.3c-0.1-0.1-0.2-0.2-0.3-0.3
			c-0.1-0.1-0.2-0.2-0.2-0.3c-0.1-0.1-0.1-0.2-0.2-0.4c-0.1-0.2-0.2-0.5-0.2-0.7c0-0.1,0-0.3,0-0.4c0-0.1,0-0.3,0-0.4
			c0-0.1,0-0.3,0-0.4L322.6,174z"/>
	</g>
</g>
</svg>
