<svg id="Capa_1" data-name="Capa 1" xmlns="http://www.w3.org/2000/svg" viewBox="0 0 529.86 209.29"><defs><style>.cls-1{fill:#e50211;}</style></defs><title>logoECDI</title><path class="cls-1" d="M96.38,192.05,35.07,222.63V258.2l27.7-13.77c15.14-7.57,43.6-21.65,63.13-31.34l35.58-17.71.45-16c.31-13.47,0-16.35-2-17.11C158.6,161.77,132.26,174,96.38,192.05Z" transform="translate(-35.07 -162.21)"/><path d="M326.49,190.53c-30.58,7.87-49.2,32.25-49.2,64.49,0,15.45,3.33,27.86,10.3,38,11.65,17.11,27.7,24.38,54.19,24.38,14.39,0,26.65-1.82,32.85-5,2.12-1.06,2.58-3.33,2.58-12,0-12.41-.91-13.17-12.26-9.84-9.39,2.88-26,3.18-33.31.61-14.08-4.85-22.41-16.51-23.62-33.46-2.42-32.85,22.11-51.47,56.32-42.69,4.84,1.36,9.84,2,10.9,1.66,1.36-.6,2-4.24,2-12.11v-11.2l-4.85-1.82C365,188.87,335.58,188.26,326.49,190.53Z" transform="translate(-35.07 -162.21)"/><path d="M188,193c-1.81,3.49-2.12,117.94-.3,121,1.06,1.37,9.69,1.82,38.3,1.52l36.94-.46V293.78L240.2,293l-22.71-.75V265l19.68-.76,19.68-.76V242.31l-19.68-.76-19.68-.76L217,227.47l-.45-13.17h19.68c10.74,0,20.58-.45,22-.91,3.48-1.36,3.48-21,0-22.4-1.37-.46-17.26-.91-35.43-.91C191.45,190.08,189.49,190.23,188,193Z" transform="translate(-35.07 -162.21)"/><path d="M401.73,191.29c-1.36,1.06-1.81,14.53-1.51,62.52l.45,61.16,25.74.46c14.23.3,30.13-.3,35.42-1.21,20.44-3.49,37.7-16.2,46.48-34.07,4.09-8.62,4.39-10.14,4.39-28.76s-.3-20.29-4.39-29.22c-8.17-17.71-23.46-27.4-47.84-30.58C446.7,189.93,404.46,189.62,401.73,191.29Zm57.83,24.83c3.64,1.21,8.94,4.69,13.17,8.78,8.48,8.48,11.21,16.95,10.15,31.64-1.21,17.41-10.45,29.67-25.74,34.21-9.38,2.73-24.07,3-26.64.46-2-2-2.73-74-.76-75.85C431.41,213.54,452.9,214.15,459.56,216.12Z" transform="translate(-35.07 -162.21)"/><path d="M536.17,193c-2.28,4.55-2.12,118.54.3,121s24.22,2.43,26.64,0c1.37-1.36,1.82-16.8,1.82-60.4,0-51.32-.3-59-2.42-61-1.67-1.82-5.3-2.42-13.48-2.42C539.5,190.08,537.53,190.53,536.17,193Z" transform="translate(-35.07 -162.21)"/><path class="cls-1" d="M95.32,238.67,35.07,268.8v17.41c0,9.54.3,17.41.76,17.41s29.06-14.08,63.58-31.34l62.83-31.49v-16.2c0-15.89-.15-16.35-3.33-16.19C156.94,208.4,128.33,222,95.32,238.67Z" transform="translate(-35.07 -162.21)"/><path class="cls-1" d="M95.32,285.45,35.07,315.73v17.41c0,9.54.3,17.41.76,17.41s29.06-14.08,63.58-31.49l63-31.34-.46-15.89c-.45-14.69-.75-15.9-3.48-16.2C156.79,255.48,128.33,269,95.32,285.45Z" transform="translate(-35.07 -162.21)"/><path d="M188.55,342.49h-5v4.62h5.55v1.38h-7.21v-12.8h6.92v1.37h-5.26v4.06h5Z" transform="translate(-35.07 -162.21)"/><path d="M192.62,346.79a4.58,4.58,0,0,0,2.21.65c1.22,0,1.78-.6,1.78-1.36s-.48-1.23-1.7-1.69c-1.66-.6-2.45-1.5-2.44-2.6,0-1.48,1.2-2.7,3.17-2.7a4.45,4.45,0,0,1,2.25.57l-.41,1.21a3.63,3.63,0,0,0-1.89-.54c-1,0-1.52.57-1.52,1.26s.54,1.1,1.75,1.57c1.58.59,2.4,1.39,2.41,2.76,0,1.63-1.27,2.77-3.44,2.77a5.26,5.26,0,0,1-2.58-.64Z" transform="translate(-35.07 -162.21)"/><path d="M204,336.66v2.64h2.4v1.27H204v4.95c0,1.15.33,1.79,1.27,1.79a3.28,3.28,0,0,0,1-.12l.07,1.27a4.17,4.17,0,0,1-1.49.23A2.3,2.3,0,0,1,203,348a3.49,3.49,0,0,1-.65-2.39v-5h-1.43V339.3h1.43v-2.21Z" transform="translate(-35.07 -162.21)"/><path d="M217.55,346c0,1,0,1.78.08,2.51h-1.48l-.09-1.5h0A3.45,3.45,0,0,1,213,348.7c-1.43,0-3.16-.81-3.16-4V339.3h1.66v5.08c0,1.75.55,2.94,2.06,2.94a2.43,2.43,0,0,0,2.21-1.53,2.75,2.75,0,0,0,.15-.86V339.3h1.66Z" transform="translate(-35.07 -162.21)"/><path d="M229.86,335v11.12c0,.82,0,1.74.07,2.37h-1.48l-.09-1.59h0a3.36,3.36,0,0,1-3.12,1.8c-2.22,0-3.94-1.88-3.94-4.67,0-3.07,1.89-4.94,4.13-4.94a3.05,3.05,0,0,1,2.77,1.4h0V335Zm-1.66,8a3.42,3.42,0,0,0-.07-.71,2.48,2.48,0,0,0-2.42-1.93c-1.73,0-2.77,1.52-2.77,3.54s.93,3.42,2.73,3.42a2.52,2.52,0,0,0,2.44-2,2.73,2.73,0,0,0,.09-.72Z" transform="translate(-35.07 -162.21)"/><path d="M236.1,336.71a1,1,0,0,1-1.06,1,1,1,0,0,1-1-1,1,1,0,1,1,2.07,0Zm-1.87,11.78V339.3h1.66v9.19Z" transform="translate(-35.07 -162.21)"/><path d="M248.59,343.81A4.5,4.5,0,0,1,244,348.7,4.38,4.38,0,0,1,239.6,344c0-3.08,2-4.88,4.56-4.88S248.59,341,248.59,343.81Zm-7.29.11c0,2,1.16,3.53,2.79,3.53s2.8-1.5,2.8-3.58c0-1.56-.79-3.52-2.77-3.52S241.3,342.17,241.3,343.92Z" transform="translate(-35.07 -162.21)"/><path d="M252.06,346.79a4.58,4.58,0,0,0,2.21.65c1.22,0,1.79-.6,1.79-1.36s-.49-1.23-1.71-1.69c-1.66-.6-2.45-1.5-2.44-2.6,0-1.48,1.2-2.7,3.18-2.7a4.48,4.48,0,0,1,2.25.57l-.42,1.21a3.62,3.62,0,0,0-1.88-.54c-1,0-1.53.57-1.53,1.26s.55,1.1,1.75,1.57c1.58.59,2.41,1.39,2.41,2.76,0,1.63-1.27,2.77-3.44,2.77a5.26,5.26,0,0,1-2.58-.64Z" transform="translate(-35.07 -162.21)"/><path d="M275,335v11.12c0,.82,0,1.74.08,2.37h-1.49l-.08-1.59h-.05a3.35,3.35,0,0,1-3.11,1.8c-2.23,0-3.95-1.88-3.95-4.67,0-3.07,1.89-4.94,4.13-4.94a3.05,3.05,0,0,1,2.77,1.4h0V335Zm-1.66,8a3.42,3.42,0,0,0-.07-.71,2.47,2.47,0,0,0-2.42-1.93c-1.73,0-2.76,1.52-2.76,3.54s.92,3.42,2.73,3.42a2.53,2.53,0,0,0,2.44-2,2.74,2.74,0,0,0,.08-.72Z" transform="translate(-35.07 -162.21)"/><path d="M280.29,344.2a2.93,2.93,0,0,0,3.15,3.19,6.29,6.29,0,0,0,2.54-.47l.29,1.18a7.3,7.3,0,0,1-3.06.59,4.28,4.28,0,0,1-4.52-4.64c0-2.78,1.64-5,4.32-5,3,0,3.78,2.63,3.78,4.33a3.77,3.77,0,0,1-.06.78Zm4.89-1.2c0-1.06-.43-2.71-2.3-2.71a2.74,2.74,0,0,0-2.57,2.71Z" transform="translate(-35.07 -162.21)"/><path d="M305.1,348.08a8.22,8.22,0,0,1-3.38.61c-3.61,0-6.31-2.28-6.31-6.49a6.35,6.35,0,0,1,6.68-6.71,7,7,0,0,1,3,.56l-.41,1.35a6,6,0,0,0-2.57-.53c-3,0-5,1.92-5,5.28,0,3.13,1.81,5.14,4.91,5.14a6.7,6.7,0,0,0,2.71-.53Z" transform="translate(-35.07 -162.21)"/><path d="M313.67,348.49l-.14-1.16h0a3.42,3.42,0,0,1-2.81,1.37,2.62,2.62,0,0,1-2.81-2.64c0-2.22,2-3.44,5.52-3.42v-.19a1.89,1.89,0,0,0-2.09-2.12,4.43,4.43,0,0,0-2.39.68l-.38-1.11a5.77,5.77,0,0,1,3-.81c2.81,0,3.49,1.92,3.49,3.76v3.44a14.71,14.71,0,0,0,.14,2.2Zm-.26-4.69c-1.8,0-3.87.28-3.87,2.06a1.47,1.47,0,0,0,1.56,1.6,2.28,2.28,0,0,0,2.23-1.54,1.61,1.61,0,0,0,.08-.52Z" transform="translate(-35.07 -162.21)"/><path d="M319.34,335H321v13.49h-1.66Z" transform="translate(-35.07 -162.21)"/><path d="M327.28,336.71a1,1,0,0,1-1.06,1,1,1,0,0,1-1-1,1,1,0,1,1,2.07,0Zm-1.87,11.78V339.3h1.66v9.19Z" transform="translate(-35.07 -162.21)"/><path d="M339.38,335v11.12c0,.82,0,1.74.08,2.37H338l-.08-1.59h-.05a3.35,3.35,0,0,1-3.11,1.8c-2.23,0-4-1.88-4-4.67,0-3.07,1.89-4.94,4.13-4.94a3.05,3.05,0,0,1,2.77,1.4h0V335Zm-1.66,8a3.42,3.42,0,0,0-.07-.71,2.47,2.47,0,0,0-2.42-1.93c-1.73,0-2.77,1.52-2.77,3.54s.93,3.42,2.74,3.42a2.53,2.53,0,0,0,2.44-2,2.74,2.74,0,0,0,.08-.72Z" transform="translate(-35.07 -162.21)"/><path d="M348.85,348.49l-.15-1.16h-.05a3.4,3.4,0,0,1-2.81,1.37,2.62,2.62,0,0,1-2.8-2.64c0-2.22,2-3.44,5.52-3.42v-.19a1.89,1.89,0,0,0-2.1-2.12,4.45,4.45,0,0,0-2.39.68l-.38-1.11a5.77,5.77,0,0,1,3-.81c2.81,0,3.5,1.92,3.5,3.76v3.44a13.49,13.49,0,0,0,.14,2.2Zm-.26-4.69c-1.81,0-3.88.28-3.88,2.06a1.47,1.47,0,0,0,1.56,1.6,2.3,2.3,0,0,0,2.24-1.54,1.61,1.61,0,0,0,.08-.52Z" transform="translate(-35.07 -162.21)"/><path d="M362.45,335v11.12c0,.82,0,1.74.07,2.37H361L361,346.9h0a3.36,3.36,0,0,1-3.12,1.8c-2.23,0-3.94-1.88-3.94-4.67,0-3.07,1.89-4.94,4.12-4.94a3.08,3.08,0,0,1,2.78,1.4h0V335Zm-1.67,8a3.42,3.42,0,0,0-.07-.71,2.47,2.47,0,0,0-2.42-1.93c-1.73,0-2.76,1.52-2.76,3.54s.93,3.42,2.73,3.42a2.53,2.53,0,0,0,2.44-2,2.74,2.74,0,0,0,.08-.72Z" transform="translate(-35.07 -162.21)"/><path d="M372.5,335.84a18.39,18.39,0,0,1,3.18-.25,5.23,5.23,0,0,1,3.59,1.06,3.46,3.46,0,0,1,1.13,2.68,3.76,3.76,0,0,1-1,2.74,5.26,5.26,0,0,1-3.91,1.4,5,5,0,0,1-1.34-.12v5.14H372.5Zm1.65,6.17a5.4,5.4,0,0,0,1.37.14c2,0,3.22-1,3.22-2.73s-1.21-2.53-3-2.53a7.31,7.31,0,0,0-1.57.14Z" transform="translate(-35.07 -162.21)"/><path d="M388.75,348.49l-.14-1.16h-.05a3.42,3.42,0,0,1-2.81,1.37,2.62,2.62,0,0,1-2.81-2.64c0-2.22,2-3.44,5.52-3.42v-.19a1.89,1.89,0,0,0-2.09-2.12,4.49,4.49,0,0,0-2.4.68l-.37-1.11a5.77,5.77,0,0,1,3-.81c2.81,0,3.49,1.92,3.49,3.76v3.44a14.71,14.71,0,0,0,.14,2.2Zm-.26-4.69c-1.8,0-3.87.28-3.87,2.06a1.47,1.47,0,0,0,1.55,1.6,2.29,2.29,0,0,0,2.24-1.54,1.61,1.61,0,0,0,.08-.52Z" transform="translate(-35.07 -162.21)"/><path d="M394.42,342.16c0-1.08,0-2-.08-2.86h1.47l.06,1.81h.06a2.79,2.79,0,0,1,2.56-2,2.16,2.16,0,0,1,.46.05v1.57a3.1,3.1,0,0,0-.57,0,2.33,2.33,0,0,0-2.23,2.14,3.9,3.9,0,0,0-.07.78v4.91h-1.66Z" transform="translate(-35.07 -162.21)"/><path d="M407.23,348.49l-.15-1.16H407a3.4,3.4,0,0,1-2.81,1.37,2.62,2.62,0,0,1-2.8-2.64c0-2.22,2-3.44,5.52-3.42v-.19a1.89,1.89,0,0,0-2.09-2.12,4.49,4.49,0,0,0-2.4.68l-.38-1.11a5.84,5.84,0,0,1,3-.81c2.81,0,3.49,1.92,3.49,3.76v3.44a14.71,14.71,0,0,0,.14,2.2ZM407,343.8c-1.81,0-3.88.28-3.88,2.06a1.47,1.47,0,0,0,1.56,1.6,2.29,2.29,0,0,0,2.24-1.54,1.61,1.61,0,0,0,.08-.52Z" transform="translate(-35.07 -162.21)"/><path d="M419.46,344.2a2.94,2.94,0,0,0,3.15,3.19,6.25,6.25,0,0,0,2.54-.47l.3,1.18a7.39,7.39,0,0,1-3.07.59,4.28,4.28,0,0,1-4.52-4.64c0-2.78,1.64-5,4.32-5,3,0,3.78,2.63,3.78,4.33a3.92,3.92,0,0,1,0,.78Zm4.9-1.2c0-1.06-.44-2.71-2.31-2.71a2.74,2.74,0,0,0-2.56,2.71Z" transform="translate(-35.07 -162.21)"/><path d="M429.65,335h1.66v13.49h-1.66Z" transform="translate(-35.07 -162.21)"/><path d="M441.4,335.86a22.82,22.82,0,0,1,3.52-.27,7.37,7.37,0,0,1,5.19,1.6,5.88,5.88,0,0,1,1.81,4.59,6.85,6.85,0,0,1-1.84,5,8,8,0,0,1-5.67,1.84,25.89,25.89,0,0,1-3-.14Zm1.66,11.33a11.42,11.42,0,0,0,1.66.08c3.55,0,5.46-2,5.46-5.43,0-3-1.69-4.93-5.18-4.93a9.78,9.78,0,0,0-1.94.17Z" transform="translate(-35.07 -162.21)"/><path d="M456.61,344.2a2.93,2.93,0,0,0,3.14,3.19,6.31,6.31,0,0,0,2.55-.47l.29,1.18a7.34,7.34,0,0,1-3.06.59,4.29,4.29,0,0,1-4.53-4.64c0-2.78,1.64-5,4.33-5,3,0,3.78,2.63,3.78,4.33a3.77,3.77,0,0,1-.06.78Zm4.89-1.2c0-1.06-.43-2.71-2.31-2.71a2.74,2.74,0,0,0-2.56,2.71Z" transform="translate(-35.07 -162.21)"/><path d="M466.55,346.79a4.65,4.65,0,0,0,2.22.65c1.22,0,1.78-.6,1.78-1.36s-.48-1.23-1.7-1.69c-1.66-.6-2.45-1.5-2.44-2.6,0-1.48,1.2-2.7,3.17-2.7a4.45,4.45,0,0,1,2.25.57l-.41,1.21a3.63,3.63,0,0,0-1.89-.54c-1,0-1.52.57-1.52,1.26s.54,1.1,1.75,1.57c1.58.59,2.4,1.39,2.41,2.76,0,1.63-1.27,2.77-3.44,2.77a5.26,5.26,0,0,1-2.58-.64Z" transform="translate(-35.07 -162.21)"/><path d="M481,348.49l-.15-1.16h-.05A3.4,3.4,0,0,1,478,348.7a2.62,2.62,0,0,1-2.8-2.64c0-2.22,2-3.44,5.52-3.42v-.19a1.89,1.89,0,0,0-2.09-2.12,4.49,4.49,0,0,0-2.4.68l-.38-1.11a5.84,5.84,0,0,1,3-.81c2.81,0,3.49,1.92,3.49,3.76v3.44a14.71,14.71,0,0,0,.14,2.2Zm-.26-4.69c-1.81,0-3.88.28-3.88,2.06a1.47,1.47,0,0,0,1.56,1.6,2.29,2.29,0,0,0,2.24-1.54,1.61,1.61,0,0,0,.08-.52Z" transform="translate(-35.07 -162.21)"/><path d="M486.68,342.16c0-1.08,0-2-.08-2.86h1.46l.07,1.81h.06a2.79,2.79,0,0,1,2.56-2,2.16,2.16,0,0,1,.46.05v1.57a3.1,3.1,0,0,0-.57,0,2.32,2.32,0,0,0-2.23,2.14,3.9,3.9,0,0,0-.07.78v4.91h-1.66Z" transform="translate(-35.07 -162.21)"/><path d="M494.56,342.16c0-1.08,0-2-.07-2.86H496l.07,1.81h.06a2.78,2.78,0,0,1,2.55-2,2.19,2.19,0,0,1,.47.05v1.57a3.1,3.1,0,0,0-.57,0,2.34,2.34,0,0,0-2.24,2.14,4.84,4.84,0,0,0-.06.78v4.91h-1.67Z" transform="translate(-35.07 -162.21)"/><path d="M510.5,343.81a4.5,4.5,0,0,1-4.56,4.89,4.37,4.37,0,0,1-4.42-4.73c0-3.08,2-4.88,4.56-4.88S510.5,341,510.5,343.81Zm-7.28.11c0,2,1.15,3.53,2.78,3.53s2.8-1.5,2.8-3.58c0-1.56-.78-3.52-2.76-3.52S503.22,342.17,503.22,343.92Z" transform="translate(-35.07 -162.21)"/><path d="M514.21,335h1.67v13.49h-1.67Z" transform="translate(-35.07 -162.21)"/><path d="M520.28,335H522v13.49h-1.67Z" transform="translate(-35.07 -162.21)"/><path d="M534.67,343.81a4.5,4.5,0,0,1-4.57,4.89,4.37,4.37,0,0,1-4.41-4.73c0-3.08,2-4.88,4.56-4.88S534.67,341,534.67,343.81Zm-7.28.11c0,2,1.15,3.53,2.78,3.53s2.8-1.5,2.8-3.58c0-1.56-.78-3.52-2.77-3.52S527.39,342.17,527.39,343.92Z" transform="translate(-35.07 -162.21)"/><path d="M551.94,335v11.12c0,.82,0,1.74.08,2.37h-1.49l-.08-1.59h-.05a3.35,3.35,0,0,1-3.11,1.8c-2.23,0-3.95-1.88-3.95-4.67,0-3.07,1.89-4.94,4.13-4.94a3.05,3.05,0,0,1,2.77,1.4h0V335Zm-1.66,8a3.42,3.42,0,0,0-.07-.71,2.47,2.47,0,0,0-2.42-1.93c-1.73,0-2.77,1.52-2.77,3.54s.93,3.42,2.73,3.42a2.54,2.54,0,0,0,2.45-2,2.74,2.74,0,0,0,.08-.72Z" transform="translate(-35.07 -162.21)"/><path d="M557.25,344.2a2.93,2.93,0,0,0,3.14,3.19,6.31,6.31,0,0,0,2.55-.47l.29,1.18a7.3,7.3,0,0,1-3.06.59,4.28,4.28,0,0,1-4.52-4.64c0-2.78,1.64-5,4.32-5,3,0,3.78,2.63,3.78,4.33a3.77,3.77,0,0,1-.06.78Zm4.89-1.2c0-1.06-.43-2.71-2.31-2.71a2.74,2.74,0,0,0-2.56,2.71Z" transform="translate(-35.07 -162.21)"/><path d="M252,358.49v12.8h-1.66v-12.8Z" transform="translate(-35.07 -162.21)"/><path d="M256.63,364.58c0-.95,0-1.72-.07-2.48H258l.09,1.51h0a3.41,3.41,0,0,1,3-1.72c1.26,0,3.24.76,3.24,3.92v5.48h-1.66V366c0-1.48-.56-2.73-2.13-2.73a2.41,2.41,0,0,0-2.25,1.72,2.55,2.55,0,0,0-.11.77v5.54h-1.67Z" transform="translate(-35.07 -162.21)"/><path d="M268.94,371.29v-7.92h-1.28V362.1h1.28v-.44a4.4,4.4,0,0,1,1.07-3.22,3.16,3.16,0,0,1,2.23-.85,3.66,3.66,0,0,1,1.43.27l-.22,1.29a2.45,2.45,0,0,0-1.08-.21c-1.41,0-1.78,1.25-1.78,2.67v.49h2.22v1.27H270.6v7.92Z" transform="translate(-35.07 -162.21)"/><path d="M275.92,365c0-1.08,0-2-.07-2.86h1.46l.07,1.81h.05a2.8,2.8,0,0,1,2.56-2,2.26,2.26,0,0,1,.47.05v1.57a3.1,3.1,0,0,0-.57-.05,2.34,2.34,0,0,0-2.24,2.14,4.84,4.84,0,0,0-.06.78v4.91h-1.67Z" transform="translate(-35.07 -162.21)"/><path d="M288.74,371.29l-.15-1.16h0a3.41,3.41,0,0,1-2.81,1.37,2.62,2.62,0,0,1-2.81-2.64c0-2.22,2-3.44,5.52-3.42v-.19a1.89,1.89,0,0,0-2.09-2.12,4.45,4.45,0,0,0-2.39.68l-.38-1.11a5.77,5.77,0,0,1,3-.81c2.81,0,3.5,1.92,3.5,3.76v3.44a14.8,14.8,0,0,0,.13,2.2Zm-.26-4.69c-1.81,0-3.88.28-3.88,2.06a1.47,1.47,0,0,0,1.56,1.6,2.3,2.3,0,0,0,2.24-1.54,1.65,1.65,0,0,0,.08-.52Z" transform="translate(-35.07 -162.21)"/><path d="M295.34,367a2.93,2.93,0,0,0,3.14,3.19,6.31,6.31,0,0,0,2.55-.47l.29,1.18a7.35,7.35,0,0,1-3.07.59,4.28,4.28,0,0,1-4.52-4.64c0-2.78,1.64-5,4.33-5,3,0,3.78,2.63,3.78,4.32a3.81,3.81,0,0,1-.06.79Zm4.89-1.2c0-1.06-.43-2.71-2.31-2.71a2.74,2.74,0,0,0-2.56,2.71Z" transform="translate(-35.07 -162.21)"/><path d="M305.29,369.59a4.58,4.58,0,0,0,2.21.65c1.22,0,1.79-.6,1.79-1.36s-.49-1.23-1.71-1.69c-1.66-.6-2.45-1.5-2.44-2.6,0-1.48,1.2-2.7,3.17-2.7a4.45,4.45,0,0,1,2.25.57l-.41,1.21a3.63,3.63,0,0,0-1.89-.54c-1,0-1.52.57-1.52,1.26s.54,1.1,1.75,1.57c1.58.59,2.4,1.39,2.41,2.76,0,1.63-1.27,2.77-3.44,2.77a5.26,5.26,0,0,1-2.58-.64Z" transform="translate(-35.07 -162.21)"/><path d="M316.65,359.46v2.64h2.4v1.27h-2.4v4.95c0,1.14.33,1.79,1.27,1.79a3.28,3.28,0,0,0,1-.12l.07,1.27a4.17,4.17,0,0,1-1.49.23,2.3,2.3,0,0,1-1.8-.71,3.5,3.5,0,0,1-.65-2.39v-5h-1.43V362.1H315v-2.21Z" transform="translate(-35.07 -162.21)"/><path d="M322.54,365c0-1.08,0-2-.08-2.86h1.46l.07,1.81h.06a2.79,2.79,0,0,1,2.55-2,2.19,2.19,0,0,1,.47.05v1.57a3.1,3.1,0,0,0-.57-.05,2.34,2.34,0,0,0-2.24,2.14,4.84,4.84,0,0,0-.06.78v4.91h-1.66Z" transform="translate(-35.07 -162.21)"/><path d="M338,368.78c0,1,0,1.78.07,2.51h-1.48l-.08-1.5h-.05a3.43,3.43,0,0,1-3,1.71c-1.44,0-3.17-.81-3.17-4V362.1h1.67v5.08c0,1.75.54,2.94,2.05,2.94a2.43,2.43,0,0,0,2.21-1.53,2.49,2.49,0,0,0,.15-.86V362.1H338Z" transform="translate(-35.07 -162.21)"/><path d="M348.92,371a6.42,6.42,0,0,1-2.63.53,4.38,4.38,0,0,1-4.59-4.7,4.67,4.67,0,0,1,4.94-4.89,5.39,5.39,0,0,1,2.32.49l-.37,1.28a4.07,4.07,0,0,0-2-.44,3.19,3.19,0,0,0-3.24,3.48,3.15,3.15,0,0,0,3.2,3.43,4.77,4.77,0,0,0,2.05-.44Z" transform="translate(-35.07 -162.21)"/><path d="M360.17,368.78c0,1,0,1.78.08,2.51h-1.48l-.09-1.5h0a3.44,3.44,0,0,1-3,1.71c-1.44,0-3.17-.81-3.17-4V362.1h1.66v5.08c0,1.75.55,2.94,2.06,2.94a2.43,2.43,0,0,0,2.21-1.53,2.75,2.75,0,0,0,.15-.86V362.1h1.66Z" transform="translate(-35.07 -162.21)"/><path d="M364.55,365c0-1.08,0-2-.08-2.86h1.46l.07,1.81h.06a2.79,2.79,0,0,1,2.56-2,2.16,2.16,0,0,1,.46.05v1.57a3.1,3.1,0,0,0-.57-.05,2.32,2.32,0,0,0-2.23,2.14,3.9,3.9,0,0,0-.07.78v4.91h-1.66Z" transform="translate(-35.07 -162.21)"/><path d="M377.36,371.29l-.15-1.16h0a3.4,3.4,0,0,1-2.81,1.37,2.62,2.62,0,0,1-2.8-2.64c0-2.22,2-3.44,5.52-3.42v-.19a1.89,1.89,0,0,0-2.1-2.12,4.48,4.48,0,0,0-2.39.68l-.38-1.11a5.8,5.8,0,0,1,3-.81c2.81,0,3.5,1.92,3.5,3.76v3.44a13.49,13.49,0,0,0,.14,2.2Zm-.26-4.69c-1.81,0-3.88.28-3.88,2.06a1.47,1.47,0,0,0,1.56,1.6,2.3,2.3,0,0,0,2.24-1.54,1.65,1.65,0,0,0,.08-.52Z" transform="translate(-35.07 -162.21)"/><path d="M394.12,369.27a5.7,5.7,0,0,0,3,.83c1.69,0,2.68-.88,2.68-2.18s-.69-1.88-2.42-2.53c-2.09-.74-3.38-1.84-3.38-3.63,0-2,1.65-3.47,4.15-3.47a5.82,5.82,0,0,1,2.82.62l-.46,1.35a4.87,4.87,0,0,0-2.42-.61c-1.76,0-2.42,1.05-2.42,1.92,0,1.19.78,1.77,2.55,2.46,2.17.85,3.26,1.89,3.26,3.77s-1.45,3.69-4.48,3.69a6.45,6.45,0,0,1-3.27-.84Z" transform="translate(-35.07 -162.21)"/><path d="M404.85,370.31A1.13,1.13,0,0,1,406,369.1a1.2,1.2,0,1,1-1.14,1.21Z" transform="translate(-35.07 -162.21)"/><path d="M412.9,367.27l-1.33,4h-1.71l4.35-12.8h2l4.38,12.8h-1.77l-1.37-4Zm4.2-1.3-1.27-3.68c-.27-.84-.47-1.6-.66-2.34h0c-.18.75-.38,1.53-.63,2.32l-1.27,3.7Z" transform="translate(-35.07 -162.21)"/><path d="M423.6,370.31a1.13,1.13,0,0,1,1.14-1.21,1.2,1.2,0,1,1-1.14,1.21Z" transform="translate(-35.07 -162.21)"/><path d="M443.08,357.8v11.12c0,.82,0,1.74.08,2.37h-1.49l-.08-1.59h0a3.35,3.35,0,0,1-3.11,1.8c-2.23,0-3.95-1.88-3.95-4.67,0-3.07,1.89-4.94,4.13-4.94a3.05,3.05,0,0,1,2.77,1.4h0V357.8Zm-1.66,8a3.42,3.42,0,0,0-.07-.71,2.47,2.47,0,0,0-2.42-1.93c-1.73,0-2.76,1.52-2.76,3.54s.92,3.42,2.73,3.42a2.53,2.53,0,0,0,2.44-2,2.74,2.74,0,0,0,.08-.72Z" transform="translate(-35.07 -162.21)"/><path d="M448.39,367a2.93,2.93,0,0,0,3.15,3.19,6.29,6.29,0,0,0,2.54-.47l.29,1.18a7.3,7.3,0,0,1-3.06.59,4.28,4.28,0,0,1-4.52-4.64c0-2.78,1.64-5,4.32-5,3,0,3.78,2.63,3.78,4.32a3.81,3.81,0,0,1-.06.79Zm4.89-1.2c0-1.06-.43-2.71-2.3-2.71a2.75,2.75,0,0,0-2.57,2.71Z" transform="translate(-35.07 -162.21)"/><path d="M473.2,370.88a8.18,8.18,0,0,1-3.38.61c-3.61,0-6.31-2.28-6.31-6.49a6.35,6.35,0,0,1,6.68-6.71,7,7,0,0,1,3,.56l-.41,1.35a6,6,0,0,0-2.57-.53c-3,0-5,1.92-5,5.28,0,3.13,1.81,5.14,4.91,5.14a6.7,6.7,0,0,0,2.71-.53Z" transform="translate(-35.07 -162.21)"/><path d="M476.42,370.31a1.13,1.13,0,0,1,1.13-1.21,1.2,1.2,0,1,1-1.13,1.21Z" transform="translate(-35.07 -162.21)"/><path d="M485.21,371.29,481,358.49h1.79l2,6.31c.55,1.73,1,3.29,1.37,4.78h.05c.35-1.48.88-3.09,1.45-4.76l2.17-6.33h1.77L487,371.29Z" transform="translate(-35.07 -162.21)"/><path d="M493.09,370.31a1.13,1.13,0,0,1,1.13-1.21,1.2,1.2,0,1,1-1.13,1.21Z" transform="translate(-35.07 -162.21)"/></svg>